<svg width="16" height="16" viewBox="0 0 16 16" fill="none" xmlns="http://www.w3.org/2000/svg">
<path d="M12.2555 3.01716C12.2036 3.01744 12.1525 3.03048 12.1065 3.05521C12.0604 3.07995 12.0207 3.11566 11.9905 3.15942C11.7581 3.45811 11.4215 3.64998 11.0535 3.69352C10.9302 3.71556 10.8053 3.72642 10.6802 3.72596C10.1259 3.71891 9.58573 3.54363 9.12656 3.22181C8.72189 2.92057 8.24167 2.7472 7.74395 2.72266C7.60259 2.72307 7.46183 2.74151 7.32483 2.77756C6.84508 2.92758 6.43853 3.26137 6.1879 3.71099L6.12769 3.81082L6.85031 3.93811L6.87921 3.90067C7.0332 3.68276 7.25127 3.52249 7.50066 3.44394C7.57925 3.42231 7.66023 3.41141 7.74154 3.41149C8.11075 3.43618 8.46531 3.57048 8.76284 3.79834C9.33199 4.19841 10.0021 4.41626 10.6898 4.42478C10.8513 4.42423 11.0124 4.41004 11.1716 4.38236C11.4384 4.3472 11.6959 4.25791 11.9295 4.11959C12.163 3.98127 12.3679 3.79663 12.5325 3.57622C12.5827 3.5041 12.6043 3.41475 12.5927 3.32664C12.5858 3.28274 12.5706 3.24071 12.5478 3.203C12.5251 3.16528 12.4953 3.13265 12.4602 3.10701C12.4043 3.05306 12.3318 3.02125 12.2555 3.01716Z" fill="#FF4949"/>
<path d="M10.3811 1.95315L11.7238 2.67668C11.7633 2.69851 11.8072 2.71302 11.8529 2.71937C11.8987 2.72572 11.9453 2.72379 11.9902 2.7137C12.0351 2.7036 12.0774 2.68553 12.1146 2.66054C12.1518 2.63554 12.1832 2.6041 12.207 2.56804C12.2524 2.49758 12.2664 2.41396 12.2461 2.33439C12.2257 2.25483 12.1726 2.18539 12.0976 2.14039L10.7447 1.4053C10.6918 1.37819 10.6325 1.36312 10.5718 1.36138C10.5092 1.36036 10.4473 1.37461 10.3928 1.40266C10.3382 1.43071 10.2929 1.47153 10.2616 1.52088C10.2146 1.59342 10.2007 1.67983 10.2231 1.76154C10.2454 1.84324 10.3022 1.9137 10.3811 1.95777L10.3811 1.95315Z" fill="#FF4949"/>
<path d="M13.6616 1.78897L13.9516 0.37552C13.9689 0.292116 13.9482 0.206105 13.894 0.135914C13.8398 0.0657231 13.7564 0.0169344 13.6616 2.16515e-07L13.5978 2.05351e-07C13.5114 -5.62957e-05 13.4278 0.0265699 13.3617 0.0751993C13.2955 0.123829 13.251 0.19135 13.236 0.265896L12.9407 1.67468C12.9261 1.75643 12.948 1.83996 13.0019 1.90792C13.0289 1.94309 13.0638 1.97303 13.1045 1.9959C13.1453 2.01877 13.1909 2.03407 13.2386 2.04087C13.2598 2.04311 13.2813 2.04311 13.3025 2.04087C13.3863 2.04146 13.4677 2.01674 13.5331 1.97086C13.5985 1.92498 13.6439 1.86074 13.6616 1.78897Z" fill="#FF4949"/>
<path d="M15.683 2.38281L15.6346 2.38281L14.2298 2.63952C14.1887 2.64689 14.1492 2.664 14.1135 2.68985C14.0779 2.71571 14.0469 2.7498 14.0221 2.79019C13.9862 2.84724 13.9643 2.91536 13.9589 2.98677C13.9534 3.05817 13.9647 3.12999 13.9914 3.19402C14.0181 3.25804 14.0592 3.31169 14.1099 3.34883C14.1606 3.38597 14.2189 3.4051 14.2782 3.40405L14.3243 3.40405L15.7291 3.14734C15.7706 3.14032 15.8106 3.12338 15.8466 3.09751C15.8826 3.07164 15.9141 3.03737 15.9391 2.99667C15.988 2.91655 16.0088 2.81622 15.9967 2.71764C15.9867 2.62541 15.9494 2.54068 15.8917 2.47913C15.8341 2.41758 15.7599 2.38337 15.683 2.38281Z" fill="#FF4949"/>
<path d="M13.9201 3.93208C13.892 3.8755 13.8488 3.82793 13.7952 3.79472C13.7416 3.76151 13.6798 3.74399 13.6168 3.74414C13.5637 3.74408 13.5113 3.7568 13.464 3.78123C13.424 3.80118 13.3883 3.82889 13.3591 3.86274C13.3298 3.8966 13.3076 3.93594 13.2936 3.97849C13.2796 4.02103 13.2742 4.06594 13.2776 4.11061C13.281 4.15527 13.2933 4.19881 13.3136 4.23871L13.9941 5.59876C14.0225 5.65552 14.0662 5.70319 14.1202 5.73639C14.1742 5.7696 14.2364 5.78702 14.2998 5.78669C14.3526 5.78616 14.4047 5.77436 14.4526 5.75207C14.5325 5.7108 14.593 5.63973 14.6211 5.55418C14.6492 5.46862 14.6427 5.37541 14.603 5.2946L13.9201 3.93208Z" fill="#FF4949"/>
<path d="M7.22643 6.36419L7.2141 6.36419L7.16972 6.33866C6.72662 6.1083 6.25293 5.94738 5.76415 5.86117C5.49192 5.81418 5.21653 5.78942 4.94054 5.78712C4.71368 5.78658 4.48706 5.80279 4.26242 5.83564C3.09268 6.00157 2.01924 6.59653 1.23716 7.51241C0.455082 8.42829 0.0162629 9.6043 0.000442272 10.8268C-0.0153783 12.0492 0.39285 13.237 1.15095 14.1742C1.90904 15.1115 2.9667 15.736 4.13173 15.9343C4.83867 16.0525 5.56195 16.0105 6.25168 15.8112C6.94142 15.6119 7.58121 15.2601 8.12692 14.7799C8.67263 14.2998 9.11128 13.7029 9.41261 13.0302C9.71394 12.3575 9.87079 11.6252 9.87234 10.8837C9.86794 9.95194 9.61865 9.03899 9.15122 8.24278C8.68379 7.44658 8.01584 6.79716 7.21903 6.36419L7.22643 6.36419Z" fill="#FF4949"/>
<path d="M4.93478 5.35815C5.24528 5.35835 5.55525 5.38036 5.86161 5.42395C6.30526 5.49016 6.73848 5.60058 7.15254 5.75297L7.24675 5.78807L7.481 4.64088C7.49215 4.6057 7.49215 4.56859 7.481 4.5334L7.46318 4.49392L4.71581 4.08594L4.68525 4.11884C4.6599 4.14757 4.64406 4.18168 4.63942 4.21755L4.42554 5.38008L4.52993 5.38008C4.6547 5.36253 4.79474 5.35815 4.93478 5.35815Z" fill="#FF4949"/>
</svg>
