<svg width="38" height="34" viewBox="0 0 38 34" fill="none" xmlns="http://www.w3.org/2000/svg">
<g clip-path="url(#clip0_100_1008)">
<path d="M37.9989 16.6707L37.9203 16.5276L33.7313 9.16214L28.5209 0H9.5542L4.341 9.16214L0.0734863 16.6707L0.154852 16.811L9.5542 33.3386H28.5209L37.9989 16.6707ZM9.88469 32.7718L0.729172 16.6707L4.99946 9.16214L9.87662 0.569523H28.1877L33.0648 9.16214L37.335 16.6707L28.1794 32.7718H9.88469Z" fill="#DB0000" fill-opacity="0.36"/>
<path d="M27.8149 26.1052L33.1798 16.6707L27.8149 7.2334L27.5386 7.39573L32.8113 16.6707L27.5386 25.9429L27.8149 26.1052Z" fill="#DB0000" fill-opacity="0.36"/>
<path d="M9.7992 26.1052L10.0756 25.9429L4.80282 16.6707L10.0756 7.39573L9.7992 7.2334L4.43433 16.6707L9.7992 26.1052Z" fill="#DB0000" fill-opacity="0.36"/>
<g clip-path="url(#clip1_100_1008)">
<path d="M12.3588 5.4874C12.4658 5.48714 12.5683 5.44441 12.6439 5.36862L14.4492 3.56326H15.5024C15.5708 3.68178 15.6687 3.78056 15.7867 3.84994C15.9046 3.91933 16.0386 3.95697 16.1754 3.95917H21.9557C22.0926 3.95697 22.2265 3.91933 22.3444 3.84994C22.4624 3.78056 22.5604 3.68178 22.6288 3.56326H23.6819L25.4873 5.36862C25.5628 5.44441 25.6653 5.48714 25.7723 5.4874C25.8768 5.48591 25.9764 5.44321 26.0495 5.36862C26.0866 5.33181 26.116 5.28803 26.1361 5.23978C26.1562 5.19154 26.1666 5.13979 26.1666 5.08752C26.1666 5.03526 26.1562 4.98351 26.1361 4.93526C26.116 4.88702 26.0866 4.84323 26.0495 4.80643L24.0065 2.78727H22.6288C22.5604 2.66874 22.4624 2.56997 22.3444 2.50058C22.2265 2.43119 22.0926 2.39356 21.9557 2.39136H16.1754C16.0386 2.39356 15.9046 2.43119 15.7867 2.50058C15.6687 2.56997 15.5708 2.66874 15.5024 2.78727H14.1246L12.0817 4.82227C12.0086 4.89761 11.9678 4.99842 11.9678 5.10336C11.9678 5.2083 12.0086 5.30911 12.0817 5.38446C12.1573 5.45327 12.2566 5.49016 12.3588 5.4874Z" fill="#DB0000"/>
<path d="M17.2445 6.69897C17.0345 6.69897 16.8331 6.7824 16.6846 6.93089C16.5361 7.07939 16.4526 7.28079 16.4526 7.4908C16.4526 7.70081 16.5361 7.90221 16.6846 8.05071C16.8331 8.1992 17.0345 8.28263 17.2445 8.28263H20.8869C21.0969 8.28263 21.2983 8.1992 21.4468 8.05071C21.5953 7.90221 21.6787 7.70081 21.6787 7.4908C21.6787 7.28079 21.5953 7.07939 21.4468 6.93089C21.2983 6.7824 21.0969 6.69897 20.8869 6.69897H17.2445Z" fill="#DB0000"/>
<path d="M25.4714 9.62078L23.6661 11.4261H22.6129C22.5445 11.3076 22.4465 11.2088 22.3286 11.1394C22.2106 11.0701 22.0767 11.0324 21.9399 11.0302H16.1595C16.0227 11.0324 15.8888 11.0701 15.7708 11.1394C15.6529 11.2088 15.5549 11.3076 15.4865 11.4261H14.4334L12.628 9.62078C12.5912 9.58367 12.5474 9.55421 12.4992 9.53411C12.4509 9.51401 12.3992 9.50366 12.3469 9.50366C12.2946 9.50366 12.2429 9.51401 12.1946 9.53411C12.1464 9.55421 12.1026 9.58367 12.0658 9.62078C11.9933 9.69478 11.9526 9.79428 11.9526 9.89791C11.9526 10.0015 11.9933 10.101 12.0658 10.1751L14.1087 12.218H15.4865C15.5549 12.3365 15.6529 12.4353 15.7708 12.5047C15.8888 12.574 16.0227 12.6117 16.1595 12.6139H21.9399C22.0767 12.6117 22.2106 12.574 22.3286 12.5047C22.4465 12.4353 22.5445 12.3365 22.6129 12.218H23.9907L26.0336 10.1751C26.0715 10.1395 26.1017 10.0966 26.1223 10.0489C26.1429 10.0012 26.1536 9.94985 26.1536 9.89791C26.1536 9.84597 26.1429 9.79458 26.1223 9.74692C26.1017 9.69925 26.0715 9.65632 26.0336 9.62078C25.9968 9.58367 25.953 9.55421 25.9048 9.53411C25.8565 9.51401 25.8048 9.50366 25.7525 9.50366C25.7002 9.50366 25.6485 9.51401 25.6002 9.53411C25.552 9.55421 25.5082 9.58367 25.4714 9.62078Z" fill="#DB0000"/>
</g>
</g>
<defs>
<clipPath id="clip0_100_1008">
<rect width="37.9145" height="33.3386" fill="white" transform="translate(0.0854492)"/>
</clipPath>
<clipPath id="clip1_100_1008">
<rect width="14.1974" height="10.2383" fill="white" transform="translate(11.9629 2.37549)"/>
</clipPath>
</defs>
</svg>
