<svg width="15" height="13" viewBox="0 0 15 13" fill="none" xmlns="http://www.w3.org/2000/svg">
<path d="M8.39491 0C5.9329 0 3.78453 1.37998 2.67114 3.4029C2.71819 3.4029 2.74955 3.4029 2.79659 3.4029C3.25136 3.4029 3.70612 3.55971 4.0668 3.85766C4.96065 2.39928 6.56017 1.42702 8.39491 1.42702C11.2019 1.42702 13.4757 3.70084 13.4757 6.50784C13.4757 9.31484 11.1862 11.5887 8.39491 11.5887C7.32856 11.5887 6.34062 11.2593 5.5095 10.6948L4.8352 11.9493C5.8545 12.608 7.07766 13 8.39491 13C11.986 13 14.9027 10.0832 14.9027 6.49216C14.9027 2.91677 11.986 0 8.39491 0Z" fill="#EFC97F"/>
<path d="M8.39488 2.86914C8.00284 2.86914 7.68921 3.18277 7.68921 3.57481L7.68921 6.50726C7.68921 6.8993 8.00284 7.21293 8.39488 7.21293H10.7314C11.1235 7.21293 11.4371 6.8993 11.4371 6.50726C11.4371 6.11522 11.1235 5.80159 10.7314 5.80159H9.10055V3.57481C9.10055 3.18277 8.78692 2.86914 8.39488 2.86914Z" fill="#EFC97F"/>
<path d="M4.5686 7.62082L3.56498 7.77764C3.45521 7.79332 3.34544 7.69923 3.34544 7.58946L3.34544 5.37836C3.34544 4.81383 2.57704 4.60997 2.31046 5.11178L0.0679963 9.33011C-0.151545 9.72215 0.193449 10.1926 0.632532 10.1299L1.63615 9.97305C1.74592 9.95737 1.85569 10.0515 1.85569 10.1612L1.85569 12.3723C1.85569 12.9369 2.62409 13.1407 2.89067 12.6389L5.14882 8.42058C5.35268 8.01286 5.02336 7.54242 4.5686 7.62082Z" fill="#EFC97F"/>
</svg>
