<svg width="48" height="43" viewBox="0 0 48 43" fill="none" xmlns="http://www.w3.org/2000/svg">
<g clip-path="url(#clip0_4_5045)">
<path d="M47.9987 21.0535L47.8994 20.8728L42.6092 11.5709L36.0289 0H12.0758L5.492 11.5709L0.102539 21.0535L0.205296 21.2307L12.0758 42.1035H36.0289L47.9987 21.0535ZM12.4932 41.3876L0.930607 21.0535L6.32358 11.5709L12.483 0.719253H35.6081L41.7674 11.5709L47.1602 21.0535L35.5977 41.3876H12.4932Z" fill="#5C3604"/>
<path d="M35.1371 32.9683L41.9124 21.0534L35.1371 9.13501L34.7881 9.34002L41.4471 21.0534L34.7881 32.7633L35.1371 32.9683Z" fill="#5C3604"/>
<path d="M12.3852 32.9683L12.7342 32.7633L6.07524 21.0534L12.7342 9.34002L12.3852 9.13501L5.60986 21.0534L12.3852 32.9683Z" fill="#5C3604"/>
<path d="M18.7905 17.9184C19.8674 16.0244 21.8784 14.8545 24.0571 14.8545C26.2359 14.8545 28.2468 16.0244 29.3237 17.9184L29.3644 17.9899C30.4444 19.8894 30.4441 22.2173 29.3637 24.1165L29.3245 24.1854C28.2471 26.0792 26.236 27.2489 24.0571 27.2489C21.8783 27.2489 19.8672 26.0792 18.7898 24.1854L18.7506 24.1165C17.6702 22.2173 17.6699 19.8894 18.7499 17.9899L18.7905 17.9184Z" fill="#5C3604"/>
</g>
<defs>
<clipPath id="clip0_4_5045">
<rect width="47.8824" height="42.1035" fill="white" transform="translate(0.117676)"/>
</clipPath>
</defs>
</svg>
