<svg width="180" height="252" viewBox="0 0 180 252" fill="none" xmlns="http://www.w3.org/2000/svg">
<path d="M180 38.4589H178.647V23.2732L176.376 21.0448H166.599L166.408 20.857L150.939 5.68375L155.138 1.56494H170.888L176.567 7.12345V10.0529H175.214V7.67429L170.339 2.89197H155.7L152.841 5.68375L167.161 19.7302H176.937L180 22.7223V38.4589Z" fill="#FBC115"/>
<path d="M179.388 48.9999H178.839V44.1425L176.516 41.864V25.1885L173.951 22.6596H170.696V22.1338H174.168L177.052 24.9756V41.6512L179.388 43.9296V48.9999Z" fill="#FBC115"/>
<path d="M175.89 9.0014H173.159L167.798 3.74335H162.374L160.689 2.09082L170.619 2.22853L175.89 7.39894V9.0014Z" fill="#FBC115"/>
<path d="M176.554 11.4175H175.214V15.8868H176.554V11.4175Z" fill="#FBC115"/>
<path d="M157.422 15.048L147.901 5.72126L148.093 5.53347L153.734 0H158.52V0.525805H153.951L148.667 5.72126L157.793 14.6725L157.422 15.048Z" fill="#FBC115"/>
<path d="M151.131 2.92969H148.718L146 5.59627L149.293 8.82621H151.45L148.285 5.72146L151.131 2.92969Z" fill="#FBC115"/>
<path d="M173.733 1.87775L176.618 4.70708H178.494L175.597 1.86523L173.733 1.87775Z" fill="#FBC115"/>
<path d="M163.957 20.3438L165.565 21.9212H168.284L167.097 23.098H165.182L163.957 21.8836V20.3438Z" fill="#FBC115"/>
<g clip-path="url(#clip0_317_28525)">
<path d="M-0.000259989 213.541L1.35259 213.541L1.35259 228.727L3.62436 230.955L13.4006 230.955L13.5921 231.143L29.0605 246.316L24.8616 250.435L9.11235 250.435L3.43292 244.877L3.43292 241.947L4.78577 241.947L4.78577 244.326L9.66115 249.108L24.3 249.108L27.1589 246.316L12.8391 232.27L3.0628 232.27L-0.000261364 229.278L-0.000259989 213.541Z" fill="#FBC115"/>
<path d="M0.612275 203L1.16107 203L1.16107 207.858L3.48389 210.136L3.48389 226.812L6.04921 229.34L9.30371 229.34L9.30371 229.866L5.83224 229.866L2.94786 227.024L2.94786 210.349L0.612274 208.07L0.612275 203Z" fill="#FBC115"/>
<path d="M4.11009 242.999L6.84133 242.999L12.2017 248.257L17.6259 248.257L19.3105 249.909L9.38111 249.771L4.11009 244.601L4.11009 242.999Z" fill="#FBC115"/>
<path d="M3.44604 240.583L4.78613 240.583L4.78613 236.113L3.44604 236.113L3.44604 240.583Z" fill="#FBC115"/>
<path d="M22.5776 236.952L32.0986 246.279L31.9072 246.467L26.2661 252L21.48 252L21.48 251.474L26.0491 251.474L31.3329 246.279L22.2075 237.328L22.5776 236.952Z" fill="#FBC115"/>
<path d="M28.8694 249.07L31.2815 249.07L34 246.404L30.7072 243.174L28.5503 243.174L31.7155 246.279L28.8694 249.07Z" fill="#FBC115"/>
<path d="M6.2666 250.122L3.38222 247.293L1.50609 247.293L4.40324 250.135L6.2666 250.122Z" fill="#FBC115"/>
<path d="M16.043 231.656L14.4349 230.079L11.7164 230.079L12.9033 228.902L14.8177 228.902L16.043 230.116L16.043 231.656Z" fill="#FBC115"/>
</g>
<defs>
<clipPath id="clip0_317_28525">
<rect width="34" height="49" fill="white" transform="translate(34 252) rotate(-180)"/>
</clipPath>
</defs>
</svg>
