<svg width="48" height="43" viewBox="0 0 48 43" fill="none" xmlns="http://www.w3.org/2000/svg">
<g clip-path="url(#clip0_137_706)">
<path d="M47.881 21.0535L47.7817 20.8728L42.4915 11.5709L35.9113 0H11.9581L5.37432 11.5709L-0.0151367 21.0535L0.0876199 21.2307L11.9581 42.1035H35.9113L47.881 21.0535ZM12.3755 41.3876L0.812931 21.0535L6.2059 11.5709L12.3653 0.719253H35.4904L41.6498 11.5709L47.0426 21.0535L35.48 41.3876H12.3755Z" fill="#29D403" fill-opacity="0.36"/>
<path d="M35.0194 32.968L41.7948 21.0531L35.0194 9.13477L34.6704 9.33977L41.3294 21.0531L34.6704 32.763L35.0194 32.968Z" fill="#29D403" fill-opacity="0.36"/>
<path d="M12.2675 32.968L12.6165 32.763L5.95756 21.0531L12.6165 9.33977L12.2675 9.13477L5.49219 21.0531L12.2675 32.968Z" fill="#29D403" fill-opacity="0.36"/>
<path d="M30.8224 9.01201C31.1427 8.81201 31.5112 8.69799 31.8907 8.6816C32.2702 8.6652 32.6474 8.74699 32.9845 8.91857L35.622 10.2616C35.8458 10.3754 36.0262 10.267 35.9969 10.0219H35.997C35.8551 8.81857 35.2195 7.7235 34.2364 6.98851C33.2531 6.25333 32.007 5.94152 30.7841 6.1244C29.5612 6.30746 28.4671 6.96958 27.753 7.95847H20.8167C20.3699 6.7326 19.3981 5.75919 18.1567 5.29415C16.9152 4.82912 15.5281 4.91873 14.3599 5.53987C14.138 5.65735 14.151 5.86409 14.3748 5.97812L17.0124 7.32112V7.32094C17.5555 7.59744 17.9536 8.08633 18.1082 8.66646C18.1742 8.95754 18.1876 9.25755 18.1482 9.55318C18.0332 10.2215 17.5987 10.7958 16.9791 11.098C16.3594 11.4002 15.6297 11.394 15.0157 11.0814L12.378 9.73843C12.1542 9.62458 11.9738 9.73296 12.0031 9.97813C12.1451 11.1814 12.7807 12.2765 13.7638 13.0115C14.7471 13.7467 15.9932 14.0585 17.2161 13.8756C18.4389 13.6925 19.5331 13.0304 20.2472 12.0415H27.1835C27.6303 13.2674 28.602 14.2408 29.8435 14.7059C31.085 15.1709 32.4721 15.0813 33.6402 14.4601C33.8622 14.3426 33.8491 14.1359 33.6254 14.0219L30.9878 12.6789V12.6791C30.4447 12.4026 30.0466 11.9137 29.892 11.3335C29.826 11.0425 29.8126 10.7425 29.852 10.4468C29.9538 9.85573 30.3064 9.33445 30.8225 9.012L30.8224 9.01201Z" fill="#29D403"/>
</g>
<defs>
<clipPath id="clip0_137_706">
<rect width="47.8824" height="42.1035" fill="white"/>
</clipPath>
</defs>
</svg>
