<svg width="16" height="14" viewBox="0 0 16 14" fill="none" xmlns="http://www.w3.org/2000/svg">
<path d="M15.4448 5.98105L14.2166 5.98105C14.0652 5.48263 13.8633 5.01637 13.6109 4.58226L14.4858 3.7462C14.7045 3.53718 14.7045 3.21562 14.4858 3.00661L12.8202 1.41487C12.6015 1.20586 12.265 1.20586 12.0463 1.41487L11.1714 2.25094C10.7171 2.00976 10.2292 1.81683 9.70768 1.67212L9.70768 0.514501C9.70768 0.225095 9.47213 1.65616e-06 9.1693 1.60321e-06L6.81388 1.19138e-06C6.51104 1.13843e-06 6.2755 0.225094 6.2755 0.5145L6.2755 1.6882C5.75394 1.8329 5.26604 2.02584 4.81178 2.26701L3.93691 1.43095C3.71819 1.22194 3.3817 1.22194 3.16299 1.43095L1.49737 3.02268C1.27865 3.2317 1.27865 3.55326 1.49737 3.76227L2.37224 4.59833C2.11987 5.03244 1.91798 5.49871 1.76656 5.99713L0.53838 5.99713C0.23554 5.99713 -1.08793e-06 6.22222 -1.13853e-06 6.51163L-1.53209e-06 8.76256C-1.5827e-06 9.05197 0.23554 9.27706 0.538379 9.27706L1.76656 9.27706C1.91798 9.77548 2.11987 10.2417 2.37224 10.6759L1.49737 11.5119C1.27865 11.7209 1.27865 12.0425 1.49737 12.2515L3.16298 13.8432C3.3817 14.0523 3.71819 14.0523 3.93691 13.8432L4.81177 13.0072C5.26603 13.2484 5.75394 13.4413 6.2755 13.586C6.39327 13.6181 6.52786 13.6181 6.64563 13.6503L6.64563 10.5633C5.43428 10.0488 4.57623 8.89119 4.57623 7.52455C4.57623 6.39908 5.16509 5.40224 6.07361 4.79127C6.30915 4.63049 6.62881 4.80735 6.62881 5.08068L6.62881 6.70457C6.62881 7.412 7.23449 8.00689 7.99159 8.00689C8.74868 8.00689 9.35436 7.42808 9.35436 6.70457L9.35436 5.08068C9.35436 4.80735 9.67403 4.63049 9.90957 4.79127C10.8013 5.38616 11.4069 6.38301 11.4069 7.52455C11.4069 8.89119 10.5489 10.0649 9.33754 10.5633L9.33754 13.6342C9.45531 13.6181 9.5899 13.6021 9.70767 13.5699L9.7245 13.5699C10.2461 13.4413 10.734 13.2323 11.1882 12.9911L12.0631 13.8272C12.2818 14.0362 12.6183 14.0362 12.837 13.8272L14.5026 12.2354C14.7213 12.0264 14.7213 11.7049 14.5026 11.4958L13.6278 10.6598C13.8801 10.2257 14.082 9.7594 14.2334 9.26098L15.4616 9.26098C15.7645 9.26098 16 9.03589 16 8.74649L16 6.49555C15.9832 6.20615 15.7476 5.98105 15.4448 5.98105Z" fill="#348227"/>
</svg>
