<svg width="160" height="111" viewBox="0 0 160 111" fill="none" xmlns="http://www.w3.org/2000/svg">
<path d="M153.145 0.000259399H9.17891L0 9.17917V101.65L6.15605 107.808H30.3389L33.3618 110.831H66.7644L69.7872 107.808H153.145L153.2 107.752L156.275 104.678V36.5406L159.298 33.5178V15.2295L159.242 15.1735L156.275 12.202V3.13345L156.219 3.07751L153.145 0.000259399ZM9.33005 0.378113H152.993L155.906 3.28917V12.3577L155.96 12.4136L158.929 15.3806V33.3666L155.906 36.3895V104.527L152.993 107.439H69.6361L66.6132 110.462H33.5129L30.4901 107.439H6.30719L0.373319 101.504V9.33488L9.33005 0.378113Z" fill="#515151"/>
<path d="M147.099 3.02318H113.696L113.64 3.07758L110.673 6.04604H86.6414L83.6186 3.02318H15.2245L3.02271 15.225V98.6276L9.17876 104.785H147.099L147.155 104.729L153.252 98.6321V9.18381L153.196 9.12787L147.099 3.02318ZM113.847 3.40104H146.947L152.883 9.33495V98.481L146.947 104.416H9.3299L3.39602 98.481V15.3807L15.3756 3.40104H83.4674L86.4903 6.4239H110.824L110.88 6.36796L113.847 3.40104Z" fill="#515151"/>
<path d="M1.69434 12.2805V10.7691L10.7629 1.70051V3.21194L1.69434 12.2805Z" fill="#515151"/>
<path d="M153.023 6.23491L150 3.21205V1.70062L154.534 6.23491V7.74634L153.023 6.23491Z" fill="#515151"/>
<path d="M149 104.601L153.534 100.066V101.578L150.511 104.601H149Z" fill="#515151"/>
<path d="M34.9458 109.135L33.4343 107.624H34.9458L36.4572 109.135H34.9458Z" fill="#515151"/>
<path d="M37.9685 109.135L36.457 107.624H37.9685L39.4799 109.135H37.9685Z" fill="#515151"/>
<path d="M40.9914 109.135L39.48 107.624H40.9914L42.5028 109.135H40.9914Z" fill="#515151"/>
<path d="M44.0144 109.135L42.5029 107.624H44.0144L45.5258 109.135H44.0144Z" fill="#515151"/>
<path d="M47.0371 109.135L45.5256 107.624H47.0371L48.5485 109.135H47.0371Z" fill="#515151"/>
<path d="M50.06 109.135L48.5486 107.624H50.06L51.5714 109.135H50.06Z" fill="#515151"/>
<path d="M53.083 109.135L51.5715 107.624H53.083L54.5944 109.135H53.083Z" fill="#515151"/>
<path d="M54.729 107.491L54.4614 107.757L56.0288 109.324H65.1744V108.946H56.1845L54.729 107.491Z" fill="#515151"/>
<path d="M86.563 3.21196L88.0744 4.72339H89.5858L88.0744 3.21196H86.563Z" fill="#515151"/>
<path d="M89.5859 3.21196L91.0974 4.72339H92.6088L91.0974 3.21196H89.5859Z" fill="#515151"/>
<path d="M92.6086 3.21196L94.1201 4.72339H95.6315L94.1201 3.21196H92.6086Z" fill="#515151"/>
<path d="M95.6316 3.21196L97.143 4.72339H98.6545L97.143 3.21196H95.6316Z" fill="#515151"/>
<path d="M98.6543 3.21196L100.166 4.72339H101.677L100.166 3.21196H98.6543Z" fill="#515151"/>
<path d="M103.323 3.07899L103.054 3.345L104.623 4.91235H109.234V4.5345H104.779L103.323 3.07899Z" fill="#515151"/>
<path d="M16.4785 48H12.0312V40.1475H16.4785V41.2324H13.3203V43.3647H16.2798V44.4443H13.3203V46.9097H16.4785V48ZM19.4058 48L17.1445 42.0542H18.4819L19.7065 45.5454C19.7853 45.7674 19.8569 46.0073 19.9214 46.2651C19.9858 46.5229 20.0306 46.7396 20.0557 46.915H20.0986C20.1237 46.7324 20.172 46.514 20.2437 46.2598C20.3153 46.002 20.3887 45.7638 20.4639 45.5454L21.6885 42.0542H23.0205L20.7593 48H19.4058ZM26.2915 41.9414C26.8215 41.9414 27.2762 42.0506 27.6558 42.269C28.0353 42.4875 28.3271 42.7972 28.5312 43.1982C28.7354 43.5993 28.8374 44.0791 28.8374 44.6377V45.3145H24.8682C24.8825 45.891 25.0365 46.335 25.3301 46.6465C25.6273 46.958 26.0426 47.1138 26.5762 47.1138C26.9557 47.1138 27.2959 47.078 27.5967 47.0063C27.901 46.9312 28.2144 46.8219 28.5366 46.6787V47.7046C28.2394 47.8442 27.9368 47.9463 27.6289 48.0107C27.321 48.0752 26.9521 48.1074 26.5225 48.1074C25.9388 48.1074 25.425 47.9946 24.981 47.769C24.5405 47.5399 24.195 47.1997 23.9443 46.7485C23.6973 46.2974 23.5737 45.737 23.5737 45.0674C23.5737 44.4014 23.6865 43.8356 23.9121 43.3701C24.1377 42.9046 24.4546 42.5501 24.8628 42.3066C25.271 42.0632 25.7472 41.9414 26.2915 41.9414ZM26.2915 42.8921C25.894 42.8921 25.5718 43.021 25.3247 43.2788C25.0812 43.5366 24.938 43.9144 24.895 44.4121H27.6021C27.5985 44.1149 27.5483 43.8517 27.4517 43.6226C27.3586 43.3934 27.2153 43.2144 27.022 43.0854C26.8322 42.9565 26.5887 42.8921 26.2915 42.8921ZM33.2739 41.9414C33.3742 41.9414 33.4834 41.9468 33.6016 41.9575C33.7197 41.9683 33.8218 41.9826 33.9077 42.0005L33.7896 43.1821C33.7144 43.1606 33.6213 43.1445 33.5103 43.1338C33.4028 43.123 33.3062 43.1177 33.2202 43.1177C32.9946 43.1177 32.7798 43.1553 32.5757 43.2305C32.3716 43.3021 32.1908 43.4131 32.0332 43.5635C31.8757 43.7103 31.7521 43.8947 31.6626 44.1167C31.5731 44.3387 31.5283 44.5965 31.5283 44.8901V48H30.2607V42.0542H31.249L31.4209 43.1016H31.48C31.5981 42.8903 31.745 42.6969 31.9204 42.5215C32.0959 42.346 32.2964 42.2064 32.522 42.1025C32.7511 41.9951 33.0018 41.9414 33.2739 41.9414ZM34.1118 42.0542H35.4868L36.7061 45.4487C36.7598 45.6027 36.8081 45.7549 36.8511 45.9053C36.8976 46.0521 36.937 46.1971 36.9692 46.3403C37.005 46.4836 37.0337 46.6268 37.0552 46.77H37.0874C37.1232 46.5838 37.1733 46.3761 37.2378 46.147C37.3058 45.9142 37.381 45.6815 37.4634 45.4487L38.6343 42.0542H39.9932L37.4419 48.8164C37.2951 49.2031 37.1143 49.5326 36.8994 49.8047C36.6882 50.0804 36.4375 50.2881 36.1475 50.4277C35.8574 50.571 35.5262 50.6426 35.1538 50.6426C34.9748 50.6426 34.819 50.6318 34.6865 50.6104C34.554 50.5924 34.4412 50.5728 34.3481 50.5513V49.5415C34.4233 49.5594 34.5182 49.5755 34.6328 49.5898C34.7474 49.6042 34.8656 49.6113 34.9873 49.6113C35.2129 49.6113 35.408 49.5666 35.5728 49.4771C35.7375 49.3875 35.8771 49.2604 35.9917 49.0957C36.1063 48.9346 36.2012 48.7502 36.2764 48.5425L36.4858 47.9839L34.1118 42.0542ZM46.8037 41.9414C47.5091 41.9414 48.0749 42.1992 48.501 42.7148C48.9307 43.2305 49.1455 43.9967 49.1455 45.0137C49.1455 45.6868 49.0452 46.2544 48.8447 46.7163C48.6478 47.1746 48.3703 47.522 48.0122 47.7583C47.6577 47.991 47.2441 48.1074 46.7715 48.1074C46.4707 48.1074 46.2093 48.068 45.9873 47.9893C45.7653 47.9105 45.5755 47.8084 45.418 47.6831C45.2604 47.5542 45.1279 47.4146 45.0205 47.2642H44.9453C44.9632 47.4074 44.9793 47.5667 44.9937 47.7422C45.0116 47.9141 45.0205 48.0716 45.0205 48.2148V50.6372H43.7529V42.0542H44.7842L44.9614 42.876H45.0205C45.1315 42.7077 45.2658 42.5519 45.4233 42.4087C45.5845 42.2655 45.7778 42.1527 46.0034 42.0703C46.2326 41.9844 46.4993 41.9414 46.8037 41.9414ZM46.4653 42.9727C46.118 42.9727 45.8387 43.0425 45.6274 43.1821C45.4198 43.3182 45.2676 43.5241 45.1709 43.7998C45.0778 44.0755 45.0277 44.4211 45.0205 44.8364V45.0137C45.0205 45.4541 45.0653 45.8283 45.1548 46.1362C45.2479 46.4406 45.4001 46.6733 45.6113 46.8345C45.8262 46.992 46.1162 47.0708 46.4814 47.0708C46.7894 47.0708 47.0436 46.9867 47.2441 46.8184C47.4482 46.6501 47.6004 46.4102 47.7007 46.0986C47.8009 45.7871 47.8511 45.4201 47.8511 44.9976C47.8511 44.3566 47.7365 43.8589 47.5073 43.5044C47.2817 43.1499 46.9344 42.9727 46.4653 42.9727ZM51.874 48H50.6064V39.6426H51.874V48ZM56.0098 41.9414C56.7617 41.9414 57.3293 42.1079 57.7124 42.4409C58.0991 42.7739 58.2925 43.2931 58.2925 43.9985V48H57.3955L57.1538 47.1567H57.1108C56.9425 47.3716 56.7689 47.5488 56.5898 47.6885C56.4108 47.8281 56.2031 47.932 55.9668 48C55.734 48.0716 55.4494 48.1074 55.1128 48.1074C54.7583 48.1074 54.4414 48.043 54.1621 47.9141C53.8828 47.7816 53.6626 47.5811 53.5015 47.3125C53.3403 47.0439 53.2598 46.7038 53.2598 46.292C53.2598 45.6797 53.4871 45.2196 53.9419 44.9116C54.4002 44.6037 55.0913 44.4336 56.0151 44.4014L57.0464 44.3638V44.0522C57.0464 43.6405 56.9497 43.3468 56.7563 43.1714C56.5666 42.9959 56.298 42.9082 55.9507 42.9082C55.6535 42.9082 55.3652 42.9512 55.0859 43.0371C54.8066 43.123 54.5345 43.2287 54.2695 43.354L53.8613 42.4624C54.1514 42.3084 54.4808 42.1831 54.8496 42.0864C55.222 41.9897 55.6087 41.9414 56.0098 41.9414ZM57.041 45.1587L56.2729 45.1855C55.6427 45.207 55.2005 45.3145 54.9463 45.5078C54.6921 45.7012 54.5649 45.9661 54.5649 46.3027C54.5649 46.5964 54.6527 46.8112 54.8281 46.9473C55.0036 47.0798 55.2345 47.146 55.521 47.146C55.9578 47.146 56.3195 47.0225 56.606 46.7754C56.896 46.5247 57.041 46.1577 57.041 45.6743V45.1587ZM59.1626 42.0542H60.5376L61.7568 45.4487C61.8105 45.6027 61.8589 45.7549 61.9019 45.9053C61.9484 46.0521 61.9878 46.1971 62.02 46.3403C62.0558 46.4836 62.0845 46.6268 62.106 46.77H62.1382C62.174 46.5838 62.2241 46.3761 62.2886 46.147C62.3566 45.9142 62.4318 45.6815 62.5142 45.4487L63.6851 42.0542H65.0439L62.4927 48.8164C62.3459 49.2031 62.165 49.5326 61.9502 49.8047C61.7389 50.0804 61.4883 50.2881 61.1982 50.4277C60.9082 50.571 60.577 50.6426 60.2046 50.6426C60.0256 50.6426 59.8698 50.6318 59.7373 50.6104C59.6048 50.5924 59.492 50.5728 59.3989 50.5513V49.5415C59.4741 49.5594 59.569 49.5755 59.6836 49.5898C59.7982 49.6042 59.9163 49.6113 60.0381 49.6113C60.2637 49.6113 60.4588 49.5666 60.6235 49.4771C60.7882 49.3875 60.9279 49.2604 61.0425 49.0957C61.1571 48.9346 61.252 48.7502 61.3271 48.5425L61.5366 47.9839L59.1626 42.0542ZM68.3149 41.9414C68.8449 41.9414 69.2996 42.0506 69.6792 42.269C70.0588 42.4875 70.3506 42.7972 70.5547 43.1982C70.7588 43.5993 70.8608 44.0791 70.8608 44.6377V45.3145H66.8916C66.9059 45.891 67.0599 46.335 67.3535 46.6465C67.6507 46.958 68.0661 47.1138 68.5996 47.1138C68.9792 47.1138 69.3193 47.078 69.6201 47.0063C69.9245 46.9312 70.2378 46.8219 70.5601 46.6787V47.7046C70.2629 47.8442 69.9603 47.9463 69.6523 48.0107C69.3444 48.0752 68.9756 48.1074 68.5459 48.1074C67.9622 48.1074 67.4484 47.9946 67.0044 47.769C66.564 47.5399 66.2184 47.1997 65.9678 46.7485C65.7207 46.2974 65.5972 45.737 65.5972 45.0674C65.5972 44.4014 65.71 43.8356 65.9355 43.3701C66.1611 42.9046 66.478 42.5501 66.8862 42.3066C67.2944 42.0632 67.7707 41.9414 68.3149 41.9414ZM68.3149 42.8921C67.9175 42.8921 67.5952 43.021 67.3481 43.2788C67.1047 43.5366 66.9614 43.9144 66.9185 44.4121H69.6255C69.6219 44.1149 69.5718 43.8517 69.4751 43.6226C69.382 43.3934 69.2388 43.2144 69.0454 43.0854C68.8556 42.9565 68.6121 42.8921 68.3149 42.8921ZM75.2974 41.9414C75.3976 41.9414 75.5068 41.9468 75.625 41.9575C75.7432 41.9683 75.8452 41.9826 75.9312 42.0005L75.813 43.1821C75.7378 43.1606 75.6447 43.1445 75.5337 43.1338C75.4263 43.123 75.3296 43.1177 75.2437 43.1177C75.0181 43.1177 74.8032 43.1553 74.5991 43.2305C74.395 43.3021 74.2142 43.4131 74.0566 43.5635C73.8991 43.7103 73.7756 43.8947 73.686 44.1167C73.5965 44.3387 73.5518 44.5965 73.5518 44.8901V48H72.2842V42.0542H73.2725L73.4443 43.1016H73.5034C73.6216 42.8903 73.7684 42.6969 73.9438 42.5215C74.1193 42.346 74.3198 42.2064 74.5454 42.1025C74.7746 41.9951 75.0252 41.9414 75.2974 41.9414ZM81.1519 39.6426V41.7427C81.1519 41.9611 81.1447 42.1742 81.1304 42.3818C81.1196 42.5895 81.1071 42.7507 81.0928 42.8652H81.1626C81.2879 42.6576 81.4419 42.4875 81.6245 42.355C81.8071 42.2189 82.0112 42.1169 82.2368 42.0488C82.466 41.9808 82.7095 41.9468 82.9673 41.9468C83.422 41.9468 83.8088 42.0238 84.1274 42.1777C84.4461 42.3281 84.6896 42.5627 84.8579 42.8813C85.0298 43.2 85.1157 43.6136 85.1157 44.1221V48H83.8535V44.3584C83.8535 43.8965 83.7586 43.5509 83.5688 43.3218C83.3791 43.089 83.0854 42.9727 82.688 42.9727C82.3049 42.9727 82.0005 43.0532 81.7749 43.2144C81.5529 43.3719 81.3936 43.6064 81.2969 43.918C81.2002 44.2259 81.1519 44.6019 81.1519 45.0459V48H79.8896V39.6426H81.1519ZM89.2139 41.9414C89.9658 41.9414 90.5334 42.1079 90.9165 42.4409C91.3032 42.7739 91.4966 43.2931 91.4966 43.9985V48H90.5996L90.3579 47.1567H90.3149C90.1466 47.3716 89.973 47.5488 89.7939 47.6885C89.6149 47.8281 89.4072 47.932 89.1709 48C88.9382 48.0716 88.6535 48.1074 88.3169 48.1074C87.9624 48.1074 87.6455 48.043 87.3662 47.9141C87.0869 47.7816 86.8667 47.5811 86.7056 47.3125C86.5444 47.0439 86.4639 46.7038 86.4639 46.292C86.4639 45.6797 86.6912 45.2196 87.146 44.9116C87.6043 44.6037 88.2954 44.4336 89.2192 44.4014L90.2505 44.3638V44.0522C90.2505 43.6405 90.1538 43.3468 89.9604 43.1714C89.7707 42.9959 89.5021 42.9082 89.1548 42.9082C88.8576 42.9082 88.5693 42.9512 88.29 43.0371C88.0107 43.123 87.7386 43.2287 87.4736 43.354L87.0654 42.4624C87.3555 42.3084 87.6849 42.1831 88.0537 42.0864C88.4261 41.9897 88.8128 41.9414 89.2139 41.9414ZM90.2451 45.1587L89.4771 45.1855C88.8468 45.207 88.4046 45.3145 88.1504 45.5078C87.8962 45.7012 87.769 45.9661 87.769 46.3027C87.769 46.5964 87.8568 46.8112 88.0322 46.9473C88.2077 47.0798 88.4386 47.146 88.7251 47.146C89.1619 47.146 89.5236 47.0225 89.8101 46.7754C90.1001 46.5247 90.2451 46.1577 90.2451 45.6743V45.1587ZM97.2598 46.3027C97.2598 46.693 97.1649 47.0225 96.9751 47.291C96.7853 47.5596 96.5078 47.7637 96.1426 47.9033C95.7809 48.0394 95.3369 48.1074 94.8105 48.1074C94.3952 48.1074 94.0371 48.077 93.7363 48.0161C93.4391 47.9588 93.158 47.8693 92.8931 47.7476V46.6572C93.1759 46.7897 93.4928 46.9043 93.8438 47.001C94.1982 47.0977 94.533 47.146 94.8481 47.146C95.2635 47.146 95.5625 47.0815 95.7451 46.9526C95.9277 46.8201 96.019 46.6447 96.019 46.4263C96.019 46.2974 95.9814 46.1828 95.9062 46.0825C95.8346 45.9787 95.6986 45.873 95.498 45.7656C95.3011 45.6546 95.0111 45.5221 94.6279 45.3682C94.252 45.2178 93.9351 45.0674 93.6772 44.917C93.4194 44.7666 93.2243 44.5858 93.0918 44.3745C92.9593 44.1597 92.8931 43.8857 92.8931 43.5527C92.8931 43.0264 93.1007 42.6271 93.5161 42.355C93.9351 42.0793 94.4883 41.9414 95.1758 41.9414C95.541 41.9414 95.8848 41.979 96.207 42.0542C96.5329 42.1258 96.8516 42.2314 97.1631 42.3711L96.7656 43.3218C96.4971 43.2036 96.2267 43.1069 95.9546 43.0317C95.686 42.953 95.4121 42.9136 95.1328 42.9136C94.807 42.9136 94.5581 42.9637 94.3862 43.064C94.2179 43.1642 94.1338 43.3075 94.1338 43.4937C94.1338 43.6333 94.175 43.7515 94.2573 43.8481C94.3397 43.9448 94.4811 44.0415 94.6816 44.1382C94.8857 44.2349 95.1686 44.3548 95.5303 44.498C95.8848 44.6341 96.1909 44.7773 96.4487 44.9277C96.7101 45.0745 96.9106 45.2554 97.0503 45.4702C97.1899 45.6851 97.2598 45.9626 97.2598 46.3027ZM103.694 47.0869C103.859 47.0869 104.022 47.0726 104.183 47.0439C104.344 47.0117 104.491 46.9741 104.624 46.9312V47.8872C104.484 47.9481 104.303 48 104.081 48.043C103.859 48.0859 103.628 48.1074 103.388 48.1074C103.052 48.1074 102.749 48.0519 102.48 47.9409C102.212 47.8263 101.999 47.6312 101.841 47.3555C101.684 47.0798 101.605 46.6984 101.605 46.2114V43.0156H100.794V42.4517L101.664 42.0059L102.078 40.7329H102.873V42.0542H104.575V43.0156H102.873V46.1953C102.873 46.4961 102.948 46.7199 103.098 46.8667C103.249 47.0135 103.447 47.0869 103.694 47.0869ZM111.096 45.0137C111.096 45.5078 111.031 45.9465 110.902 46.3296C110.773 46.7127 110.585 47.0368 110.338 47.3018C110.091 47.5632 109.794 47.7637 109.447 47.9033C109.099 48.0394 108.707 48.1074 108.271 48.1074C107.862 48.1074 107.488 48.0394 107.148 47.9033C106.808 47.7637 106.512 47.5632 106.262 47.3018C106.015 47.0368 105.823 46.7127 105.687 46.3296C105.551 45.9465 105.483 45.5078 105.483 45.0137C105.483 44.3584 105.596 43.8034 105.821 43.3486C106.05 42.8903 106.376 42.5412 106.799 42.3013C107.221 42.0614 107.724 41.9414 108.308 41.9414C108.856 41.9414 109.339 42.0614 109.758 42.3013C110.177 42.5412 110.505 42.8903 110.741 43.3486C110.978 43.807 111.096 44.362 111.096 45.0137ZM106.783 45.0137C106.783 45.4469 106.835 45.8175 106.938 46.1255C107.046 46.4334 107.211 46.6698 107.433 46.8345C107.655 46.9956 107.941 47.0762 108.292 47.0762C108.643 47.0762 108.929 46.9956 109.151 46.8345C109.373 46.6698 109.536 46.4334 109.64 46.1255C109.744 45.8175 109.796 45.4469 109.796 45.0137C109.796 44.5804 109.744 44.2134 109.64 43.9126C109.536 43.6082 109.373 43.3773 109.151 43.2197C108.929 43.0586 108.641 42.978 108.287 42.978C107.764 42.978 107.382 43.1535 107.143 43.5044C106.903 43.8553 106.783 44.3584 106.783 45.0137ZM118.454 41.9414C119.16 41.9414 119.725 42.1992 120.151 42.7148C120.581 43.2305 120.796 43.9967 120.796 45.0137C120.796 45.6868 120.696 46.2544 120.495 46.7163C120.298 47.1746 120.021 47.522 119.663 47.7583C119.308 47.991 118.895 48.1074 118.422 48.1074C118.121 48.1074 117.86 48.068 117.638 47.9893C117.416 47.9105 117.226 47.8084 117.068 47.6831C116.911 47.5542 116.778 47.4146 116.671 47.2642H116.596C116.614 47.4074 116.63 47.5667 116.644 47.7422C116.662 47.9141 116.671 48.0716 116.671 48.2148V50.6372H115.403V42.0542H116.435L116.612 42.876H116.671C116.782 42.7077 116.916 42.5519 117.074 42.4087C117.235 42.2655 117.428 42.1527 117.654 42.0703C117.883 41.9844 118.15 41.9414 118.454 41.9414ZM118.116 42.9727C117.768 42.9727 117.489 43.0425 117.278 43.1821C117.07 43.3182 116.918 43.5241 116.821 43.7998C116.728 44.0755 116.678 44.4211 116.671 44.8364V45.0137C116.671 45.4541 116.716 45.8283 116.805 46.1362C116.898 46.4406 117.05 46.6733 117.262 46.8345C117.477 46.992 117.767 47.0708 118.132 47.0708C118.44 47.0708 118.694 46.9867 118.895 46.8184C119.099 46.6501 119.251 46.4102 119.351 46.0986C119.451 45.7871 119.501 45.4201 119.501 44.9976C119.501 44.3566 119.387 43.8589 119.158 43.5044C118.932 43.1499 118.585 42.9727 118.116 42.9727ZM123.519 42.0542V48H122.257V42.0542H123.519ZM122.896 39.7769C123.089 39.7769 123.256 39.8288 123.396 39.9326C123.539 40.0365 123.61 40.2155 123.61 40.4697C123.61 40.7204 123.539 40.8994 123.396 41.0068C123.256 41.1107 123.089 41.1626 122.896 41.1626C122.695 41.1626 122.525 41.1107 122.386 41.0068C122.25 40.8994 122.182 40.7204 122.182 40.4697C122.182 40.2155 122.25 40.0365 122.386 39.9326C122.525 39.8288 122.695 39.7769 122.896 39.7769ZM127.725 48.1074C127.162 48.1074 126.675 47.9982 126.264 47.7798C125.852 47.5614 125.535 47.2266 125.313 46.7754C125.091 46.3242 124.98 45.7513 124.98 45.0566C124.98 44.3333 125.102 43.7425 125.345 43.2842C125.589 42.8258 125.925 42.4875 126.355 42.269C126.788 42.0506 127.284 41.9414 127.843 41.9414C128.197 41.9414 128.518 41.9772 128.804 42.0488C129.094 42.1169 129.34 42.201 129.54 42.3013L129.164 43.311C128.946 43.2215 128.722 43.1463 128.493 43.0854C128.264 43.0246 128.043 42.9941 127.832 42.9941C127.485 42.9941 127.195 43.0711 126.962 43.2251C126.733 43.3791 126.561 43.6082 126.446 43.9126C126.335 44.217 126.28 44.5947 126.28 45.0459C126.28 45.4827 126.337 45.8516 126.452 46.1523C126.566 46.4495 126.736 46.6751 126.962 46.8291C127.188 46.9795 127.465 47.0547 127.794 47.0547C128.12 47.0547 128.412 47.0153 128.67 46.9365C128.928 46.8577 129.171 46.7557 129.4 46.6304V47.7261C129.175 47.855 128.933 47.9499 128.675 48.0107C128.417 48.0752 128.101 48.1074 127.725 48.1074ZM132.059 39.6426V43.6816C132.059 43.8643 132.052 44.0648 132.038 44.2832C132.023 44.498 132.009 44.7004 131.995 44.8901H132.021C132.115 44.7648 132.226 44.618 132.354 44.4497C132.487 44.2814 132.612 44.1346 132.73 44.0093L134.546 42.0542H135.996L133.617 44.6108L136.152 48H134.669L132.768 45.3896L132.059 45.9966V48H130.797V39.6426H132.059ZM84.3208 56.9414C84.8507 56.9414 85.3055 57.0506 85.6851 57.269C86.0646 57.4875 86.3564 57.7972 86.5605 58.1982C86.7646 58.5993 86.8667 59.0791 86.8667 59.6377V60.3145H82.8975C82.9118 60.891 83.0658 61.335 83.3594 61.6465C83.6566 61.958 84.0719 62.1138 84.6055 62.1138C84.985 62.1138 85.3252 62.078 85.626 62.0063C85.9303 61.9312 86.2437 61.8219 86.5659 61.6787V62.7046C86.2687 62.8442 85.9661 62.9463 85.6582 63.0107C85.3503 63.0752 84.9814 63.1074 84.5518 63.1074C83.9681 63.1074 83.4543 62.9946 83.0103 62.769C82.5698 62.5399 82.2243 62.1997 81.9736 61.7485C81.7266 61.2974 81.603 60.737 81.603 60.0674C81.603 59.4014 81.7158 58.8356 81.9414 58.3701C82.167 57.9046 82.4839 57.5501 82.8921 57.3066C83.3003 57.0632 83.7765 56.9414 84.3208 56.9414ZM84.3208 57.8921C83.9233 57.8921 83.6011 58.021 83.354 58.2788C83.1105 58.5366 82.9673 58.9144 82.9243 59.4121H85.6313C85.6278 59.1149 85.5776 58.8517 85.481 58.6226C85.3879 58.3934 85.2446 58.2144 85.0513 58.0854C84.8615 57.9565 84.618 57.8921 84.3208 57.8921ZM90.6211 56.9414C91.373 56.9414 91.9406 57.1079 92.3237 57.4409C92.7104 57.7739 92.9038 58.2931 92.9038 58.9985V63H92.0068L91.7651 62.1567H91.7222C91.5539 62.3716 91.3802 62.5488 91.2012 62.6885C91.0221 62.8281 90.8145 62.932 90.5781 63C90.3454 63.0716 90.0607 63.1074 89.7241 63.1074C89.3696 63.1074 89.0527 63.043 88.7734 62.9141C88.4941 62.7816 88.2739 62.5811 88.1128 62.3125C87.9517 62.0439 87.8711 61.7038 87.8711 61.292C87.8711 60.6797 88.0985 60.2196 88.5532 59.9116C89.0116 59.6037 89.7026 59.4336 90.6265 59.4014L91.6577 59.3638V59.0522C91.6577 58.6405 91.561 58.3468 91.3677 58.1714C91.1779 57.9959 90.9093 57.9082 90.562 57.9082C90.2648 57.9082 89.9766 57.9512 89.6973 58.0371C89.418 58.123 89.1458 58.2287 88.8809 58.354L88.4727 57.4624C88.7627 57.3084 89.0921 57.1831 89.4609 57.0864C89.8333 56.9897 90.2201 56.9414 90.6211 56.9414ZM91.6523 60.1587L90.8843 60.1855C90.2541 60.207 89.8118 60.3145 89.5576 60.5078C89.3034 60.7012 89.1763 60.9661 89.1763 61.3027C89.1763 61.5964 89.264 61.8112 89.4395 61.9473C89.6149 62.0798 89.8459 62.146 90.1323 62.146C90.5692 62.146 90.9308 62.0225 91.2173 61.7754C91.5073 61.5247 91.6523 61.1577 91.6523 60.6743V60.1587ZM97.0664 63.1074C96.5042 63.1074 96.0173 62.9982 95.6055 62.7798C95.1937 62.5614 94.8768 62.2266 94.6548 61.7754C94.4328 61.3242 94.3218 60.7513 94.3218 60.0566C94.3218 59.3333 94.4435 58.7425 94.687 58.2842C94.9305 57.8258 95.2671 57.4875 95.6968 57.269C96.13 57.0506 96.626 56.9414 97.1846 56.9414C97.5391 56.9414 97.8595 56.9772 98.146 57.0488C98.436 57.1169 98.6813 57.201 98.8818 57.3013L98.5059 58.311C98.2874 58.2215 98.0636 58.1463 97.8345 58.0854C97.6053 58.0246 97.3851 57.9941 97.1738 57.9941C96.8265 57.9941 96.5365 58.0711 96.3037 58.2251C96.0745 58.3791 95.9027 58.6082 95.7881 58.9126C95.6771 59.217 95.6216 59.5947 95.6216 60.0459C95.6216 60.4827 95.6789 60.8516 95.7935 61.1523C95.908 61.4495 96.0781 61.6751 96.3037 61.8291C96.5293 61.9795 96.8068 62.0547 97.1362 62.0547C97.4621 62.0547 97.7539 62.0153 98.0117 61.9365C98.2695 61.8577 98.513 61.7557 98.7422 61.6304V62.7261C98.5166 62.855 98.2749 62.9499 98.0171 63.0107C97.7593 63.0752 97.4424 63.1074 97.0664 63.1074ZM101.401 54.6426V56.7427C101.401 56.9611 101.394 57.1742 101.379 57.3818C101.369 57.5895 101.356 57.7507 101.342 57.8652H101.412C101.537 57.6576 101.691 57.4875 101.874 57.355C102.056 57.2189 102.26 57.1169 102.486 57.0488C102.715 56.9808 102.958 56.9468 103.216 56.9468C103.671 56.9468 104.058 57.0238 104.376 57.1777C104.695 57.3281 104.939 57.5627 105.107 57.8813C105.279 58.2 105.365 58.6136 105.365 59.1221V63H104.103V59.3584C104.103 58.8965 104.008 58.5509 103.818 58.3218C103.628 58.089 103.334 57.9727 102.937 57.9727C102.554 57.9727 102.25 58.0532 102.024 58.2144C101.802 58.3719 101.643 58.6064 101.546 58.918C101.449 59.2259 101.401 59.6019 101.401 60.0459V63H100.139V54.6426H101.401ZM112.202 62.0869C112.367 62.0869 112.53 62.0726 112.691 62.0439C112.852 62.0117 112.999 61.9741 113.131 61.9312V62.8872C112.992 62.9481 112.811 63 112.589 63.043C112.367 63.0859 112.136 63.1074 111.896 63.1074C111.559 63.1074 111.257 63.0519 110.988 62.9409C110.72 62.8263 110.507 62.6312 110.349 62.3555C110.192 62.0798 110.113 61.6984 110.113 61.2114V58.0156H109.302V57.4517L110.172 57.0059L110.585 55.7329H111.38V57.0542H113.083V58.0156H111.38V61.1953C111.38 61.4961 111.456 61.7199 111.606 61.8667C111.756 62.0135 111.955 62.0869 112.202 62.0869ZM119.523 57.0542V63H118.529L118.357 62.1997H118.288C118.162 62.4038 118.003 62.5739 117.81 62.71C117.616 62.8424 117.401 62.9409 117.165 63.0054C116.929 63.0734 116.68 63.1074 116.418 63.1074C115.971 63.1074 115.588 63.0322 115.269 62.8818C114.954 62.7279 114.712 62.4915 114.544 62.1729C114.376 61.8542 114.292 61.4424 114.292 60.9375V57.0542H115.559V60.7012C115.559 61.1631 115.652 61.5086 115.838 61.7378C116.028 61.967 116.322 62.0815 116.719 62.0815C117.102 62.0815 117.407 62.0028 117.632 61.8452C117.858 61.6877 118.017 61.4549 118.11 61.147C118.207 60.839 118.255 60.4613 118.255 60.0137V57.0542H119.523ZM124.346 56.9414C124.446 56.9414 124.556 56.9468 124.674 56.9575C124.792 56.9683 124.894 56.9826 124.98 57.0005L124.862 58.1821C124.787 58.1606 124.694 58.1445 124.583 58.1338C124.475 58.123 124.378 58.1177 124.292 58.1177C124.067 58.1177 123.852 58.1553 123.648 58.2305C123.444 58.3021 123.263 58.4131 123.105 58.5635C122.948 58.7103 122.824 58.8947 122.735 59.1167C122.645 59.3387 122.601 59.5965 122.601 59.8901V63H121.333V57.0542H122.321L122.493 58.1016H122.552C122.67 57.8903 122.817 57.6969 122.993 57.5215C123.168 57.346 123.369 57.2064 123.594 57.1025C123.823 56.9951 124.074 56.9414 124.346 56.9414ZM129.18 56.9414C129.85 56.9414 130.371 57.1151 130.743 57.4624C131.119 57.8062 131.307 58.3594 131.307 59.1221V63H130.045V59.3584C130.045 58.8965 129.95 58.5509 129.76 58.3218C129.57 58.089 129.277 57.9727 128.879 57.9727C128.303 57.9727 127.902 58.1499 127.676 58.5044C127.454 58.8589 127.343 59.3727 127.343 60.0459V63H126.081V57.0542H127.064L127.241 57.8599H127.311C127.44 57.6522 127.599 57.4821 127.789 57.3496C127.982 57.2135 128.197 57.1115 128.434 57.0435C128.674 56.9754 128.922 56.9414 129.18 56.9414ZM14.1152 77.0869C14.2799 77.0869 14.4429 77.0726 14.604 77.0439C14.7651 77.0117 14.9119 76.9741 15.0444 76.9312V77.8872C14.9048 77.9481 14.724 78 14.502 78.043C14.2799 78.0859 14.049 78.1074 13.8091 78.1074C13.4725 78.1074 13.1699 78.0519 12.9014 77.9409C12.6328 77.8263 12.4198 77.6312 12.2622 77.3555C12.1047 77.0798 12.0259 76.6984 12.0259 76.2114V73.0156H11.2148V72.4517L12.085 72.0059L12.4985 70.7329H13.2935V72.0542H14.9961V73.0156H13.2935V76.1953C13.2935 76.4961 13.3687 76.7199 13.519 76.8667C13.6694 77.0135 13.8682 77.0869 14.1152 77.0869ZM21.5166 75.0137C21.5166 75.5078 21.4521 75.9465 21.3232 76.3296C21.1943 76.7127 21.0063 77.0368 20.7593 77.3018C20.5122 77.5632 20.215 77.7637 19.8677 77.9033C19.5203 78.0394 19.1283 78.1074 18.6914 78.1074C18.2832 78.1074 17.909 78.0394 17.5688 77.9033C17.2287 77.7637 16.9333 77.5632 16.6826 77.3018C16.4355 77.0368 16.244 76.7127 16.1079 76.3296C15.9718 75.9465 15.9038 75.5078 15.9038 75.0137C15.9038 74.3584 16.0166 73.8034 16.2422 73.3486C16.4714 72.8903 16.7972 72.5412 17.2197 72.3013C17.6423 72.0614 18.1453 71.9414 18.729 71.9414C19.2769 71.9414 19.7603 72.0614 20.1792 72.3013C20.5981 72.5412 20.9258 72.8903 21.1621 73.3486C21.3984 73.807 21.5166 74.362 21.5166 75.0137ZM17.2036 75.0137C17.2036 75.4469 17.2555 75.8175 17.3594 76.1255C17.4668 76.4334 17.6315 76.6698 17.8535 76.8345C18.0755 76.9956 18.362 77.0762 18.7129 77.0762C19.0638 77.0762 19.3503 76.9956 19.5723 76.8345C19.7943 76.6698 19.9572 76.4334 20.061 76.1255C20.1649 75.8175 20.2168 75.4469 20.2168 75.0137C20.2168 74.5804 20.1649 74.2134 20.061 73.9126C19.9572 73.6082 19.7943 73.3773 19.5723 73.2197C19.3503 73.0586 19.062 72.978 18.7075 72.978C18.1847 72.978 17.8034 73.1535 17.5635 73.5044C17.3236 73.8553 17.2036 74.3584 17.2036 75.0137ZM28.1553 71.9414C28.9072 71.9414 29.4748 72.1079 29.8579 72.4409C30.2446 72.7739 30.438 73.2931 30.438 73.9985V78H29.541L29.2993 77.1567H29.2563C29.0881 77.3716 28.9144 77.5488 28.7354 77.6885C28.5563 77.8281 28.3486 77.932 28.1123 78C27.8796 78.0716 27.5949 78.1074 27.2583 78.1074C26.9038 78.1074 26.5869 78.043 26.3076 77.9141C26.0283 77.7816 25.8081 77.5811 25.647 77.3125C25.4858 77.0439 25.4053 76.7038 25.4053 76.292C25.4053 75.6797 25.6326 75.2196 26.0874 74.9116C26.5457 74.6037 27.2368 74.4336 28.1606 74.4014L29.1919 74.3638V74.0522C29.1919 73.6405 29.0952 73.3468 28.9019 73.1714C28.7121 72.9959 28.4435 72.9082 28.0962 72.9082C27.799 72.9082 27.5107 72.9512 27.2314 73.0371C26.9521 73.123 26.68 73.2287 26.415 73.354L26.0068 72.4624C26.2969 72.3084 26.6263 72.1831 26.9951 72.0864C27.3675 71.9897 27.7542 71.9414 28.1553 71.9414ZM29.1865 75.1587L28.4185 75.1855C27.7882 75.207 27.346 75.3145 27.0918 75.5078C26.8376 75.7012 26.7104 75.9661 26.7104 76.3027C26.7104 76.5964 26.7982 76.8112 26.9736 76.9473C27.1491 77.0798 27.38 77.146 27.6665 77.146C28.1034 77.146 28.465 77.0225 28.7515 76.7754C29.0415 76.5247 29.1865 76.1577 29.1865 75.6743V75.1587ZM33.564 78L31.3027 72.0542H32.6401L33.8647 75.5454C33.9435 75.7674 34.0151 76.0073 34.0796 76.2651C34.144 76.5229 34.1888 76.7396 34.2139 76.915H34.2568C34.2819 76.7324 34.3302 76.514 34.4019 76.2598C34.4735 76.002 34.5469 75.7638 34.6221 75.5454L35.8467 72.0542H37.1787L34.9175 78H33.564ZM43.3447 75.0137C43.3447 75.5078 43.2803 75.9465 43.1514 76.3296C43.0225 76.7127 42.8345 77.0368 42.5874 77.3018C42.3403 77.5632 42.0431 77.7637 41.6958 77.9033C41.3485 78.0394 40.9564 78.1074 40.5195 78.1074C40.1113 78.1074 39.7371 78.0394 39.397 77.9033C39.0568 77.7637 38.7614 77.5632 38.5107 77.3018C38.2637 77.0368 38.0721 76.7127 37.936 76.3296C37.8 75.9465 37.7319 75.5078 37.7319 75.0137C37.7319 74.3584 37.8447 73.8034 38.0703 73.3486C38.2995 72.8903 38.6253 72.5412 39.0479 72.3013C39.4704 72.0614 39.9735 71.9414 40.5571 71.9414C41.105 71.9414 41.5884 72.0614 42.0073 72.3013C42.4263 72.5412 42.7539 72.8903 42.9902 73.3486C43.2266 73.807 43.3447 74.362 43.3447 75.0137ZM39.0317 75.0137C39.0317 75.4469 39.0837 75.8175 39.1875 76.1255C39.2949 76.4334 39.4596 76.6698 39.6816 76.8345C39.9036 76.9956 40.1901 77.0762 40.541 77.0762C40.8919 77.0762 41.1784 76.9956 41.4004 76.8345C41.6224 76.6698 41.7853 76.4334 41.8892 76.1255C41.993 75.8175 42.0449 75.4469 42.0449 75.0137C42.0449 74.5804 41.993 74.2134 41.8892 73.9126C41.7853 73.6082 41.6224 73.3773 41.4004 73.2197C41.1784 73.0586 40.8901 72.978 40.5356 72.978C40.0129 72.978 39.6315 73.1535 39.3916 73.5044C39.1517 73.8553 39.0317 74.3584 39.0317 75.0137ZM46.0571 72.0542V78H44.7949V72.0542H46.0571ZM45.4341 69.7769C45.6274 69.7769 45.7939 69.8288 45.9336 69.9326C46.0768 70.0365 46.1484 70.2155 46.1484 70.4697C46.1484 70.7204 46.0768 70.8994 45.9336 71.0068C45.7939 71.1107 45.6274 71.1626 45.4341 71.1626C45.2336 71.1626 45.0635 71.1107 44.9238 71.0068C44.7878 70.8994 44.7197 70.7204 44.7197 70.4697C44.7197 70.2155 44.7878 70.0365 44.9238 69.9326C45.0635 69.8288 45.2336 69.7769 45.4341 69.7769ZM49.8652 78.1074C49.1562 78.1074 48.5869 77.8496 48.1572 77.334C47.7311 76.8148 47.5181 76.0503 47.5181 75.0405C47.5181 74.02 47.7347 73.2484 48.168 72.7256C48.6048 72.2028 49.1795 71.9414 49.8921 71.9414C50.1929 71.9414 50.4561 71.9826 50.6816 72.0649C50.9072 72.1437 51.1006 72.2511 51.2617 72.3872C51.4264 72.5233 51.5661 72.6755 51.6807 72.8438H51.7397C51.7218 72.7327 51.7004 72.5734 51.6753 72.3657C51.6538 72.1545 51.6431 71.9593 51.6431 71.7803V69.6426H52.9106V78H51.9224L51.6968 77.189H51.6431C51.5356 77.3608 51.3996 77.5166 51.2349 77.6562C51.0737 77.7923 50.8804 77.9015 50.6548 77.9839C50.4328 78.0662 50.1696 78.1074 49.8652 78.1074ZM50.2197 77.0815C50.7604 77.0815 51.1418 76.9258 51.3638 76.6143C51.5858 76.3027 51.7004 75.8354 51.7075 75.2124V75.0459C51.7075 74.3799 51.6001 73.8696 51.3853 73.5151C51.1704 73.1571 50.7783 72.978 50.209 72.978C49.7542 72.978 49.4069 73.1624 49.167 73.5312C48.9307 73.8965 48.8125 74.4067 48.8125 75.062C48.8125 75.7173 48.9307 76.2186 49.167 76.5659C49.4069 76.9097 49.7578 77.0815 50.2197 77.0815ZM59.5762 78.1074C58.8672 78.1074 58.2979 77.8496 57.8682 77.334C57.4421 76.8148 57.229 76.0503 57.229 75.0405C57.229 74.02 57.4456 73.2484 57.8789 72.7256C58.3158 72.2028 58.8905 71.9414 59.603 71.9414C59.9038 71.9414 60.167 71.9826 60.3926 72.0649C60.6182 72.1437 60.8115 72.2511 60.9727 72.3872C61.1374 72.5233 61.277 72.6755 61.3916 72.8438H61.4507C61.4328 72.7327 61.4113 72.5734 61.3862 72.3657C61.3647 72.1545 61.354 71.9593 61.354 71.7803V69.6426H62.6216V78H61.6333L61.4077 77.189H61.354C61.2466 77.3608 61.1105 77.5166 60.9458 77.6562C60.7847 77.7923 60.5913 77.9015 60.3657 77.9839C60.1437 78.0662 59.8805 78.1074 59.5762 78.1074ZM59.9307 77.0815C60.4714 77.0815 60.8527 76.9258 61.0747 76.6143C61.2967 76.3027 61.4113 75.8354 61.4185 75.2124V75.0459C61.4185 74.3799 61.311 73.8696 61.0962 73.5151C60.8813 73.1571 60.4893 72.978 59.9199 72.978C59.4652 72.978 59.1178 73.1624 58.8779 73.5312C58.6416 73.8965 58.5234 74.4067 58.5234 75.062C58.5234 75.7173 58.6416 76.2186 58.8779 76.5659C59.1178 76.9097 59.4688 77.0815 59.9307 77.0815ZM69.6953 75.0137C69.6953 75.5078 69.6309 75.9465 69.502 76.3296C69.373 76.7127 69.1851 77.0368 68.938 77.3018C68.6909 77.5632 68.3937 77.7637 68.0464 77.9033C67.6991 78.0394 67.307 78.1074 66.8701 78.1074C66.4619 78.1074 66.0877 78.0394 65.7476 77.9033C65.4074 77.7637 65.112 77.5632 64.8613 77.3018C64.6143 77.0368 64.4227 76.7127 64.2866 76.3296C64.1506 75.9465 64.0825 75.5078 64.0825 75.0137C64.0825 74.3584 64.1953 73.8034 64.4209 73.3486C64.6501 72.8903 64.9759 72.5412 65.3984 72.3013C65.821 72.0614 66.3241 71.9414 66.9077 71.9414C67.4556 71.9414 67.939 72.0614 68.3579 72.3013C68.7769 72.5412 69.1045 72.8903 69.3408 73.3486C69.5771 73.807 69.6953 74.362 69.6953 75.0137ZM65.3823 75.0137C65.3823 75.4469 65.4342 75.8175 65.5381 76.1255C65.6455 76.4334 65.8102 76.6698 66.0322 76.8345C66.2542 76.9956 66.5407 77.0762 66.8916 77.0762C67.2425 77.0762 67.529 76.9956 67.751 76.8345C67.973 76.6698 68.1359 76.4334 68.2397 76.1255C68.3436 75.8175 68.3955 75.4469 68.3955 75.0137C68.3955 74.5804 68.3436 74.2134 68.2397 73.9126C68.1359 73.6082 67.973 73.3773 67.751 73.2197C67.529 73.0586 67.2407 72.978 66.8862 72.978C66.3634 72.978 65.9821 73.1535 65.7422 73.5044C65.5023 73.8553 65.3823 74.3584 65.3823 75.0137ZM73.1436 78.1074C72.4346 78.1074 71.8652 77.8496 71.4355 77.334C71.0094 76.8148 70.7964 76.0503 70.7964 75.0405C70.7964 74.02 71.013 73.2484 71.4463 72.7256C71.8831 72.2028 72.4578 71.9414 73.1704 71.9414C73.4712 71.9414 73.7344 71.9826 73.96 72.0649C74.1855 72.1437 74.3789 72.2511 74.54 72.3872C74.7048 72.5233 74.8444 72.6755 74.959 72.8438H75.0181C75.0002 72.7327 74.9787 72.5734 74.9536 72.3657C74.9321 72.1545 74.9214 71.9593 74.9214 71.7803V69.6426H76.189V78H75.2007L74.9751 77.189H74.9214C74.814 77.3608 74.6779 77.5166 74.5132 77.6562C74.3521 77.7923 74.1587 77.9015 73.9331 77.9839C73.7111 78.0662 73.4479 78.1074 73.1436 78.1074ZM73.498 77.0815C74.0387 77.0815 74.4201 76.9258 74.6421 76.6143C74.8641 76.3027 74.9787 75.8354 74.9858 75.2124V75.0459C74.9858 74.3799 74.8784 73.8696 74.6636 73.5151C74.4487 73.1571 74.0566 72.978 73.4873 72.978C73.0326 72.978 72.6852 73.1624 72.4453 73.5312C72.209 73.8965 72.0908 74.4067 72.0908 75.062C72.0908 75.7173 72.209 76.2186 72.4453 76.5659C72.6852 76.9097 73.0361 77.0815 73.498 77.0815ZM79.6963 80.6426C78.8906 80.6426 78.2729 80.4976 77.8433 80.2075C77.4136 79.9175 77.1987 79.5111 77.1987 78.9883C77.1987 78.623 77.3133 78.3133 77.5425 78.0591C77.7716 77.8084 78.0993 77.6348 78.5254 77.5381C78.3643 77.4665 78.2246 77.3555 78.1064 77.2051C77.9919 77.0511 77.9346 76.881 77.9346 76.6948C77.9346 76.4728 77.9972 76.283 78.1226 76.1255C78.2479 75.9679 78.4359 75.8158 78.6865 75.6689C78.375 75.5365 78.1243 75.3216 77.9346 75.0244C77.7484 74.7236 77.6553 74.3709 77.6553 73.9663C77.6553 73.5366 77.7466 73.1714 77.9292 72.8706C78.1118 72.5662 78.3786 72.3353 78.7295 72.1777C79.0804 72.0166 79.5047 71.936 80.0024 71.936C80.1099 71.936 80.2262 71.9432 80.3516 71.9575C80.4805 71.9683 80.5986 71.9826 80.7061 72.0005C80.8171 72.0148 80.9012 72.0309 80.9585 72.0488H83.0156V72.7524L82.0059 72.9404C82.1025 73.0765 82.1795 73.2323 82.2368 73.4077C82.2941 73.5796 82.3228 73.7676 82.3228 73.9717C82.3228 74.5876 82.1097 75.0728 81.6836 75.4272C81.2611 75.7782 80.6774 75.9536 79.9326 75.9536C79.7536 75.9465 79.5799 75.9321 79.4116 75.9106C79.2827 75.9894 79.1842 76.0771 79.1162 76.1738C79.0482 76.2669 79.0142 76.3726 79.0142 76.4907C79.0142 76.5874 79.0482 76.6662 79.1162 76.7271C79.1842 76.7843 79.2845 76.8273 79.417 76.856C79.5531 76.8846 79.7178 76.8989 79.9111 76.8989H80.937C81.5887 76.8989 82.0864 77.0368 82.4302 77.3125C82.7739 77.5882 82.9458 77.9928 82.9458 78.5264C82.9458 79.2031 82.6665 79.7241 82.1079 80.0894C81.5493 80.4582 80.7454 80.6426 79.6963 80.6426ZM79.7446 79.7563C80.1851 79.7563 80.5557 79.7134 80.8564 79.6274C81.1572 79.5415 81.3846 79.418 81.5386 79.2568C81.6925 79.0993 81.7695 78.9113 81.7695 78.6929C81.7695 78.4995 81.7212 78.3509 81.6245 78.2471C81.5278 78.1432 81.3828 78.0716 81.1895 78.0322C80.9961 77.9928 80.7562 77.9731 80.4697 77.9731H79.5352C79.3024 77.9731 79.0965 78.009 78.9175 78.0806C78.7384 78.1558 78.5988 78.2632 78.4985 78.4028C78.4019 78.5425 78.3535 78.7108 78.3535 78.9077C78.3535 79.1799 78.4735 79.3893 78.7134 79.5361C78.9569 79.6829 79.3006 79.7563 79.7446 79.7563ZM79.9917 75.1265C80.3605 75.1265 80.6344 75.0262 80.8135 74.8257C80.9925 74.6216 81.082 74.3351 81.082 73.9663C81.082 73.5653 80.9889 73.2645 80.8027 73.064C80.6201 72.8634 80.348 72.7632 79.9863 72.7632C79.6318 72.7632 79.3615 72.8652 79.1753 73.0693C78.9927 73.2734 78.9014 73.576 78.9014 73.9771C78.9014 74.3387 78.9927 74.6216 79.1753 74.8257C79.3615 75.0262 79.6336 75.1265 79.9917 75.1265ZM85.3628 72.0542V78H84.1006V72.0542H85.3628ZM84.7397 69.7769C84.9331 69.7769 85.0996 69.8288 85.2393 69.9326C85.3825 70.0365 85.4541 70.2155 85.4541 70.4697C85.4541 70.7204 85.3825 70.8994 85.2393 71.0068C85.0996 71.1107 84.9331 71.1626 84.7397 71.1626C84.5392 71.1626 84.3691 71.1107 84.2295 71.0068C84.0934 70.8994 84.0254 70.7204 84.0254 70.4697C84.0254 70.2155 84.0934 70.0365 84.2295 69.9326C84.3691 69.8288 84.5392 69.7769 84.7397 69.7769ZM90.272 71.9414C90.9416 71.9414 91.4626 72.1151 91.835 72.4624C92.2109 72.8062 92.3989 73.3594 92.3989 74.1221V78H91.1367V74.3584C91.1367 73.8965 91.0418 73.5509 90.8521 73.3218C90.6623 73.089 90.3687 72.9727 89.9712 72.9727C89.3947 72.9727 88.9937 73.1499 88.7681 73.5044C88.5461 73.8589 88.4351 74.3727 88.4351 75.0459V78H87.1729V72.0542H88.1558L88.333 72.8599H88.4028C88.5317 72.6522 88.6911 72.4821 88.8809 72.3496C89.0742 72.2135 89.2891 72.1115 89.5254 72.0435C89.7653 71.9754 90.0142 71.9414 90.272 71.9414ZM95.8633 80.6426C95.0576 80.6426 94.4399 80.4976 94.0103 80.2075C93.5806 79.9175 93.3657 79.5111 93.3657 78.9883C93.3657 78.623 93.4803 78.3133 93.7095 78.0591C93.9386 77.8084 94.2663 77.6348 94.6924 77.5381C94.5312 77.4665 94.3916 77.3555 94.2734 77.2051C94.1589 77.0511 94.1016 76.881 94.1016 76.6948C94.1016 76.4728 94.1642 76.283 94.2896 76.1255C94.4149 75.9679 94.6029 75.8158 94.8535 75.6689C94.542 75.5365 94.2913 75.3216 94.1016 75.0244C93.9154 74.7236 93.8223 74.3709 93.8223 73.9663C93.8223 73.5366 93.9136 73.1714 94.0962 72.8706C94.2788 72.5662 94.5456 72.3353 94.8965 72.1777C95.2474 72.0166 95.6717 71.936 96.1694 71.936C96.2769 71.936 96.3932 71.9432 96.5186 71.9575C96.6475 71.9683 96.7656 71.9826 96.873 72.0005C96.984 72.0148 97.0682 72.0309 97.1255 72.0488H99.1826V72.7524L98.1729 72.9404C98.2695 73.0765 98.3465 73.2323 98.4038 73.4077C98.4611 73.5796 98.4897 73.7676 98.4897 73.9717C98.4897 74.5876 98.2767 75.0728 97.8506 75.4272C97.4281 75.7782 96.8444 75.9536 96.0996 75.9536C95.9206 75.9465 95.7469 75.9321 95.5786 75.9106C95.4497 75.9894 95.3512 76.0771 95.2832 76.1738C95.2152 76.2669 95.1812 76.3726 95.1812 76.4907C95.1812 76.5874 95.2152 76.6662 95.2832 76.7271C95.3512 76.7843 95.4515 76.8273 95.584 76.856C95.7201 76.8846 95.8848 76.8989 96.0781 76.8989H97.104C97.7557 76.8989 98.2534 77.0368 98.5972 77.3125C98.9409 77.5882 99.1128 77.9928 99.1128 78.5264C99.1128 79.2031 98.8335 79.7241 98.2749 80.0894C97.7163 80.4582 96.9124 80.6426 95.8633 80.6426ZM95.9116 79.7563C96.3521 79.7563 96.7227 79.7134 97.0234 79.6274C97.3242 79.5415 97.5516 79.418 97.7056 79.2568C97.8595 79.0993 97.9365 78.9113 97.9365 78.6929C97.9365 78.4995 97.8882 78.3509 97.7915 78.2471C97.6948 78.1432 97.5498 78.0716 97.3564 78.0322C97.1631 77.9928 96.9232 77.9731 96.6367 77.9731H95.7021C95.4694 77.9731 95.2635 78.009 95.0845 78.0806C94.9054 78.1558 94.7658 78.2632 94.6655 78.4028C94.5688 78.5425 94.5205 78.7108 94.5205 78.9077C94.5205 79.1799 94.6405 79.3893 94.8804 79.5361C95.1239 79.6829 95.4676 79.7563 95.9116 79.7563ZM96.1587 75.1265C96.5275 75.1265 96.8014 75.0262 96.9805 74.8257C97.1595 74.6216 97.249 74.3351 97.249 73.9663C97.249 73.5653 97.1559 73.2645 96.9697 73.064C96.7871 72.8634 96.515 72.7632 96.1533 72.7632C95.7988 72.7632 95.5285 72.8652 95.3423 73.0693C95.1597 73.2734 95.0684 73.576 95.0684 73.9771C95.0684 74.3387 95.1597 74.6216 95.3423 74.8257C95.5285 75.0262 95.8006 75.1265 96.1587 75.1265ZM105.338 77.0869C105.503 77.0869 105.666 77.0726 105.827 77.0439C105.988 77.0117 106.135 76.9741 106.267 76.9312V77.8872C106.127 77.9481 105.947 78 105.725 78.043C105.503 78.0859 105.272 78.1074 105.032 78.1074C104.695 78.1074 104.393 78.0519 104.124 77.9409C103.855 77.8263 103.642 77.6312 103.485 77.3555C103.327 77.0798 103.249 76.6984 103.249 76.2114V73.0156H102.438V72.4517L103.308 72.0059L103.721 70.7329H104.516V72.0542H106.219V73.0156H104.516V76.1953C104.516 76.4961 104.591 76.7199 104.742 76.8667C104.892 77.0135 105.091 77.0869 105.338 77.0869ZM108.738 69.6426V71.7427C108.738 71.9611 108.731 72.1742 108.716 72.3818C108.706 72.5895 108.693 72.7507 108.679 72.8652H108.749C108.874 72.6576 109.028 72.4875 109.21 72.355C109.393 72.2189 109.597 72.1169 109.823 72.0488C110.052 71.9808 110.295 71.9468 110.553 71.9468C111.008 71.9468 111.395 72.0238 111.713 72.1777C112.032 72.3281 112.276 72.5627 112.444 72.8813C112.616 73.2 112.702 73.6136 112.702 74.1221V78H111.439V74.3584C111.439 73.8965 111.345 73.5509 111.155 73.3218C110.965 73.089 110.671 72.9727 110.274 72.9727C109.891 72.9727 109.586 73.0532 109.361 73.2144C109.139 73.3719 108.979 73.6064 108.883 73.918C108.786 74.2259 108.738 74.6019 108.738 75.0459V78H107.476V69.6426H108.738ZM116.837 71.9414C117.367 71.9414 117.822 72.0506 118.202 72.269C118.581 72.4875 118.873 72.7972 119.077 73.1982C119.281 73.5993 119.383 74.0791 119.383 74.6377V75.3145H115.414C115.428 75.891 115.582 76.335 115.876 76.6465C116.173 76.958 116.589 77.1138 117.122 77.1138C117.502 77.1138 117.842 77.078 118.143 77.0063C118.447 76.9312 118.76 76.8219 119.083 76.6787V77.7046C118.785 77.8442 118.483 77.9463 118.175 78.0107C117.867 78.0752 117.498 78.1074 117.068 78.1074C116.485 78.1074 115.971 77.9946 115.527 77.769C115.086 77.5399 114.741 77.1997 114.49 76.7485C114.243 76.2974 114.12 75.737 114.12 75.0674C114.12 74.4014 114.232 73.8356 114.458 73.3701C114.684 72.9046 115 72.5501 115.409 72.3066C115.817 72.0632 116.293 71.9414 116.837 71.9414ZM116.837 72.8921C116.44 72.8921 116.118 73.021 115.871 73.2788C115.627 73.5366 115.484 73.9144 115.441 74.4121H118.148C118.144 74.1149 118.094 73.8517 117.998 73.6226C117.904 73.3934 117.761 73.2144 117.568 73.0854C117.378 72.9565 117.135 72.8921 116.837 72.8921ZM18.6216 86.9414C19.2876 86.9414 19.7889 87.1133 20.1255 87.457C20.4657 87.8008 20.6357 88.3522 20.6357 89.1113V93H19.3735V89.3369C19.3735 88.8857 19.2858 88.5456 19.1104 88.3164C18.9349 88.0872 18.6681 87.9727 18.3101 87.9727C17.8088 87.9727 17.4471 88.1338 17.2251 88.4561C17.0067 88.7747 16.8975 89.2384 16.8975 89.8472V93H15.6353V89.3369C15.6353 89.0361 15.5959 88.7855 15.5171 88.585C15.4419 88.3809 15.3255 88.2287 15.168 88.1284C15.0104 88.0246 14.8117 87.9727 14.5718 87.9727C14.2244 87.9727 13.9469 88.0514 13.7393 88.209C13.5352 88.3665 13.3883 88.5993 13.2988 88.9072C13.2093 89.2116 13.1646 89.5858 13.1646 90.0298V93H11.9023V87.0542H12.8853L13.0625 87.8545H13.1323C13.2541 87.6468 13.4045 87.4767 13.5835 87.3442C13.7661 87.2082 13.9684 87.1079 14.1904 87.0435C14.4124 86.9754 14.6434 86.9414 14.8833 86.9414C15.3273 86.9414 15.7015 87.0202 16.0059 87.1777C16.3102 87.3317 16.5376 87.568 16.688 87.8867H16.7847C16.9709 87.5645 17.2305 87.3263 17.5635 87.1724C17.8965 87.0184 18.2492 86.9414 18.6216 86.9414ZM24.7285 86.9414C25.4805 86.9414 26.048 87.1079 26.4312 87.4409C26.8179 87.7739 27.0112 88.2931 27.0112 88.9985V93H26.1143L25.8726 92.1567H25.8296C25.6613 92.3716 25.4876 92.5488 25.3086 92.6885C25.1296 92.8281 24.9219 92.932 24.6855 93C24.4528 93.0716 24.1681 93.1074 23.8315 93.1074C23.4771 93.1074 23.1602 93.043 22.8809 92.9141C22.6016 92.7816 22.3813 92.5811 22.2202 92.3125C22.0591 92.0439 21.9785 91.7038 21.9785 91.292C21.9785 90.6797 22.2059 90.2196 22.6606 89.9116C23.119 89.6037 23.8101 89.4336 24.7339 89.4014L25.7651 89.3638V89.0522C25.7651 88.6405 25.6685 88.3468 25.4751 88.1714C25.2853 87.9959 25.0168 87.9082 24.6694 87.9082C24.3722 87.9082 24.084 87.9512 23.8047 88.0371C23.5254 88.123 23.2533 88.2287 22.9883 88.354L22.5801 87.4624C22.8701 87.3084 23.1995 87.1831 23.5684 87.0864C23.9408 86.9897 24.3275 86.9414 24.7285 86.9414ZM25.7598 90.1587L24.9917 90.1855C24.3615 90.207 23.9193 90.3145 23.665 90.5078C23.4108 90.7012 23.2837 90.9661 23.2837 91.3027C23.2837 91.5964 23.3714 91.8112 23.5469 91.9473C23.7223 92.0798 23.9533 92.146 24.2397 92.146C24.6766 92.146 25.0382 92.0225 25.3247 91.7754C25.6147 91.5247 25.7598 91.1577 25.7598 90.6743V90.1587ZM30.9912 92.0869C31.1559 92.0869 31.3188 92.0726 31.48 92.0439C31.6411 92.0117 31.7879 91.9741 31.9204 91.9312V92.8872C31.7808 92.9481 31.5999 93 31.3779 93.043C31.1559 93.0859 30.925 93.1074 30.6851 93.1074C30.3485 93.1074 30.0459 93.0519 29.7773 92.9409C29.5088 92.8263 29.2957 92.6312 29.1382 92.3555C28.9806 92.0798 28.9019 91.6984 28.9019 91.2114V88.0156H28.0908V87.4517L28.9609 87.0059L29.3745 85.7329H30.1694V87.0542H31.8721V88.0156H30.1694V91.1953C30.1694 91.4961 30.2446 91.7199 30.395 91.8667C30.5454 92.0135 30.7441 92.0869 30.9912 92.0869ZM35.5244 93.1074C34.9622 93.1074 34.4753 92.9982 34.0635 92.7798C33.6517 92.5614 33.3348 92.2266 33.1128 91.7754C32.8908 91.3242 32.7798 90.7513 32.7798 90.0566C32.7798 89.3333 32.9015 88.7425 33.145 88.2842C33.3885 87.8258 33.7251 87.4875 34.1548 87.269C34.5881 87.0506 35.084 86.9414 35.6426 86.9414C35.9971 86.9414 36.3175 86.9772 36.604 87.0488C36.894 87.1169 37.1393 87.201 37.3398 87.3013L36.9639 88.311C36.7454 88.2215 36.5216 88.1463 36.2925 88.0854C36.0633 88.0246 35.8431 87.9941 35.6318 87.9941C35.2845 87.9941 34.9945 88.0711 34.7617 88.2251C34.5326 88.3791 34.3607 88.6082 34.2461 88.9126C34.1351 89.217 34.0796 89.5947 34.0796 90.0459C34.0796 90.4827 34.1369 90.8516 34.2515 91.1523C34.366 91.4495 34.5361 91.6751 34.7617 91.8291C34.9873 91.9795 35.2648 92.0547 35.5942 92.0547C35.9201 92.0547 36.2119 92.0153 36.4697 91.9365C36.7275 91.8577 36.971 91.7557 37.2002 91.6304V92.7261C36.9746 92.855 36.7329 92.9499 36.4751 93.0107C36.2173 93.0752 35.9004 93.1074 35.5244 93.1074ZM39.8589 84.6426V86.7427C39.8589 86.9611 39.8517 87.1742 39.8374 87.3818C39.8267 87.5895 39.8141 87.7507 39.7998 87.8652H39.8696C39.995 87.6576 40.1489 87.4875 40.3315 87.355C40.5142 87.2189 40.7183 87.1169 40.9438 87.0488C41.173 86.9808 41.4165 86.9468 41.6743 86.9468C42.1291 86.9468 42.5158 87.0238 42.8345 87.1777C43.1532 87.3281 43.3966 87.5627 43.5649 87.8813C43.7368 88.2 43.8228 88.6136 43.8228 89.1221V93H42.5605V89.3584C42.5605 88.8965 42.4657 88.5509 42.2759 88.3218C42.0861 88.089 41.7925 87.9727 41.395 87.9727C41.0119 87.9727 40.7075 88.0532 40.4819 88.2144C40.2599 88.3719 40.1006 88.6064 40.0039 88.918C39.9072 89.2259 39.8589 89.6019 39.8589 90.0459V93H38.5967V84.6426H39.8589Z" fill="#D5D5D5"/>
<path d="M16.5107 56.9414C16.5107 57.2959 16.4391 57.6038 16.2959 57.8652C16.1527 58.1266 15.9557 58.3415 15.7051 58.5098C15.458 58.6745 15.1715 58.7926 14.8457 58.8643V58.9019C15.4723 58.9806 15.945 59.1776 16.2637 59.4927C16.5859 59.8078 16.7471 60.2249 16.7471 60.7441C16.7471 61.1989 16.6379 61.6053 16.4194 61.9634C16.201 62.3179 15.8662 62.5972 15.415 62.8013C14.9639 63.0054 14.3838 63.1074 13.6748 63.1074C13.2487 63.1074 12.853 63.0734 12.4878 63.0054C12.1261 62.9373 11.7824 62.8281 11.4565 62.6777V61.5552C11.7896 61.7199 12.144 61.847 12.52 61.9365C12.896 62.026 13.2523 62.0708 13.5889 62.0708C14.2441 62.0708 14.7114 61.9491 14.9907 61.7056C15.27 61.4585 15.4097 61.1183 15.4097 60.6851C15.4097 60.4058 15.3363 60.1766 15.1895 59.9976C15.0462 59.8185 14.8224 59.6842 14.5181 59.5947C14.2173 59.5052 13.8288 59.4604 13.3525 59.4604H12.6597V58.4453H13.3579C13.8127 58.4453 14.1779 58.3916 14.4536 58.2842C14.7293 58.1732 14.9281 58.021 15.0498 57.8276C15.1751 57.6343 15.2378 57.4087 15.2378 57.1509C15.2378 56.8143 15.1286 56.5529 14.9102 56.3667C14.6917 56.1769 14.3677 56.082 13.938 56.082C13.673 56.082 13.4313 56.1125 13.2129 56.1733C12.998 56.2342 12.7993 56.3112 12.6167 56.4043C12.4341 56.4974 12.2604 56.5977 12.0957 56.7051L11.4888 55.8296C11.786 55.6076 12.1405 55.4196 12.5522 55.2656C12.964 55.1117 13.4438 55.0347 13.9917 55.0347C14.7974 55.0347 15.4186 55.2083 15.8555 55.5557C16.2923 55.8994 16.5107 56.3613 16.5107 56.9414ZM25.0508 61.3027C25.0508 61.693 24.9559 62.0225 24.7661 62.291C24.5763 62.5596 24.2988 62.7637 23.9336 62.9033C23.5719 63.0394 23.1279 63.1074 22.6016 63.1074C22.1862 63.1074 21.8281 63.077 21.5273 63.0161C21.2301 62.9588 20.9491 62.8693 20.6841 62.7476V61.6572C20.967 61.7897 21.2839 61.9043 21.6348 62.001C21.9893 62.0977 22.3241 62.146 22.6392 62.146C23.0545 62.146 23.3535 62.0815 23.5361 61.9526C23.7188 61.8201 23.8101 61.6447 23.8101 61.4263C23.8101 61.2974 23.7725 61.1828 23.6973 61.0825C23.6257 60.9787 23.4896 60.873 23.2891 60.7656C23.0921 60.6546 22.8021 60.5221 22.4189 60.3682C22.043 60.2178 21.7261 60.0674 21.4683 59.917C21.2104 59.7666 21.0153 59.5858 20.8828 59.3745C20.7503 59.1597 20.6841 58.8857 20.6841 58.5527C20.6841 58.0264 20.8918 57.6271 21.3071 57.355C21.7261 57.0793 22.2793 56.9414 22.9668 56.9414C23.332 56.9414 23.6758 56.979 23.998 57.0542C24.3239 57.1258 24.6426 57.2314 24.9541 57.3711L24.5566 58.3218C24.2881 58.2036 24.0177 58.1069 23.7456 58.0317C23.4771 57.953 23.2031 57.9136 22.9238 57.9136C22.598 57.9136 22.3491 57.9637 22.1772 58.064C22.009 58.1642 21.9248 58.3075 21.9248 58.4937C21.9248 58.6333 21.966 58.7515 22.0483 58.8481C22.1307 58.9448 22.2721 59.0415 22.4727 59.1382C22.6768 59.2349 22.9596 59.3548 23.3213 59.498C23.6758 59.6341 23.9819 59.7773 24.2397 59.9277C24.5011 60.0745 24.7017 60.2554 24.8413 60.4702C24.981 60.6851 25.0508 60.9626 25.0508 61.3027ZM29.4658 56.9414C30.1712 56.9414 30.737 57.1992 31.1631 57.7148C31.5928 58.2305 31.8076 58.9967 31.8076 60.0137C31.8076 60.6868 31.7074 61.2544 31.5068 61.7163C31.3099 62.1746 31.0324 62.522 30.6743 62.7583C30.3198 62.991 29.9062 63.1074 29.4336 63.1074C29.1328 63.1074 28.8714 63.068 28.6494 62.9893C28.4274 62.9105 28.2376 62.8084 28.0801 62.6831C27.9225 62.5542 27.79 62.4146 27.6826 62.2642H27.6074C27.6253 62.4074 27.6414 62.5667 27.6558 62.7422C27.6737 62.9141 27.6826 63.0716 27.6826 63.2148V65.6372H26.415V57.0542H27.4463L27.6235 57.876H27.6826C27.7936 57.7077 27.9279 57.5519 28.0854 57.4087C28.2466 57.2655 28.4399 57.1527 28.6655 57.0703C28.8947 56.9844 29.1615 56.9414 29.4658 56.9414ZM29.1274 57.9727C28.7801 57.9727 28.5008 58.0425 28.2896 58.1821C28.0819 58.3182 27.9297 58.5241 27.833 58.7998C27.7399 59.0755 27.6898 59.4211 27.6826 59.8364V60.0137C27.6826 60.4541 27.7274 60.8283 27.8169 61.1362C27.91 61.4406 28.0622 61.6733 28.2734 61.8345C28.4883 61.992 28.7783 62.0708 29.1436 62.0708C29.4515 62.0708 29.7057 61.9867 29.9062 61.8184C30.1104 61.6501 30.2625 61.4102 30.3628 61.0986C30.4631 60.7871 30.5132 60.4201 30.5132 59.9976C30.5132 59.3566 30.3986 58.8589 30.1694 58.5044C29.9438 58.1499 29.5965 57.9727 29.1274 57.9727ZM35.5996 56.9414C36.3516 56.9414 36.9191 57.1079 37.3022 57.4409C37.689 57.7739 37.8823 58.2931 37.8823 58.9985V63H36.9854L36.7437 62.1567H36.7007C36.5324 62.3716 36.3587 62.5488 36.1797 62.6885C36.0007 62.8281 35.793 62.932 35.5566 63C35.3239 63.0716 35.0392 63.1074 34.7026 63.1074C34.3481 63.1074 34.0312 63.043 33.752 62.9141C33.4727 62.7816 33.2524 62.5811 33.0913 62.3125C32.9302 62.0439 32.8496 61.7038 32.8496 61.292C32.8496 60.6797 33.077 60.2196 33.5317 59.9116C33.9901 59.6037 34.6812 59.4336 35.605 59.4014L36.6362 59.3638V59.0522C36.6362 58.6405 36.5396 58.3468 36.3462 58.1714C36.1564 57.9959 35.8879 57.9082 35.5405 57.9082C35.2433 57.9082 34.9551 57.9512 34.6758 58.0371C34.3965 58.123 34.1243 58.2287 33.8594 58.354L33.4512 57.4624C33.7412 57.3084 34.0706 57.1831 34.4395 57.0864C34.8118 56.9897 35.1986 56.9414 35.5996 56.9414ZM36.6309 60.1587L35.8628 60.1855C35.2326 60.207 34.7904 60.3145 34.5361 60.5078C34.2819 60.7012 34.1548 60.9661 34.1548 61.3027C34.1548 61.5964 34.2425 61.8112 34.418 61.9473C34.5934 62.0798 34.8244 62.146 35.1108 62.146C35.5477 62.146 35.9093 62.0225 36.1958 61.7754C36.4858 61.5247 36.6309 61.1577 36.6309 60.6743V60.1587ZM42.0449 63.1074C41.4827 63.1074 40.9958 62.9982 40.584 62.7798C40.1722 62.5614 39.8553 62.2266 39.6333 61.7754C39.4113 61.3242 39.3003 60.7513 39.3003 60.0566C39.3003 59.3333 39.422 58.7425 39.6655 58.2842C39.909 57.8258 40.2456 57.4875 40.6753 57.269C41.1086 57.0506 41.6045 56.9414 42.1631 56.9414C42.5176 56.9414 42.8381 56.9772 43.1245 57.0488C43.4146 57.1169 43.6598 57.201 43.8604 57.3013L43.4844 58.311C43.266 58.2215 43.0422 58.1463 42.813 58.0854C42.5838 58.0246 42.3636 57.9941 42.1523 57.9941C41.805 57.9941 41.515 58.0711 41.2822 58.2251C41.0531 58.3791 40.8812 58.6082 40.7666 58.9126C40.6556 59.217 40.6001 59.5947 40.6001 60.0459C40.6001 60.4827 40.6574 60.8516 40.772 61.1523C40.8866 61.4495 41.0566 61.6751 41.2822 61.8291C41.5078 61.9795 41.7853 62.0547 42.1147 62.0547C42.4406 62.0547 42.7324 62.0153 42.9902 61.9365C43.248 61.8577 43.4915 61.7557 43.7207 61.6304V62.7261C43.4951 62.855 43.2534 62.9499 42.9956 63.0107C42.7378 63.0752 42.4209 63.1074 42.0449 63.1074ZM47.4858 56.9414C48.0158 56.9414 48.4705 57.0506 48.8501 57.269C49.2297 57.4875 49.5215 57.7972 49.7256 58.1982C49.9297 58.5993 50.0317 59.0791 50.0317 59.6377V60.3145H46.0625C46.0768 60.891 46.2308 61.335 46.5244 61.6465C46.8216 61.958 47.237 62.1138 47.7705 62.1138C48.1501 62.1138 48.4902 62.078 48.791 62.0063C49.0954 61.9312 49.4087 61.8219 49.731 61.6787V62.7046C49.4338 62.8442 49.1312 62.9463 48.8232 63.0107C48.5153 63.0752 48.1465 63.1074 47.7168 63.1074C47.1331 63.1074 46.6193 62.9946 46.1753 62.769C45.7349 62.5399 45.3893 62.1997 45.1387 61.7485C44.8916 61.2974 44.7681 60.737 44.7681 60.0674C44.7681 59.4014 44.8809 58.8356 45.1064 58.3701C45.332 57.9046 45.6489 57.5501 46.0571 57.3066C46.4653 57.0632 46.9416 56.9414 47.4858 56.9414ZM47.4858 57.8921C47.0884 57.8921 46.7661 58.021 46.519 58.2788C46.2756 58.5366 46.1323 58.9144 46.0894 59.4121H48.7964C48.7928 59.1149 48.7427 58.8517 48.646 58.6226C48.5529 58.3934 48.4097 58.2144 48.2163 58.0854C48.0265 57.9565 47.783 57.8921 47.4858 57.8921ZM55.4512 61.3027C55.4512 61.693 55.3563 62.0225 55.1665 62.291C54.9767 62.5596 54.6992 62.7637 54.334 62.9033C53.9723 63.0394 53.5283 63.1074 53.002 63.1074C52.5866 63.1074 52.2285 63.077 51.9277 63.0161C51.6305 62.9588 51.3494 62.8693 51.0845 62.7476V61.6572C51.3674 61.7897 51.6842 61.9043 52.0352 62.001C52.3896 62.0977 52.7244 62.146 53.0396 62.146C53.4549 62.146 53.7539 62.0815 53.9365 61.9526C54.1191 61.8201 54.2104 61.6447 54.2104 61.4263C54.2104 61.2974 54.1729 61.1828 54.0977 61.0825C54.026 60.9787 53.89 60.873 53.6895 60.7656C53.4925 60.6546 53.2025 60.5221 52.8193 60.3682C52.4434 60.2178 52.1265 60.0674 51.8687 59.917C51.6108 59.7666 51.4157 59.5858 51.2832 59.3745C51.1507 59.1597 51.0845 58.8857 51.0845 58.5527C51.0845 58.0264 51.2922 57.6271 51.7075 57.355C52.1265 57.0793 52.6797 56.9414 53.3672 56.9414C53.7324 56.9414 54.0762 56.979 54.3984 57.0542C54.7243 57.1258 55.043 57.2314 55.3545 57.3711L54.957 58.3218C54.6885 58.2036 54.4181 58.1069 54.146 58.0317C53.8774 57.953 53.6035 57.9136 53.3242 57.9136C52.9984 57.9136 52.7495 57.9637 52.5776 58.064C52.4093 58.1642 52.3252 58.3075 52.3252 58.4937C52.3252 58.6333 52.3664 58.7515 52.4487 58.8481C52.5311 58.9448 52.6725 59.0415 52.873 59.1382C53.0771 59.2349 53.36 59.3548 53.7217 59.498C54.0762 59.6341 54.3823 59.7773 54.6401 59.9277C54.9015 60.0745 55.1021 60.2554 55.2417 60.4702C55.3813 60.6851 55.4512 60.9626 55.4512 61.3027ZM58.0776 54.6426V56.7427C58.0776 56.9611 58.0705 57.1742 58.0562 57.3818C58.0454 57.5895 58.0329 57.7507 58.0186 57.8652H58.0884C58.2137 57.6576 58.3677 57.4875 58.5503 57.355C58.7329 57.2189 58.937 57.1169 59.1626 57.0488C59.3918 56.9808 59.6353 56.9468 59.8931 56.9468C60.3478 56.9468 60.7345 57.0238 61.0532 57.1777C61.3719 57.3281 61.6154 57.5627 61.7837 57.8813C61.9556 58.2 62.0415 58.6136 62.0415 59.1221V63H60.7793V59.3584C60.7793 58.8965 60.6844 58.5509 60.4946 58.3218C60.3049 58.089 60.0112 57.9727 59.6138 57.9727C59.2306 57.9727 58.9263 58.0532 58.7007 58.2144C58.4787 58.3719 58.3193 58.6064 58.2227 58.918C58.126 59.2259 58.0776 59.6019 58.0776 60.0459V63H56.8154V54.6426H58.0776ZM65.0708 57.0542V63H63.8086V57.0542H65.0708ZM64.4478 54.7769C64.6411 54.7769 64.8076 54.8288 64.9473 54.9326C65.0905 55.0365 65.1621 55.2155 65.1621 55.4697C65.1621 55.7204 65.0905 55.8994 64.9473 56.0068C64.8076 56.1107 64.6411 56.1626 64.4478 56.1626C64.2472 56.1626 64.0771 56.1107 63.9375 56.0068C63.8014 55.8994 63.7334 55.7204 63.7334 55.4697C63.7334 55.2155 63.8014 55.0365 63.9375 54.9326C64.0771 54.8288 64.2472 54.7769 64.4478 54.7769ZM69.9316 56.9414C70.637 56.9414 71.2028 57.1992 71.6289 57.7148C72.0586 58.2305 72.2734 58.9967 72.2734 60.0137C72.2734 60.6868 72.1732 61.2544 71.9727 61.7163C71.7757 62.1746 71.4982 62.522 71.1401 62.7583C70.7856 62.991 70.3721 63.1074 69.8994 63.1074C69.5986 63.1074 69.3372 63.068 69.1152 62.9893C68.8932 62.9105 68.7035 62.8084 68.5459 62.6831C68.3883 62.5542 68.2559 62.4146 68.1484 62.2642H68.0732C68.0911 62.4074 68.1073 62.5667 68.1216 62.7422C68.1395 62.9141 68.1484 63.0716 68.1484 63.2148V65.6372H66.8809V57.0542H67.9121L68.0894 57.876H68.1484C68.2594 57.7077 68.3937 57.5519 68.5513 57.4087C68.7124 57.2655 68.9058 57.1527 69.1313 57.0703C69.3605 56.9844 69.6273 56.9414 69.9316 56.9414ZM69.5933 57.9727C69.2459 57.9727 68.9666 58.0425 68.7554 58.1821C68.5477 58.3182 68.3955 58.5241 68.2988 58.7998C68.2057 59.0755 68.1556 59.4211 68.1484 59.8364V60.0137C68.1484 60.4541 68.1932 60.8283 68.2827 61.1362C68.3758 61.4406 68.528 61.6733 68.7393 61.8345C68.9541 61.992 69.2441 62.0708 69.6094 62.0708C69.9173 62.0708 70.1715 61.9867 70.3721 61.8184C70.5762 61.6501 70.7284 61.4102 70.8286 61.0986C70.9289 60.7871 70.979 60.4201 70.979 59.9976C70.979 59.3566 70.8644 58.8589 70.6353 58.5044C70.4097 58.1499 70.0623 57.9727 69.5933 57.9727ZM77.7305 61.3027C77.7305 61.693 77.6356 62.0225 77.4458 62.291C77.256 62.5596 76.9785 62.7637 76.6133 62.9033C76.2516 63.0394 75.8076 63.1074 75.2812 63.1074C74.8659 63.1074 74.5078 63.077 74.207 63.0161C73.9098 62.9588 73.6287 62.8693 73.3638 62.7476V61.6572C73.6466 61.7897 73.9635 61.9043 74.3145 62.001C74.6689 62.0977 75.0037 62.146 75.3188 62.146C75.7342 62.146 76.0332 62.0815 76.2158 61.9526C76.3984 61.8201 76.4897 61.6447 76.4897 61.4263C76.4897 61.2974 76.4521 61.1828 76.377 61.0825C76.3053 60.9787 76.1693 60.873 75.9688 60.7656C75.7718 60.6546 75.4818 60.5221 75.0986 60.3682C74.7227 60.2178 74.4058 60.0674 74.1479 59.917C73.8901 59.7666 73.695 59.5858 73.5625 59.3745C73.43 59.1597 73.3638 58.8857 73.3638 58.5527C73.3638 58.0264 73.5715 57.6271 73.9868 57.355C74.4058 57.0793 74.959 56.9414 75.6465 56.9414C76.0117 56.9414 76.3555 56.979 76.6777 57.0542C77.0036 57.1258 77.3223 57.2314 77.6338 57.3711L77.2363 58.3218C76.9678 58.2036 76.6974 58.1069 76.4253 58.0317C76.1567 57.953 75.8828 57.9136 75.6035 57.9136C75.2777 57.9136 75.0288 57.9637 74.8569 58.064C74.6886 58.1642 74.6045 58.3075 74.6045 58.4937C74.6045 58.6333 74.6457 58.7515 74.728 58.8481C74.8104 58.9448 74.9518 59.0415 75.1523 59.1382C75.3564 59.2349 75.6393 59.3548 76.001 59.498C76.3555 59.6341 76.6616 59.7773 76.9194 59.9277C77.1808 60.0745 77.3813 60.2554 77.521 60.4702C77.6606 60.6851 77.7305 60.9626 77.7305 61.3027Z" fill="#DB0000"/>
<g clip-path="url(#clip0_273_18127)">
<path d="M40.4668 16.6364H39.1014C39.022 16.3351 38.8726 16.0566 38.6653 15.8236C38.5285 15.6988 38.366 15.6053 38.1891 15.5498C38.0122 15.4943 37.8253 15.4781 37.6415 15.5023C37.427 15.5056 37.2152 15.5525 37.0195 15.6403C36.8239 15.728 36.6483 15.8548 36.5036 16.0127C36.1294 16.5261 35.9542 17.1573 36.0106 17.7895C36.0058 18.1742 36.0636 18.5571 36.1814 18.9235C36.2778 19.2337 36.4622 19.5094 36.7124 19.7174C36.974 19.929 37.3049 20.0368 37.6415 20.0199C37.8759 20.0252 38.1087 19.9801 38.3241 19.8875C38.5211 19.7929 38.6908 19.6497 38.8171 19.4716C38.9558 19.2656 39.0523 19.0344 39.1014 18.7912H40.4668C40.3926 19.2429 40.2247 19.6744 39.9738 20.0577C39.738 20.4262 39.4028 20.7209 39.0067 20.9082C38.5772 21.1208 38.1018 21.2247 37.6225 21.2107C37.0715 21.2234 36.5272 21.0861 36.0485 20.8137C35.58 20.5438 35.2086 20.1338 34.9868 19.6418C34.7182 19.0486 34.5884 18.4022 34.6074 17.7516C34.5873 17.0989 34.724 16.4509 35.0058 15.8614C35.2347 15.3681 35.6125 14.9584 36.0865 14.6895C36.5534 14.422 37.0841 14.2849 37.6225 14.2925C38.0487 14.2875 38.4723 14.358 38.8738 14.5006C39.199 14.6308 39.4956 14.8234 39.7462 15.0676C39.9625 15.2785 40.1363 15.5287 40.2582 15.8048C40.3806 16.0661 40.4514 16.3484 40.4668 16.6364Z" fill="#DB0000"/>
<path d="M42.9127 19.6797L42.4577 21.0406H40.9976L43.349 14.4817H44.9418L47.2551 21.0406H45.757L45.3399 19.6797H42.9127ZM44.1263 15.8993L43.2731 18.5078H44.9607L44.1453 15.8993H44.1263Z" fill="#DB0000"/>
<path d="M53.3987 14.4817V18.7535C53.4343 19.1011 53.3897 19.4521 53.2681 19.7797C53.1465 20.1074 52.9511 20.403 52.6971 20.6437C52.1564 21.062 51.4847 21.2761 50.8009 21.2485C50.4154 21.2475 50.0321 21.1903 49.6632 21.0784C49.291 20.9598 48.9572 20.7445 48.6962 20.4546C48.3421 20.0026 48.1606 19.44 48.1842 18.8669V14.5194H49.5873V18.7723C49.5724 18.9508 49.595 19.1305 49.6537 19.2998C49.7125 19.4691 49.8063 19.6242 49.9287 19.7553C50.035 19.8685 50.1646 19.9575 50.3086 20.0162C50.4526 20.075 50.6075 20.102 50.7629 20.0955C51.6541 20.0955 52.0904 19.6797 52.0904 18.848V14.5194L53.3987 14.4817Z" fill="#DB0000"/>
<path d="M57.5513 15.6347V21.0406H56.1669V15.6347H54.2708V14.4817H59.6181V15.6347H57.5513Z" fill="#DB0000"/>
<path d="M61.6091 14.4817V21.0406H60.2439V14.4817H61.6091Z" fill="#DB0000"/>
<path d="M62.5952 17.7706C62.5601 17.1226 62.6771 16.4754 62.9366 15.8804C63.1315 15.4642 63.4241 15.1011 63.7898 14.8219C64.0986 14.5978 64.4456 14.4313 64.8138 14.3304C65.4367 14.1789 66.0871 14.1789 66.71 14.3304C67.0782 14.4313 67.4252 14.5978 67.734 14.8219C68.0997 15.1011 68.3923 15.4642 68.5872 15.8804C69.0424 17.028 69.0424 18.3053 68.5872 19.4528C68.3924 19.8745 68.0921 20.239 67.715 20.5113C67.4062 20.7354 67.0593 20.9019 66.691 21.0028C66.0691 21.1629 65.4167 21.1629 64.7948 21.0028C64.4297 20.8937 64.0841 20.7279 63.7708 20.5113C63.3893 20.2357 63.0883 19.8639 62.8986 19.4339C62.6794 18.9075 62.5759 18.3402 62.5952 17.7706ZM63.9794 17.7706C63.9713 18.1431 64.0292 18.5143 64.1502 18.8669C64.2297 19.1305 64.3729 19.3707 64.5673 19.5663C64.7319 19.7351 64.933 19.8643 65.1552 19.9442C65.3485 20.0197 65.5543 20.0583 65.7619 20.0577C65.9754 20.0553 66.1869 20.0169 66.3876 19.9442C66.5971 19.8593 66.7899 19.7378 66.9565 19.5852C67.1466 19.3757 67.2946 19.1319 67.3926 18.8669C67.4968 18.5109 67.5479 18.1414 67.5442 17.7706C67.5497 17.3934 67.4987 17.0174 67.3926 16.6553C67.2946 16.3903 67.1466 16.1465 66.9565 15.937C66.793 15.7804 66.5994 15.6583 66.3876 15.5779C66.1869 15.5052 65.9754 15.4669 65.7619 15.4645C65.5543 15.4639 65.3485 15.5023 65.1552 15.5779C64.9353 15.6534 64.7346 15.776 64.5673 15.937C64.3766 16.1427 64.2341 16.388 64.1502 16.6553C64.0262 17.0137 63.9682 17.3916 63.9794 17.7706Z" fill="#DB0000"/>
<path d="M74.048 19.0559V14.4817H75.3186V21.0406H73.9531L71.2607 16.3719V21.0406H69.9712V14.4817H71.4313L74.048 19.0559Z" fill="#DB0000"/>
<path d="M37.6224 25.1611H36.9587L37.6793 23.1575H38.324L37.6224 25.1611Z" fill="#DB0000"/>
<path d="M38.9877 25.1611H38.343L39.0446 23.1575H39.7083L38.9877 25.1611Z" fill="#DB0000"/>
<path d="M40.372 25.1611H39.7273L40.4289 23.1575H41.0925L40.372 25.1611Z" fill="#DB0000"/>
<path d="M41.7372 25.1611H41.0925L41.8131 23.1575H42.4578L41.7372 25.1611Z" fill="#DB0000"/>
<path d="M43.1213 25.1611H42.4766L43.1971 23.1575H43.8418L43.1213 25.1611Z" fill="#DB0000"/>
<path d="M44.5055 25.1611H43.8608L44.5624 23.1575H45.2071L44.5055 25.1611Z" fill="#DB0000"/>
<path d="M45.8708 25.1611H45.2261L45.9466 23.1575H46.5913L45.8708 25.1611Z" fill="#DB0000"/>
<path d="M47.2551 25.1611H46.6104L47.3309 23.1575H47.9756L47.2551 25.1611Z" fill="#DB0000"/>
<path d="M48.6393 25.1611H47.9756L48.6961 23.1575H49.3408L48.6393 25.1611Z" fill="#DB0000"/>
<path d="M50.0046 25.1611H49.3599L50.0804 23.1575H50.7251L50.0046 25.1611Z" fill="#DB0000"/>
<path d="M51.3888 25.1611H50.7441L51.4457 23.1575H52.1094L51.3888 25.1611Z" fill="#DB0000"/>
<path d="M52.773 25.1611H52.1094L52.8299 23.1575H53.4746L52.773 25.1611Z" fill="#DB0000"/>
<path d="M54.1381 25.1611H53.4934L54.214 23.1575H54.8587L54.1381 25.1611Z" fill="#DB0000"/>
<path d="M55.5224 25.1611H54.8777L55.5793 23.1575H56.2429L55.5224 25.1611Z" fill="#DB0000"/>
<path d="M56.9066 25.1611H56.2429L56.9635 23.1575H57.6082L56.9066 25.1611Z" fill="#DB0000"/>
<path d="M58.2719 25.1611H57.6272L58.3477 23.1575H58.9925L58.2719 25.1611Z" fill="#DB0000"/>
<path d="M59.6562 25.1611H59.0115L59.7131 23.1575H60.3767L59.6562 25.1611Z" fill="#DB0000"/>
<path d="M61.0404 25.1611H60.3767L61.0973 23.1575H61.742L61.0404 25.1611Z" fill="#DB0000"/>
<path d="M62.4054 25.1611H61.7607L62.4813 23.1575H63.126L62.4054 25.1611Z" fill="#DB0000"/>
<path d="M63.7897 25.1611H63.145L63.8466 23.1575H64.5103L63.7897 25.1611Z" fill="#DB0000"/>
<path d="M65.1739 25.1611H64.5103L65.2308 23.1575H65.8755L65.1739 25.1611Z" fill="#DB0000"/>
<path d="M66.5392 25.1611H65.8945L66.6151 23.1575H67.2598L66.5392 25.1611Z" fill="#DB0000"/>
<path d="M67.9235 25.1611H67.2788L67.9804 23.1575H68.6441L67.9235 25.1611Z" fill="#DB0000"/>
<path d="M69.3077 25.1611H68.644L69.3646 23.1575H70.0093L69.3077 25.1611Z" fill="#DB0000"/>
<path d="M70.673 25.1611H70.0283L70.7489 23.1575H71.3936L70.673 25.1611Z" fill="#DB0000"/>
<path d="M72.0571 25.1611H71.4124L72.1139 23.1575H72.7776L72.0571 25.1611Z" fill="#DB0000"/>
<path d="M73.4412 25.1611H72.7776L73.4981 23.1575H74.1428L73.4412 25.1611Z" fill="#DB0000"/>
<path d="M74.8066 25.1611H74.1619L74.8824 23.1575H75.5271L74.8066 25.1611Z" fill="#DB0000"/>
<path d="M76.1908 25.1611H75.5461L76.2477 23.1575H76.9114L76.1908 25.1611Z" fill="#DB0000"/>
<path d="M33.5265 29.4329H13.882C13.4707 29.4242 13.0693 29.3063 12.7189 29.0914C12.3685 28.8765 12.0818 28.5724 11.8886 28.2104C11.6954 27.8483 11.6026 27.4415 11.6197 27.0318C11.6367 26.622 11.7632 26.2242 11.9859 25.8794L21.789 10.6067C21.9927 10.2878 22.2726 10.0241 22.6035 9.8394C22.9344 9.65468 23.306 9.55456 23.6852 9.5481C24.0637 9.55784 24.4341 9.65936 24.7645 9.84378C25.0949 10.0282 25.3752 10.2901 25.5813 10.6067L35.4416 25.8604C35.6594 26.2162 35.7745 26.625 35.7745 27.0418C35.7745 27.4586 35.6594 27.8674 35.4416 28.2232C35.2549 28.5729 34.9802 28.8683 34.6445 29.0804C34.3087 29.2924 33.9235 29.4139 33.5265 29.4329ZM23.6664 10.6444C23.4613 10.6434 23.2592 10.695 23.0799 10.7943C22.9005 10.8936 22.7499 11.0373 22.6424 11.2115L12.858 26.4653C12.7463 26.6543 12.6874 26.8697 12.6874 27.0891C12.6874 27.3085 12.7463 27.5239 12.858 27.7129C12.9676 27.9021 13.1253 28.0593 13.3149 28.1687C13.5046 28.2782 13.7198 28.3361 13.939 28.3366H33.5834C33.8049 28.3361 34.0221 28.2763 34.2123 28.1632C34.4025 28.0501 34.5585 27.888 34.6641 27.694C34.7762 27.5085 34.8354 27.2961 34.8354 27.0796C34.8354 26.8632 34.7762 26.6508 34.6641 26.4653L24.8041 11.2115C24.6873 11.0197 24.5183 10.8649 24.3171 10.7645C24.1158 10.6642 23.8904 10.6225 23.6664 10.6444Z" fill="#DB0000"/>
<path d="M33.5266 30V27.7885C33.6486 27.7903 33.7686 27.7575 33.8727 27.6939C33.9767 27.6303 34.0605 27.5386 34.1143 27.4294C34.1765 27.3302 34.2097 27.2156 34.2097 27.0986C34.2097 26.9816 34.1765 26.867 34.1143 26.7679L36.0105 25.5581C36.288 25.9938 36.4436 26.4956 36.4609 27.0114C36.4782 27.5272 36.3567 28.0382 36.1091 28.4915C35.8615 28.9447 35.4966 29.3236 35.0524 29.5888C34.6083 29.8541 34.1013 29.9961 33.5836 30H33.5266Z" fill="#DB0000"/>
<path d="M13.8823 29.9999C13.3651 29.9999 12.8572 29.8613 12.4123 29.5984C11.9673 29.3355 11.6015 28.958 11.3533 28.5056C11.1051 28.0533 10.9836 27.5426 11.0015 27.0273C11.0194 26.512 11.1761 26.0111 11.4552 25.5769L13.3513 26.7677C13.2891 26.8669 13.2562 26.9815 13.2562 27.0985C13.2562 27.2155 13.2891 27.3301 13.3513 27.4293C13.4052 27.5384 13.4889 27.6302 13.593 27.6938C13.6971 27.7574 13.8172 27.7901 13.9393 27.7884L13.8823 29.9999Z" fill="#DB0000"/>
<path d="M23.1166 11.495L21.2205 10.3041C21.48 9.89717 21.8386 9.56239 22.263 9.33101C22.6874 9.09964 23.1639 8.97919 23.6476 8.98098C24.1293 8.9789 24.6037 9.09718 25.0276 9.32501C25.4516 9.55285 25.8116 9.88297 26.0746 10.2852L24.1784 11.476C24.1189 11.3843 24.0375 11.3087 23.9416 11.2559C23.8456 11.2032 23.7382 11.1749 23.6286 11.1737C23.5235 11.1814 23.4216 11.2147 23.3324 11.2707C23.2431 11.3267 23.1691 11.4037 23.1166 11.495Z" fill="#DB0000"/>
<path d="M24.8612 17.9217L24.2543 23.1008H23.0976L22.491 17.9217V15.1052H24.8612V17.9217ZM24.8612 23.9891V26.1629H22.6046V23.9891H24.8612Z" fill="#DB0000"/>
<path d="M85.1787 25.9551C84.9935 25.9533 84.8117 25.9057 84.6495 25.8167C84.4874 25.7276 84.35 25.5998 84.2496 25.4447L75.9632 12.6292C75.8048 12.3785 75.7528 12.0754 75.8186 11.7865C75.8844 11.4976 76.0625 11.2466 76.3139 11.0887C76.5654 10.9308 76.8696 10.8789 77.1595 10.9445C77.4493 11.01 77.701 11.1877 77.8594 11.4384L86.1268 24.2539C86.2073 24.3736 86.263 24.5082 86.2904 24.6497C86.3178 24.7913 86.3163 24.9368 86.2862 25.0778C86.2562 25.2189 86.1982 25.3525 86.1154 25.4707C86.0326 25.5889 85.9267 25.6893 85.8043 25.766C85.6215 25.8943 85.4022 25.9606 85.1787 25.9551Z" fill="#DB0000"/>
<path d="M74.8634 11.1548H28.9568V11.7029H74.8634V11.1548Z" fill="#DB0000"/>
<path d="M78.2955 27.8074H37.6982V27.2593H78.068L80.9881 24.3484L81.3863 24.7264L78.2955 27.8074Z" fill="#DB0000"/>
<path d="M90.4501 25.4069H85.1786C85.0479 25.3828 84.9299 25.3139 84.8448 25.212C84.7598 25.1102 84.7131 24.9818 84.7131 24.8493C84.7131 24.7168 84.7598 24.5885 84.8448 24.4866C84.9299 24.3847 85.0479 24.3158 85.1786 24.2917H90.4501C90.5808 24.3158 90.6988 24.3847 90.7838 24.4866C90.8689 24.5885 90.9155 24.7168 90.9155 24.8493C90.9155 24.9818 90.8689 25.1102 90.7838 25.212C90.6988 25.3139 90.5808 25.3828 90.4501 25.4069Z" fill="#DB0000"/>
<path d="M86.3732 19.0559H81.1208C80.99 19.0318 80.872 18.9629 80.787 18.861C80.702 18.7591 80.6553 18.6308 80.6553 18.4983C80.6553 18.3658 80.702 18.2374 80.787 18.1356C80.872 18.0337 80.99 17.9647 81.1208 17.9406H86.3732C86.4553 17.9255 86.5397 17.9286 86.6204 17.9496C86.7012 17.9706 86.7764 18.0091 86.8406 18.0623C86.9047 18.1155 86.9563 18.1822 86.9917 18.2575C87.0271 18.3328 87.0454 18.4151 87.0454 18.4983C87.0454 18.5815 87.0271 18.6636 86.9917 18.7389C86.9563 18.8143 86.9047 18.8809 86.8406 18.9341C86.7764 18.9874 86.7012 19.0258 86.6204 19.0469C86.5397 19.0679 86.4553 19.071 86.3732 19.0559Z" fill="#DB0000"/>
<path d="M82.088 12.5913H76.8925C76.7618 12.5672 76.6437 12.4982 76.5587 12.3964C76.4737 12.2945 76.427 12.1662 76.427 12.0336C76.427 11.9011 76.4737 11.7729 76.5587 11.671C76.6437 11.5692 76.7618 11.5002 76.8925 11.4761H82.1639C82.2946 11.5002 82.4127 11.5692 82.4977 11.671C82.5827 11.7729 82.6294 11.9011 82.6294 12.0336C82.6294 12.1662 82.5827 12.2945 82.4977 12.3964C82.4127 12.4982 82.2946 12.5672 82.1639 12.5913H82.088Z" fill="#DB0000"/>
<path d="M47.748 27.5428L49.1133 28.9038H54.5933L55.9775 27.5239L47.748 27.5428Z" fill="#DB0000"/>
<path d="M35.6313 11.4384L37.9257 9.13232H45.6622L46.7999 10.2664H55.7119L56.8876 11.4384H35.6313Z" fill="#DB0000"/>
</g>
<defs>
<clipPath id="clip0_273_18127">
<rect width="80" height="21" fill="white" transform="translate(11 9)"/>
</clipPath>
</defs>
</svg>
