<svg width="25" height="30" viewBox="0 0 25 30" fill="none" xmlns="http://www.w3.org/2000/svg">
<path d="M23.4768 11.1172C23.6936 11.1172 23.9016 11.031 24.0549 10.8777C24.2082 10.7244 24.2943 10.5165 24.2943 10.2997C24.2943 10.0829 24.2082 9.87501 24.0549 9.72171C23.9016 9.56841 23.6936 9.48229 23.4768 9.48229H22.5368V1.63488H23.4768C23.6936 1.63488 23.9016 1.54876 24.0549 1.39546C24.2082 1.24216 24.2943 1.03424 24.2943 0.817439C24.2943 0.60064 24.2082 0.392723 24.0549 0.239423C23.9016 0.0861237 23.6936 0 23.4768 0H0.817439C0.60064 0 0.392723 0.0861237 0.239423 0.239423C0.0861237 0.392723 0 0.60064 0 0.817439C0 1.03424 0.0861237 1.24216 0.239423 1.39546C0.392723 1.54876 0.60064 1.63488 0.817439 1.63488H1.74932V9.48229H0.817439C0.60064 9.48229 0.392723 9.56841 0.239423 9.72171C0.0861237 9.87501 0 10.0829 0 10.2997C0 10.5165 0.0861237 10.7244 0.239423 10.8777C0.392723 11.031 0.60064 11.1172 0.817439 11.1172H1.74932V18.8828H0.817439C0.60064 18.8828 0.392723 18.969 0.239423 19.1223C0.0861237 19.2756 0 19.4835 0 19.7003C0 19.9171 0.0861237 20.125 0.239423 20.2783C0.392723 20.4316 0.60064 20.5177 0.817439 20.5177H1.74932V28.3651H0.817439C0.60064 28.3651 0.392723 28.4512 0.239423 28.6045C0.0861237 28.7578 0 28.9658 0 29.1826C0 29.3994 0.0861237 29.6073 0.239423 29.7606C0.392723 29.9139 0.60064 30 0.817439 30H23.4768C23.6936 30 23.9016 29.9139 24.0549 29.7606C24.2082 29.6073 24.2943 29.3994 24.2943 29.1826C24.2943 28.9658 24.2082 28.7578 24.0549 28.6045C23.9016 28.4512 23.6936 28.3651 23.4768 28.3651H22.5368V20.5177H23.4768C23.6936 20.5177 23.9016 20.4316 24.0549 20.2783C24.2082 20.125 24.2943 19.9171 24.2943 19.7003C24.2943 19.4835 24.2082 19.2756 24.0549 19.1223C23.9016 18.969 23.6936 18.8828 23.4768 18.8828H22.5368V11.1172H23.4768ZM12.1471 22.1117C10.739 22.1133 9.36192 21.6973 8.19017 20.9163C7.01841 20.1353 6.10456 19.0244 5.56418 17.724C5.0238 16.4237 4.88116 14.9923 5.1543 13.6108C5.42743 12.2294 6.10408 10.96 7.09867 9.96309C8.09326 8.96622 9.36112 8.28665 10.7419 8.01035C12.1227 7.73404 13.5545 7.87339 14.8561 8.41078C16.1577 8.94818 17.2707 9.85947 18.0544 11.0294C18.8381 12.1994 19.2572 13.5755 19.2589 14.9837C19.2589 16.8713 18.5101 18.6819 17.1769 20.0182C15.8436 21.3545 14.0348 22.1074 12.1471 22.1117V22.1117Z" fill="url(#paint0_linear_101_5336)"/>
<path d="M12.1472 9.51465C11.0624 9.51304 10.0015 9.83315 9.09855 10.4345C8.19565 11.0359 7.49135 11.8915 7.07471 12.8931C6.65807 13.8947 6.54781 14.9974 6.75786 16.0617C6.96791 17.126 7.48885 18.1041 8.2548 18.8724C9.02075 19.6406 9.99731 20.1645 11.061 20.3777C12.1246 20.5909 13.2277 20.4839 14.2305 20.0703C15.2334 19.6566 16.0911 18.9549 16.6951 18.0538C17.2992 17.1527 17.6225 16.0927 17.6241 15.0078V15.0078C17.6241 13.5538 17.0476 12.159 16.0209 11.1293C14.9943 10.0996 13.6013 9.51898 12.1472 9.51465V9.51465Z" fill="#4A3414"/>
<g clip-path="url(#clip0_101_5336)">
<path d="M14.0843 4.40234C14.0667 4.43363 13.3172 5.28473 13.3172 5.28473L8.52112 16.7009L12.7882 15.1458L9.44245 24.8802L10.7954 23.3157L17.4098 10.2176L12.6096 11.8541L14.0843 4.40234Z" fill="url(#paint1_linear_101_5336)"/>
<path style="mix-blend-mode:overlay" opacity="0.2" d="M14.0843 4.40234C14.0667 4.43363 13.3172 5.28473 13.3172 5.28473L8.52112 16.7009L12.7882 15.1458L9.44245 24.8802L10.7954 23.3157L17.4098 10.2176L12.6096 11.8541L14.0843 4.40234Z" fill="url(#paint2_linear_101_5336)"/>
<path d="M13.3173 5.28516C13.2469 5.40875 7.17096 18.2706 7.17096 18.2706L11.4381 16.7154L9.44522 24.8853L16.1949 11.7434L11.2568 13.4268L13.3173 5.28516Z" fill="url(#paint3_linear_101_5336)"/>
</g>
<defs>
<linearGradient id="paint0_linear_101_5336" x1="12.1471" y1="0" x2="12.1471" y2="30" gradientUnits="userSpaceOnUse">
<stop stop-color="#77590A"/>
<stop offset="1" stop-color="#8E3801"/>
</linearGradient>
<linearGradient id="paint1_linear_101_5336" x1="9.22058" y1="11.9761" x2="14.6624" y2="16.2398" gradientUnits="userSpaceOnUse">
<stop stop-color="#F2AB00"/>
<stop offset="0.06" stop-color="#F78900"/>
<stop offset="0.14" stop-color="#D46200"/>
<stop offset="0.26" stop-color="#9F4800"/>
<stop offset="0.36" stop-color="#9F4800"/>
<stop offset="0.4" stop-color="#BA5600"/>
<stop offset="0.52" stop-color="#F78900"/>
<stop offset="0.64" stop-color="#F78900"/>
<stop offset="0.73" stop-color="#D46200"/>
<stop offset="0.76" stop-color="#A74B00"/>
<stop offset="0.77" stop-color="#8B3D00"/>
<stop offset="0.99" stop-color="#8B3D00"/>
</linearGradient>
<linearGradient id="paint2_linear_101_5336" x1="9.22058" y1="11.9761" x2="14.6624" y2="16.2398" gradientUnits="userSpaceOnUse">
<stop stop-color="#F2AB00"/>
<stop offset="0.06" stop-color="#F78900"/>
<stop offset="0.14" stop-color="#D46200"/>
<stop offset="0.26" stop-color="#9F4800"/>
<stop offset="0.36" stop-color="#9F4800"/>
<stop offset="0.4" stop-color="#BA5600"/>
<stop offset="0.52" stop-color="#F78900"/>
<stop offset="0.64" stop-color="#F78900"/>
<stop offset="0.73" stop-color="#D46200"/>
<stop offset="0.76" stop-color="#A74B00"/>
<stop offset="0.77" stop-color="#8B3D00"/>
<stop offset="0.99" stop-color="#8B3D00"/>
</linearGradient>
<linearGradient id="paint3_linear_101_5336" x1="7.17096" y1="15.0821" x2="16.1949" y2="15.0821" gradientUnits="userSpaceOnUse">
<stop stop-color="#F8C109"/>
<stop offset="0.5" stop-color="#F88909"/>
<stop offset="1" stop-color="#F8C109"/>
</linearGradient>
<clipPath id="clip0_101_5336">
<rect width="10.2389" height="20.4778" fill="white" transform="translate(7.17096 4.40234)"/>
</clipPath>
</defs>
</svg>
