<svg width="89" height="101" viewBox="0 0 89 101" fill="none" xmlns="http://www.w3.org/2000/svg">
<path d="M88 75.2491V25.7491L44.5 1L1 25.7491V75.2491L44.5 100L88 75.2491Z" stroke="#353535" stroke-miterlimit="10" stroke-dasharray="2 2"/>
<path d="M17.7871 45.7676C17.7871 45.6152 17.7637 45.4785 17.7168 45.3574C17.6738 45.2324 17.5918 45.1191 17.4707 45.0176C17.3496 44.9121 17.1797 44.8086 16.9609 44.707C16.7422 44.6055 16.459 44.5 16.1113 44.3906C15.7246 44.2656 15.3574 44.125 15.0098 43.9688C14.666 43.8125 14.3613 43.6309 14.0957 43.4238C13.834 43.2129 13.627 42.9688 13.4746 42.6914C13.3262 42.4141 13.252 42.0918 13.252 41.7246C13.252 41.3691 13.3301 41.0469 13.4863 40.7578C13.6426 40.4648 13.8613 40.2148 14.1426 40.0078C14.4238 39.7969 14.7559 39.6348 15.1387 39.5215C15.5254 39.4082 15.9492 39.3516 16.4102 39.3516C17.0391 39.3516 17.5879 39.4648 18.0566 39.6914C18.5254 39.918 18.8887 40.2285 19.1465 40.623C19.4082 41.0176 19.5391 41.4688 19.5391 41.9766H17.793C17.793 41.7266 17.7402 41.5078 17.6348 41.3203C17.5332 41.1289 17.377 40.9785 17.166 40.8691C16.959 40.7598 16.6973 40.7051 16.3809 40.7051C16.0762 40.7051 15.8223 40.752 15.6191 40.8457C15.416 40.9355 15.2637 41.0586 15.1621 41.2148C15.0605 41.3672 15.0098 41.5391 15.0098 41.7305C15.0098 41.875 15.0449 42.0059 15.1152 42.123C15.1895 42.2402 15.2988 42.3496 15.4434 42.4512C15.5879 42.5527 15.7656 42.6484 15.9766 42.7383C16.1875 42.8281 16.4316 42.916 16.709 43.002C17.1738 43.1426 17.582 43.3008 17.9336 43.4766C18.2891 43.6523 18.5859 43.8496 18.8242 44.0684C19.0625 44.2871 19.2422 44.5352 19.3633 44.8125C19.4844 45.0898 19.5449 45.4043 19.5449 45.7559C19.5449 46.127 19.4727 46.459 19.3281 46.752C19.1836 47.0449 18.9746 47.293 18.7012 47.4961C18.4277 47.6992 18.1016 47.8535 17.7227 47.959C17.3438 48.0645 16.9199 48.1172 16.4512 48.1172C16.0293 48.1172 15.6133 48.0625 15.2031 47.9531C14.793 47.8398 14.4199 47.6699 14.084 47.4434C13.752 47.2168 13.4863 46.9277 13.2871 46.5762C13.0879 46.2246 12.9883 45.8086 12.9883 45.3281H14.752C14.752 45.5938 14.793 45.8184 14.875 46.002C14.957 46.1855 15.0723 46.334 15.2207 46.4473C15.373 46.5605 15.5527 46.6426 15.7598 46.6934C15.9707 46.7441 16.2012 46.7695 16.4512 46.7695C16.7559 46.7695 17.0059 46.7266 17.2012 46.6406C17.4004 46.5547 17.5469 46.4355 17.6406 46.2832C17.7383 46.1309 17.7871 45.959 17.7871 45.7676ZM24.0625 44.959H21.8887V43.5879H24.0625C24.3984 43.5879 24.6719 43.5332 24.8828 43.4238C25.0938 43.3105 25.248 43.1543 25.3457 42.9551C25.4434 42.7559 25.4922 42.5312 25.4922 42.2812C25.4922 42.0273 25.4434 41.791 25.3457 41.5723C25.248 41.3535 25.0938 41.1777 24.8828 41.0449C24.6719 40.9121 24.3984 40.8457 24.0625 40.8457H22.498V48H20.7402V39.4688H24.0625C24.7305 39.4688 25.3027 39.5898 25.7793 39.832C26.2598 40.0703 26.627 40.4004 26.8809 40.8223C27.1348 41.2441 27.2617 41.7266 27.2617 42.2695C27.2617 42.8203 27.1348 43.2969 26.8809 43.6992C26.627 44.1016 26.2598 44.4121 25.7793 44.6309C25.3027 44.8496 24.7305 44.959 24.0625 44.959ZM30.9707 40.9277L28.6504 48H26.7812L29.9512 39.4688H31.1406L30.9707 40.9277ZM32.8984 48L30.5723 40.9277L30.3848 39.4688H31.5859L34.7734 48H32.8984ZM32.793 44.8242V46.2012H28.2871V44.8242H32.793ZM40.4043 45.1699H42.1562C42.1211 45.7441 41.9629 46.2539 41.6816 46.6992C41.4043 47.1445 41.0156 47.4922 40.5156 47.7422C40.0195 47.9922 39.4219 48.1172 38.7227 48.1172C38.1758 48.1172 37.6855 48.0234 37.252 47.8359C36.8184 47.6445 36.4473 47.3711 36.1387 47.0156C35.834 46.6602 35.6016 46.2305 35.4414 45.7266C35.2812 45.2227 35.2012 44.6582 35.2012 44.0332V43.4414C35.2012 42.8164 35.2832 42.252 35.4473 41.748C35.6152 41.2402 35.8535 40.8086 36.1621 40.4531C36.4746 40.0977 36.8477 39.8242 37.2812 39.6328C37.7148 39.4414 38.1992 39.3457 38.7344 39.3457C39.4453 39.3457 40.0449 39.4746 40.5332 39.7324C41.0254 39.9902 41.4062 40.3457 41.6758 40.7988C41.9492 41.252 42.1133 41.7676 42.168 42.3457H40.4102C40.3906 42.002 40.3223 41.7109 40.2051 41.4727C40.0879 41.2305 39.9102 41.0488 39.6719 40.9277C39.4375 40.8027 39.125 40.7402 38.7344 40.7402C38.4414 40.7402 38.1855 40.7949 37.9668 40.9043C37.748 41.0137 37.5645 41.1797 37.416 41.4023C37.2676 41.625 37.1562 41.9062 37.082 42.2461C37.0117 42.582 36.9766 42.9766 36.9766 43.4297V44.0332C36.9766 44.4746 37.0098 44.8633 37.0762 45.1992C37.1426 45.5312 37.2441 45.8125 37.3809 46.043C37.5215 46.2695 37.7012 46.4414 37.9199 46.5586C38.1426 46.6719 38.4102 46.7285 38.7227 46.7285C39.0898 46.7285 39.3926 46.6699 39.6309 46.5527C39.8691 46.4355 40.0508 46.2617 40.1758 46.0312C40.3047 45.8008 40.3809 45.5137 40.4043 45.1699ZM49.0352 46.6289V48H44.4941V46.6289H49.0352ZM45.0684 39.4688V48H43.3105V39.4688H45.0684ZM48.4434 42.9434V44.2793H44.4941V42.9434H48.4434ZM49.0293 39.4688V40.8457H44.4941V39.4688H49.0293ZM54.502 45.7676C54.502 45.6152 54.4785 45.4785 54.4316 45.3574C54.3887 45.2324 54.3066 45.1191 54.1855 45.0176C54.0645 44.9121 53.8945 44.8086 53.6758 44.707C53.457 44.6055 53.1738 44.5 52.8262 44.3906C52.4395 44.2656 52.0723 44.125 51.7246 43.9688C51.3809 43.8125 51.0762 43.6309 50.8105 43.4238C50.5488 43.2129 50.3418 42.9688 50.1895 42.6914C50.041 42.4141 49.9668 42.0918 49.9668 41.7246C49.9668 41.3691 50.0449 41.0469 50.2012 40.7578C50.3574 40.4648 50.5762 40.2148 50.8574 40.0078C51.1387 39.7969 51.4707 39.6348 51.8535 39.5215C52.2402 39.4082 52.6641 39.3516 53.125 39.3516C53.7539 39.3516 54.3027 39.4648 54.7715 39.6914C55.2402 39.918 55.6035 40.2285 55.8613 40.623C56.123 41.0176 56.2539 41.4688 56.2539 41.9766H54.5078C54.5078 41.7266 54.4551 41.5078 54.3496 41.3203C54.248 41.1289 54.0918 40.9785 53.8809 40.8691C53.6738 40.7598 53.4121 40.7051 53.0957 40.7051C52.791 40.7051 52.5371 40.752 52.334 40.8457C52.1309 40.9355 51.9785 41.0586 51.877 41.2148C51.7754 41.3672 51.7246 41.5391 51.7246 41.7305C51.7246 41.875 51.7598 42.0059 51.8301 42.123C51.9043 42.2402 52.0137 42.3496 52.1582 42.4512C52.3027 42.5527 52.4805 42.6484 52.6914 42.7383C52.9023 42.8281 53.1465 42.916 53.4238 43.002C53.8887 43.1426 54.2969 43.3008 54.6484 43.4766C55.0039 43.6523 55.3008 43.8496 55.5391 44.0684C55.7773 44.2871 55.957 44.5352 56.0781 44.8125C56.1992 45.0898 56.2598 45.4043 56.2598 45.7559C56.2598 46.127 56.1875 46.459 56.043 46.752C55.8984 47.0449 55.6895 47.293 55.416 47.4961C55.1426 47.6992 54.8164 47.8535 54.4375 47.959C54.0586 48.0645 53.6348 48.1172 53.166 48.1172C52.7441 48.1172 52.3281 48.0625 51.918 47.9531C51.5078 47.8398 51.1348 47.6699 50.7988 47.4434C50.4668 47.2168 50.2012 46.9277 50.002 46.5762C49.8027 46.2246 49.7031 45.8086 49.7031 45.3281H51.4668C51.4668 45.5938 51.5078 45.8184 51.5898 46.002C51.6719 46.1855 51.7871 46.334 51.9355 46.4473C52.0879 46.5605 52.2676 46.6426 52.4746 46.6934C52.6855 46.7441 52.916 46.7695 53.166 46.7695C53.4707 46.7695 53.7207 46.7266 53.916 46.6406C54.1152 46.5547 54.2617 46.4355 54.3555 46.2832C54.4531 46.1309 54.502 45.959 54.502 45.7676ZM63.1445 42.9434V44.3145H58.6914V42.9434H63.1445ZM59.2129 39.4688V48H57.4551V39.4688H59.2129ZM64.3984 39.4688V48H62.6465V39.4688H64.3984ZM67.7969 39.4688V48H66.0449V39.4688H67.7969ZM72.7656 44.959H70.5918V43.5879H72.7656C73.1016 43.5879 73.375 43.5332 73.5859 43.4238C73.7969 43.3105 73.9512 43.1543 74.0488 42.9551C74.1465 42.7559 74.1953 42.5312 74.1953 42.2812C74.1953 42.0273 74.1465 41.791 74.0488 41.5723C73.9512 41.3535 73.7969 41.1777 73.5859 41.0449C73.375 40.9121 73.1016 40.8457 72.7656 40.8457H71.2012V48H69.4434V39.4688H72.7656C73.4336 39.4688 74.0059 39.5898 74.4824 39.832C74.9629 40.0703 75.3301 40.4004 75.584 40.8223C75.8379 41.2441 75.9648 41.7266 75.9648 42.2695C75.9648 42.8203 75.8379 43.2969 75.584 43.6992C75.3301 44.1016 74.9629 44.4121 74.4824 44.6309C74.0059 44.8496 73.4336 44.959 72.7656 44.959ZM35.2949 59.7676C35.2949 59.6152 35.2715 59.4785 35.2246 59.3574C35.1816 59.2324 35.0996 59.1191 34.9785 59.0176C34.8574 58.9121 34.6875 58.8086 34.4688 58.707C34.25 58.6055 33.9668 58.5 33.6191 58.3906C33.2324 58.2656 32.8652 58.125 32.5176 57.9688C32.1738 57.8125 31.8691 57.6309 31.6035 57.4238C31.3418 57.2129 31.1348 56.9688 30.9824 56.6914C30.834 56.4141 30.7598 56.0918 30.7598 55.7246C30.7598 55.3691 30.8379 55.0469 30.9941 54.7578C31.1504 54.4648 31.3691 54.2148 31.6504 54.0078C31.9316 53.7969 32.2637 53.6348 32.6465 53.5215C33.0332 53.4082 33.457 53.3516 33.918 53.3516C34.5469 53.3516 35.0957 53.4648 35.5645 53.6914C36.0332 53.918 36.3965 54.2285 36.6543 54.623C36.916 55.0176 37.0469 55.4688 37.0469 55.9766H35.3008C35.3008 55.7266 35.248 55.5078 35.1426 55.3203C35.041 55.1289 34.8848 54.9785 34.6738 54.8691C34.4668 54.7598 34.2051 54.7051 33.8887 54.7051C33.584 54.7051 33.3301 54.752 33.127 54.8457C32.9238 54.9355 32.7715 55.0586 32.6699 55.2148C32.5684 55.3672 32.5176 55.5391 32.5176 55.7305C32.5176 55.875 32.5527 56.0059 32.623 56.123C32.6973 56.2402 32.8066 56.3496 32.9512 56.4512C33.0957 56.5527 33.2734 56.6484 33.4844 56.7383C33.6953 56.8281 33.9395 56.916 34.2168 57.002C34.6816 57.1426 35.0898 57.3008 35.4414 57.4766C35.7969 57.6523 36.0938 57.8496 36.332 58.0684C36.5703 58.2871 36.75 58.5352 36.8711 58.8125C36.9922 59.0898 37.0527 59.4043 37.0527 59.7559C37.0527 60.127 36.9805 60.459 36.8359 60.752C36.6914 61.0449 36.4824 61.293 36.209 61.4961C35.9355 61.6992 35.6094 61.8535 35.2305 61.959C34.8516 62.0645 34.4277 62.1172 33.959 62.1172C33.5371 62.1172 33.1211 62.0625 32.7109 61.9531C32.3008 61.8398 31.9277 61.6699 31.5918 61.4434C31.2598 61.2168 30.9941 60.9277 30.7949 60.5762C30.5957 60.2246 30.4961 59.8086 30.4961 59.3281H32.2598C32.2598 59.5938 32.3008 59.8184 32.3828 60.002C32.4648 60.1855 32.5801 60.334 32.7285 60.4473C32.8809 60.5605 33.0605 60.6426 33.2676 60.6934C33.4785 60.7441 33.709 60.7695 33.959 60.7695C34.2637 60.7695 34.5137 60.7266 34.709 60.6406C34.9082 60.5547 35.0547 60.4355 35.1484 60.2832C35.2461 60.1309 35.2949 59.959 35.2949 59.7676ZM43.7324 60.6289V62H39.4375V60.6289H43.7324ZM40.0059 53.4688V62H38.248V53.4688H40.0059ZM51.3613 57.5352V57.9395C51.3613 58.5879 51.2734 59.1699 51.0977 59.6855C50.9219 60.2012 50.6738 60.6406 50.3535 61.0039C50.0332 61.3633 49.6504 61.6387 49.2051 61.8301C48.7637 62.0215 48.2734 62.1172 47.7344 62.1172C47.1992 62.1172 46.709 62.0215 46.2637 61.8301C45.8223 61.6387 45.4395 61.3633 45.1152 61.0039C44.791 60.6406 44.5391 60.2012 44.3594 59.6855C44.1836 59.1699 44.0957 58.5879 44.0957 57.9395V57.5352C44.0957 56.8828 44.1836 56.3008 44.3594 55.7891C44.5352 55.2734 44.7832 54.834 45.1035 54.4707C45.4277 54.1074 45.8105 53.8301 46.252 53.6387C46.6973 53.4473 47.1875 53.3516 47.7227 53.3516C48.2617 53.3516 48.752 53.4473 49.1934 53.6387C49.6387 53.8301 50.0215 54.1074 50.3418 54.4707C50.666 54.834 50.916 55.2734 51.0918 55.7891C51.2715 56.3008 51.3613 56.8828 51.3613 57.5352ZM49.5859 57.9395V57.5234C49.5859 57.0703 49.5449 56.6719 49.4629 56.3281C49.3809 55.9844 49.2598 55.6953 49.0996 55.4609C48.9395 55.2266 48.7441 55.0508 48.5137 54.9336C48.2832 54.8125 48.0195 54.752 47.7227 54.752C47.4258 54.752 47.1621 54.8125 46.9316 54.9336C46.7051 55.0508 46.5117 55.2266 46.3516 55.4609C46.1953 55.6953 46.0762 55.9844 45.9941 56.3281C45.9121 56.6719 45.8711 57.0703 45.8711 57.5234V57.9395C45.8711 58.3887 45.9121 58.7871 45.9941 59.1348C46.0762 59.4785 46.1973 59.7695 46.3574 60.0078C46.5176 60.2422 46.7129 60.4199 46.9434 60.541C47.1738 60.6621 47.4375 60.7227 47.7344 60.7227C48.0312 60.7227 48.2949 60.6621 48.5254 60.541C48.7559 60.4199 48.9492 60.2422 49.1055 60.0078C49.2617 59.7695 49.3809 59.4785 49.4629 59.1348C49.5449 58.7871 49.5859 58.3887 49.5859 57.9395ZM56.043 53.4688V62H54.291V53.4688H56.043ZM58.668 53.4688V54.8457H51.707V53.4688H58.668Z" fill="#444444"/>
</svg>
