<svg width="88" height="101" viewBox="0 0 88 101" fill="none" xmlns="http://www.w3.org/2000/svg">
<path d="M87 75.2491V25.7491L44 1L1 25.7491V75.2491L44 100L87 75.2491Z" stroke="#353535" stroke-miterlimit="10"/>
<path d="M68 15V33C68 36.3137 70.6863 39 74 39H87" stroke="#353535" stroke-miterlimit="10"/>
<path d="M79.0625 28.1V27.5C79.0625 26.66 78.375 26 77.5 26C76.625 26 75.9375 26.66 75.9375 27.5V28.1C75.4062 28.1 75 28.49 75 29V31.1C75 31.61 75.4062 32 75.9375 32H79.0625C79.5938 32 80 31.61 80 31.1V29C80 28.49 79.5938 28.1 79.0625 28.1ZM76.5625 27.5C76.5625 26.99 76.9688 26.6 77.5 26.6C78.0312 26.6 78.4375 26.99 78.4375 27.5V28.1H76.5625V27.5ZM77.8125 30.5C77.8125 30.68 77.6875 30.8 77.5 30.8C77.3125 30.8 77.1875 30.68 77.1875 30.5V29.6C77.1875 29.42 77.3125 29.3 77.5 29.3C77.6875 29.3 77.8125 29.42 77.8125 29.6V30.5Z" fill="#ffffff"/>
</svg>
