<svg width="858" height="615" viewBox="0 0 858 615" fill="none" xmlns="http://www.w3.org/2000/svg">
<g id="All-picking">
<g id="Group 308">
<g id="picking board">
<g id="outline">
<g id="Group 264">
<g id="Element 13">
<path id="Vector" d="M348.544 538.89L396.09 538.89L396.09 537.7L348.544 537.7L348.544 538.89Z" fill="#515151"/>
<path id="Vector_2" d="M89.4177 528.782L82.2858 535.917L79.9085 535.917L87.0404 528.782L89.4177 528.782Z" fill="#FBC115"/>
<path id="Vector_3" d="M84.6631 528.782L77.5312 535.917L75.1539 535.917L82.2858 528.782L84.6631 528.782Z" fill="#FBC115" fill-opacity="0.8"/>
<path id="Vector_4" d="M79.9084 528.782L72.7765 535.917L70.3992 535.917L77.5311 528.782L79.9084 528.782Z" fill="#FBC115" fill-opacity="0.6"/>
<path id="Vector_5" d="M75.1538 528.782L68.0219 535.917L65.6446 535.917L72.7765 528.782L75.1538 528.782Z" fill="#FBC115" fill-opacity="0.4"/>
<path id="Vector_6" d="M70.3992 528.782L63.2673 535.917L60.89 535.917L68.0219 528.782L70.3992 528.782Z" fill="#FBC115" fill-opacity="0.1"/>
<path id="Vector_7" d="M279.469 507.178L279.735 507.577L258.278 521.88L205.906 521.88L205.906 521.409L258.135 521.409L279.469 507.178Z" fill="#515151"/>
<path id="Vector_8" d="M353.456 306.394L2.40827 307.236L2.40825 537.582L86.9832 537.582L96.4924 528.068L277.847 528.068L296.866 556.608L324.3 556.608L324.3 547.509L343.319 528.482L343.319 519.711L344.745 519.649L344.745 529.077L325.726 548.103L325.726 558.035L296.105 558.035L277.087 529.495L97.0867 529.495L87.5775 539.009L0.991611 539.009L0.991631 305.809L181.934 305.809L353.456 306.394Z" fill="#515151"/>
<path id="Vector_9" d="M585.894 532.82L652.839 532.82L652.839 534.252L586.655 534.252L567.636 562.792L529.219 562.792L529.219 561.36L566.876 561.36L585.894 532.82Z" fill="#515151"/>
<path id="Vector_10" d="M462.654 538.89L510.2 538.89L510.2 537.7L462.654 537.7L462.654 538.89Z" fill="#515151"/>
<path id="Vector_11" d="M769.327 528.782L776.459 535.917L778.836 535.917L771.704 528.782L769.327 528.782Z" fill="#FBC115"/>
<path id="Vector_12" d="M774.081 528.782L781.213 535.917L783.59 535.917L776.458 528.782L774.081 528.782Z" fill="#FBC115" fill-opacity="0.8"/>
<path id="Vector_13" d="M778.836 528.782L785.967 535.917L788.345 535.917L781.213 528.782L778.836 528.782Z" fill="#FBC115" fill-opacity="0.6"/>
<path id="Vector_14" d="M783.59 528.782L790.722 535.917L793.1 535.917L785.968 528.782L783.59 528.782Z" fill="#FBC115" fill-opacity="0.4"/>
<path id="Vector_15" d="M788.345 528.782L795.477 535.917L797.854 535.917L790.722 528.782L788.345 528.782Z" fill="#FBC115" fill-opacity="0.1"/>
<path id="Vector_16" d="M506.058 306.436L856.585 307.279L856.585 537.623L772.136 537.623L762.641 528.11L581.554 528.11L562.564 556.65L535.17 556.65L535.17 547.55L516.18 528.524L516.18 519.753L514.756 519.691L514.756 529.118L533.746 548.145L533.746 558.077L563.323 558.077L582.314 529.537L762.047 529.537L771.542 539.05L858 539.05L858 305.852L677.326 305.852L506.058 306.436Z" fill="#515151"/>
</g>
</g>
<g id="Group 265">
<g id="Group 263">
<g id="Element 13_2">
<path id="Vector_17" d="M510.448 73.9019H462.902V75.091H510.448V73.9019Z" fill="#515151"/>
<path id="Vector_18" d="M769.574 84.01L776.706 76.875H779.083L771.952 84.01H769.574Z" fill="#FBC115"/>
<path id="Vector_19" d="M774.329 84.01L781.461 76.875H783.838L776.706 84.01H774.329Z" fill="#FBC115" fill-opacity="0.8"/>
<path id="Vector_20" d="M779.083 84.01L786.215 76.875H788.592L781.46 84.01H779.083Z" fill="#FBC115" fill-opacity="0.6"/>
<path id="Vector_21" d="M783.838 84.01L790.97 76.875H793.347L786.215 84.01H783.838Z" fill="#FBC115" fill-opacity="0.4"/>
<path id="Vector_22" d="M788.593 84.01L795.725 76.875H798.102L790.97 84.01H788.593Z" fill="#FBC115" fill-opacity="0.1"/>
<path id="Vector_23" d="M579.523 105.614L579.256 105.215L600.714 90.9116H653.086V91.3825H600.857L579.523 105.614Z" fill="#515151"/>
<path id="Vector_24" d="M505.536 306.398L856.583 305.556V75.2099H772.009L762.499 84.7232H581.144L562.126 56.1833H534.692V65.2827L515.673 84.3093V93.0806L514.247 93.1424V83.7147L533.265 64.6882V54.7563H562.886L581.905 83.2962H761.905L771.414 73.7829H858V306.983H677.058L505.536 306.398Z" fill="#515151"/>
<path id="Vector_25" d="M273.098 79.9716H206.153V78.5398H272.337L291.356 50H329.773V51.4317H292.116L273.098 79.9716Z" fill="#515151"/>
<path id="Vector_26" d="M396.337 73.9019H348.792V75.091H396.337V73.9019Z" fill="#515151"/>
<path id="Vector_27" d="M89.6652 84.01L82.5333 76.875H80.156L87.2879 84.01H89.6652Z" fill="#FBC115"/>
<path id="Vector_28" d="M84.9106 84.01L77.7787 76.875H75.4014L82.5333 84.01H84.9106Z" fill="#FBC115" fill-opacity="0.8"/>
<path id="Vector_29" d="M80.1559 84.01L73.024 76.875H70.6467L77.7786 84.01H80.1559Z" fill="#FBC115" fill-opacity="0.6"/>
<path id="Vector_30" d="M75.4013 84.01L68.2694 76.875H65.8921L73.024 84.01H75.4013Z" fill="#FBC115" fill-opacity="0.4"/>
<path id="Vector_31" d="M70.6467 84.01L63.5148 76.875H61.1375L68.2694 84.01H70.6467Z" fill="#FBC115" fill-opacity="0.1"/>
<path id="Vector_32" d="M352.934 306.356L2.40627 305.513V75.1688H86.8559L96.351 84.682H277.438L296.428 56.1423H323.821V65.2417L342.812 84.2681V93.0394L344.236 93.1012V83.6736L325.246 64.6471V54.7153H295.668L276.678 83.255H96.9445L87.4494 73.7418H0.991729V306.94H181.666L352.934 306.356Z" fill="#515151"/>
</g>
</g>
</g>
</g>
<g id="my-frame-active">
<path id="Vector_33" d="M334.881 557.322L339.635 557.322L339.635 547.809L334.881 547.809L334.881 557.322Z" fill="#0050DB"/>
<path id="Vector_34" d="M344.39 557.322L349.144 557.322L349.144 547.809L344.39 547.809L344.39 557.322Z" fill="#0050DB"/>
<path id="Vector_35" d="M353.899 557.322L358.654 557.322L358.654 547.809L353.899 547.809L353.899 557.322Z" fill="#0050DB"/>
<path id="Vector_36" d="M363.408 557.322L368.163 557.322L368.163 547.809L363.408 547.809L363.408 557.322Z" fill="#0050DB"/>
<path id="Vector_37" d="M372.917 557.322L377.672 557.322L377.672 547.809L372.917 547.809L372.917 557.322Z" fill="#0050DB"/>
<path id="Vector_38" d="M386.221 523.435L392.307 523.435L397.656 534.138L391.57 534.138L386.221 523.435ZM391.57 524.624L388.146 524.624L392.307 532.949L395.73 532.949L391.57 524.624Z" fill="#0050DB"/>
<path id="Vector_39" d="M376.712 523.435L382.798 523.435L388.146 534.138L382.061 534.138L376.712 523.435ZM382.061 524.624L378.637 524.624L382.798 532.949L386.221 532.949L382.061 524.624Z" fill="#0050DB" fill-opacity="0.7"/>
<path id="Vector_40" d="M367.202 523.435L373.288 523.435L378.637 534.138L372.551 534.138L367.202 523.435ZM372.551 524.624L369.128 524.624L373.288 532.949L376.712 532.949L372.551 524.624Z" fill="#0050DB" fill-opacity="0.4"/>
<path id="Vector_41" d="M357.693 523.435L363.779 523.435L369.128 534.138L363.042 534.138L357.693 523.435ZM363.042 524.624L359.619 524.624L363.779 532.949L367.202 532.949L363.042 524.624Z" fill="#0050DB" fill-opacity="0.1"/>
<path id="Vector_42" d="M346.767 528.782L349.144 528.782L349.144 519.269L346.767 519.269L346.767 528.782Z" fill="#0050DB"/>
<path id="Vector_43" d="M325.148 560.537L328.086 558.896L328.733 556.608L324.806 553.026L316.328 556.779L316 557.945L325.148 560.537Z" fill="#0050DB"/>
<path id="Vector_44" d="M520.31 557.322L525.065 557.322L525.065 547.809L520.31 547.809L520.31 557.322Z" fill="#0050DB"/>
<path id="Vector_45" d="M510.801 557.322L515.555 557.322L515.555 547.809L510.801 547.809L510.801 557.322Z" fill="#0050DB"/>
<path id="Vector_46" d="M501.292 557.322L506.046 557.322L506.046 547.809L501.292 547.809L501.292 557.322Z" fill="#0050DB"/>
<path id="Vector_47" d="M491.782 557.322L496.537 557.322L496.537 547.809L491.782 547.809L491.782 557.322Z" fill="#0050DB"/>
<path id="Vector_48" d="M482.273 557.322L487.028 557.322L487.028 547.809L482.273 547.809L482.273 557.322Z" fill="#0050DB"/>
<path id="Vector_49" d="M368.163 542.457L396.99 542.457L397.166 542.69L411.254 561.484L448.696 561.484L462.96 542.457L491.782 542.457L491.782 543.646L463.554 543.646L449.291 562.673L410.659 562.673L410.479 562.435L396.395 543.646L368.163 543.646L368.163 542.457Z" fill="#0050DB"/>
<path id="Vector_50" d="M467.643 523.435L473.729 523.435L468.38 534.138L462.295 534.138L467.643 523.435ZM471.804 524.624L468.38 524.624L464.22 532.949L467.643 532.949L471.804 524.624Z" fill="#0050DB"/>
<path id="Vector_51" d="M477.153 523.435L483.239 523.435L477.89 534.138L471.804 534.138L477.153 523.435ZM481.313 524.624L477.89 524.624L473.729 532.949L477.153 532.949L481.313 524.624Z" fill="#0050DB" fill-opacity="0.7"/>
<path id="Vector_52" d="M486.662 523.435L492.748 523.435L487.399 534.138L481.313 534.138L486.662 523.435ZM490.822 524.624L487.399 524.624L483.239 532.949L486.662 532.949L490.822 524.624Z" fill="#0050DB" fill-opacity="0.4"/>
<path id="Vector_53" d="M496.171 523.435L502.257 523.435L496.908 534.138L490.822 534.138L496.171 523.435ZM500.331 524.624L496.908 524.624L492.748 532.949L496.171 532.949L500.331 524.624Z" fill="#0050DB" fill-opacity="0.1"/>
<path id="Vector_54" d="M513.178 519.269L510.801 519.269L510.801 528.782L513.178 528.782L513.178 519.269Z" fill="#0050DB"/>
<path id="Vector_55" d="M534.797 560.537L531.859 558.896L531.213 556.608L535.14 553.026L543.617 556.779L543.945 557.945L534.797 560.537Z" fill="#0050DB"/>
</g>
<g id="enemy-frame-active">
<path id="Vector_56" d="M524.712 55.4707H519.957V64.984H524.712V55.4707Z" fill="#DB0000"/>
<path id="Vector_57" d="M515.202 55.4707H510.448V64.984H515.202V55.4707Z" fill="#DB0000"/>
<path id="Vector_58" d="M505.693 55.4707H500.939V64.984H505.693V55.4707Z" fill="#DB0000"/>
<path id="Vector_59" d="M496.184 55.4707H491.429V64.984H496.184V55.4707Z" fill="#DB0000"/>
<path id="Vector_60" d="M486.675 55.4707H481.92V64.984H486.675V55.4707Z" fill="#DB0000"/>
<path id="Vector_61" d="M512.825 84.0103H510.448V93.5235H512.825V84.0103Z" fill="#DB0000"/>
<path id="Vector_62" d="M534.444 52.2549L531.506 53.8959L530.859 56.1839L534.787 59.7656L543.264 56.0126L543.592 54.8473L534.444 52.2549Z" fill="#DB0000"/>
<path id="Vector_63" d="M339.282 55.4707H334.528V64.984H339.282V55.4707Z" fill="#DB0000"/>
<path id="Vector_64" d="M348.791 55.4707H344.037V64.984H348.791V55.4707Z" fill="#DB0000"/>
<path id="Vector_65" d="M358.301 55.4707H353.546V64.984H358.301V55.4707Z" fill="#DB0000"/>
<path id="Vector_66" d="M367.81 55.4707H363.055V64.984H367.81V55.4707Z" fill="#DB0000"/>
<path id="Vector_67" d="M377.319 55.4707H372.564V64.984H377.319V55.4707Z" fill="#DB0000"/>
<path id="Vector_68" d="M491.62 70.3348H462.793L462.617 70.1018L448.529 51.3083H411.086L396.822 70.3348H368V69.1457H396.228L410.492 50.1191H449.123L449.304 50.357L463.387 69.1457H491.62V70.3348Z" fill="#DB0000"/>
<path id="Vector_69" d="M346.414 93.5234H348.792V84.0102H346.414V93.5234Z" fill="#DB0000"/>
<path id="Vector_70" d="M324.795 52.2549L327.733 53.8959L328.38 56.1839L324.452 59.7656L315.975 56.0126L315.647 54.8473L324.795 52.2549Z" fill="#DB0000"/>
<path id="Vector_71" d="M473.372 89.3567H467.286L461.937 78.6543H468.023L473.372 89.3567ZM468.023 88.1676H471.446L467.286 79.8435H463.862L468.023 88.1676Z" fill="#DB0000"/>
<path id="Vector_72" d="M482.881 89.3567H476.795L471.446 78.6543H477.532L482.881 89.3567ZM477.532 88.1676H480.955L476.795 79.8435H473.371L477.532 88.1676Z" fill="#DB0000" fill-opacity="0.7"/>
<path id="Vector_73" d="M492.39 89.3567H486.304L480.955 78.6543H487.041L492.39 89.3567ZM487.041 88.1676H490.464L486.304 79.8435H482.881L487.041 88.1676Z" fill="#DB0000" fill-opacity="0.4"/>
<path id="Vector_74" d="M501.899 89.3567H495.813L490.464 78.6543H496.55L501.899 89.3567ZM496.55 88.1676H499.974L495.813 79.8435H492.39L496.55 88.1676Z" fill="#DB0000" fill-opacity="0.1"/>
<path id="Vector_75" d="M391.949 89.3567H385.863L391.212 78.6543H397.298L391.949 89.3567ZM387.788 88.1676H391.212L395.372 79.8435H391.949L387.788 88.1676Z" fill="#DB0000"/>
<path id="Vector_76" d="M382.44 89.3567H376.354L381.703 78.6543H387.789L382.44 89.3567ZM378.279 88.1676H381.703L385.863 79.8435H382.44L378.279 88.1676Z" fill="#DB0000" fill-opacity="0.7"/>
<path id="Vector_77" d="M372.93 89.3567H366.844L372.193 78.6543H378.279L372.93 89.3567ZM368.77 88.1676H372.193L376.354 79.8435H372.93L368.77 88.1676Z" fill="#DB0000" fill-opacity="0.4"/>
<path id="Vector_78" d="M363.421 89.3567H357.335L362.684 78.6543H368.77L363.421 89.3567ZM359.261 88.1676H362.684L366.845 79.8435H363.421L359.261 88.1676Z" fill="#DB0000" fill-opacity="0.1"/>
</g>
<g id="enemy-picking">
<path id="--" d="M427.437 540.009V542.768H420.54V540.009H427.437ZM437.301 540.009V542.768H430.404V540.009H437.301Z" fill="#515151"/>
<g id="Group 276">
<g id="Group 93">
<path id="Vector_79" d="M487.961 315.018L487.961 313.995L495.934 313.995L504.12 305.809L668.047 305.809L668.047 306.832L504.545 306.832L496.36 315.018L487.961 315.018Z" fill="#515151"/>
<path id="Vector_80" d="M190.647 306.832L190.647 305.809L354.574 305.809L362.76 313.994L370.732 313.994L370.732 315.018L362.334 315.018L354.148 306.832L190.647 306.832Z" fill="#515151"/>
</g>
<g id="Group 271">
<g id="Group 270">
<path id="Vector_81" d="M480.158 305.035C479.063 294.313 474.727 284.179 467.728 275.983L468.734 275.121C475.907 283.522 480.352 293.909 481.476 304.899L480.158 305.035Z" fill="#DB0000"/>
<path id="Vector_82" d="M470.989 279.852C470.106 279.698 469.211 279.577 468.344 279.462C466.557 277.095 464.57 274.886 462.405 272.859C463.373 272.787 464.291 272.808 465.286 272.793C467.313 274.83 469.167 277.032 470.83 279.376C470.892 279.535 470.949 279.69 470.989 279.852Z" fill="#DB0000"/>
<path id="Vector_83" d="M458.13 268.542L457.068 267.758L459.379 264.444L460.524 265.286L458.13 268.542Z" fill="#DB0000"/>
<path id="Vector_84" d="M424.927 257.257C414.162 257.8 403.816 261.603 395.263 268.162L394.455 267.11C403.221 260.387 413.826 256.49 424.86 255.936L424.927 257.257Z" fill="#DB0000"/>
<path id="Vector_85" d="M374.326 305.594L373.995 305.567C374.53 299.017 376.279 292.624 379.153 286.714C382.027 280.807 385.943 275.468 390.714 270.952L390.941 271.191C386.2 275.681 382.308 280.988 379.449 286.858C376.595 292.732 374.857 299.085 374.326 305.594V305.594Z" fill="#DB0000"/>
<path id="Vector_86" d="M374.234 304.726C374.502 304.752 374.749 304.882 374.921 305.088C375.094 305.294 375.179 305.56 375.158 305.828C375.132 306.096 375.004 306.344 374.8 306.519C374.596 306.694 374.331 306.784 374.063 306.769C373.928 306.76 373.797 306.725 373.677 306.664C373.557 306.603 373.45 306.519 373.363 306.416C373.277 306.313 373.212 306.193 373.173 306.064C373.134 305.935 373.121 305.8 373.136 305.666C373.144 305.532 373.18 305.4 373.24 305.28C373.3 305.159 373.384 305.052 373.486 304.964C373.589 304.876 373.708 304.81 373.836 304.769C373.965 304.728 374.1 304.714 374.234 304.726V304.726Z" fill="#DB0000"/>
<path id="Vector_87" d="M391.588 270.385C391.678 270.483 391.747 270.597 391.792 270.722C391.837 270.846 391.856 270.979 391.85 271.111C391.844 271.243 391.812 271.373 391.755 271.493C391.699 271.613 391.62 271.72 391.522 271.81C391.425 271.901 391.31 271.972 391.186 272.02C391.061 272.067 390.929 272.089 390.795 272.085C390.662 272.081 390.531 272.051 390.41 271.996C390.288 271.942 390.179 271.864 390.087 271.767C389.996 271.67 389.924 271.556 389.877 271.431C389.83 271.306 389.808 271.174 389.812 271.041C389.816 270.907 389.846 270.776 389.9 270.655C389.955 270.533 390.033 270.424 390.13 270.332C390.229 270.24 390.345 270.168 390.472 270.12C390.599 270.073 390.735 270.051 390.87 270.056C391.006 270.061 391.139 270.092 391.262 270.149C391.385 270.205 391.496 270.285 391.588 270.385Z" fill="#DB0000"/>
<path id="Vector_88" d="M394.455 267.108C394.547 266.446 394.658 265.781 394.789 265.113C399.383 261.767 404.463 259.145 409.851 257.337C410.595 257.685 411.316 258.061 412.041 258.434L411.382 258.671L410.621 258.941L409.645 259.335C408.935 259.627 408.097 259.952 407.231 260.374L405.891 260.998L404.54 261.709C402.869 262.585 401.246 263.549 399.677 264.596C399.016 265.002 398.502 265.407 398.119 265.666C397.735 265.926 397.509 266.089 397.479 266.097L396.906 266.259L395.893 266.606L394.455 267.108Z" fill="#DB0000"/>
<path id="Vector_89" d="M424.86 255.933L424.93 255.993L425.766 256.736L426.596 257.524C429.296 257.463 431.997 257.62 434.672 257.993L435.109 258.546C435.321 258.819 435.518 259.091 435.479 259.085L433.728 258.842C433.208 258.77 432.603 258.736 431.954 258.67L430.958 258.582C430.617 258.556 430.27 258.552 429.925 258.535C428.543 258.456 427.161 258.486 426.126 258.496C425.608 258.502 425.18 258.546 424.865 258.555L424.392 258.583C423.86 258.102 423.316 257.607 422.758 257.16L424.86 255.933Z" fill="#DB0000"/>
<path id="Vector_90" d="M443.135 260.88L441.871 260.513L442.993 256.633L444.357 257.029L443.135 260.88Z" fill="#DB0000"/>
<path id="Vector_91" d="M450.361 263.794L449.167 263.24L450.863 259.575C451.293 259.772 451.726 259.967 452.151 260.173L450.361 263.794Z" fill="#DB0000"/>
<path id="Vector_92" d="M457.068 267.759L455.969 267.033L458.195 263.663L459.379 264.445L457.068 267.759Z" fill="#DB0000"/>
</g>
<path id="Vector_93" d="M428.501 273.051L428.455 273L428.455 273.102L421 281.542L421 286L428.501 277.509L436 286L436 281.542L428.545 273.102L428.545 273L428.501 273.051Z" fill="#DB0000"/>
</g>
</g>
</g>
<g id="me-picking">
<g id="Group 274">
<g id="Group 271_2">
<g id="Group 270_2">
<path id="Vector_94" d="M480.158 308.192C479.063 318.914 474.727 329.048 467.728 337.244L468.734 338.106C475.908 329.704 480.352 319.318 481.476 308.328L480.158 308.192Z" fill="#0050DB"/>
<path id="Vector_95" d="M470.989 333.375C470.106 333.529 469.212 333.65 468.344 333.764C466.558 336.132 464.571 338.341 462.405 340.367C463.374 340.439 464.291 340.418 465.286 340.433C467.313 338.397 469.167 336.195 470.83 333.851C470.893 333.692 470.949 333.537 470.989 333.375Z" fill="#0050DB"/>
<path id="Vector_96" d="M458.13 344.685L457.068 345.468L459.38 348.782L460.524 347.94L458.13 344.685Z" fill="#0050DB"/>
<path id="Vector_97" d="M424.927 355.969C414.162 355.426 403.817 351.623 395.264 345.064L394.455 346.116C403.222 352.839 413.826 356.736 424.86 357.29L424.927 355.969Z" fill="#0050DB"/>
<path id="Vector_98" d="M374.326 307.633L373.995 307.66C374.53 314.21 376.279 320.603 379.153 326.513C382.027 332.419 385.944 337.759 390.714 342.274L390.941 342.036C386.2 337.546 382.308 332.239 379.45 326.368C376.595 320.495 374.858 314.142 374.326 307.633V307.633Z" fill="#0050DB"/>
<path id="Vector_99" d="M374.234 308.501C374.502 308.474 374.749 308.344 374.922 308.138C375.094 307.932 375.179 307.666 375.158 307.398C375.132 307.13 375.004 306.883 374.8 306.708C374.596 306.532 374.332 306.443 374.063 306.458C373.929 306.466 373.797 306.502 373.677 306.563C373.557 306.623 373.45 306.708 373.364 306.811C373.277 306.914 373.212 307.033 373.173 307.162C373.134 307.291 373.121 307.427 373.136 307.56C373.145 307.695 373.18 307.826 373.24 307.947C373.3 308.068 373.384 308.175 373.487 308.263C373.589 308.35 373.708 308.416 373.836 308.457C373.965 308.498 374.1 308.513 374.234 308.501V308.501Z" fill="#0050DB"/>
<path id="Vector_100" d="M391.589 342.842C391.678 342.744 391.747 342.629 391.792 342.505C391.837 342.38 391.857 342.248 391.851 342.116C391.844 341.983 391.812 341.853 391.756 341.734C391.699 341.614 391.62 341.506 391.522 341.417C391.425 341.326 391.311 341.254 391.186 341.207C391.062 341.16 390.929 341.137 390.796 341.141C390.663 341.145 390.531 341.176 390.41 341.23C390.288 341.285 390.179 341.363 390.087 341.46C389.996 341.557 389.925 341.671 389.877 341.795C389.83 341.92 389.808 342.053 389.812 342.186C389.816 342.319 389.846 342.45 389.901 342.572C389.955 342.693 390.033 342.803 390.13 342.894C390.229 342.987 390.346 343.059 390.473 343.106C390.6 343.154 390.735 343.176 390.87 343.171C391.006 343.166 391.139 343.134 391.262 343.078C391.386 343.021 391.496 342.941 391.589 342.842Z" fill="#0050DB"/>
<path id="Vector_101" d="M394.455 346.119C394.547 346.781 394.659 347.446 394.789 348.115C399.383 351.46 404.463 354.082 409.851 355.89C410.595 355.542 411.316 355.166 412.041 354.793L411.382 354.556L410.621 354.286L409.646 353.892C408.935 353.6 408.098 353.275 407.231 352.853L405.892 352.229L404.54 351.518C402.869 350.642 401.246 349.678 399.677 348.631C399.016 348.225 398.503 347.82 398.119 347.561C397.735 347.301 397.509 347.138 397.48 347.13L396.906 346.968L395.893 346.621L394.455 346.119Z" fill="#0050DB"/>
<path id="Vector_102" d="M424.861 357.293L424.931 357.233L425.767 356.491L426.596 355.702C429.297 355.764 431.997 355.607 434.673 355.233L435.109 354.681C435.322 354.407 435.519 354.136 435.479 354.141L433.728 354.385C433.209 354.457 432.603 354.491 431.954 354.556L430.958 354.645C430.617 354.67 430.271 354.674 429.925 354.691C428.543 354.771 427.161 354.741 426.126 354.731C425.609 354.725 425.18 354.681 424.865 354.672L424.392 354.643C423.861 355.124 423.316 355.62 422.758 356.067L424.861 357.293Z" fill="#0050DB"/>
<path id="Vector_103" d="M443.136 352.347L441.871 352.714L442.993 356.594L444.357 356.198L443.136 352.347Z" fill="#0050DB"/>
<path id="Vector_104" d="M450.361 349.432L449.167 349.986L450.863 353.652C451.293 353.455 451.726 353.26 452.152 353.053L450.361 349.432Z" fill="#0050DB"/>
<path id="Vector_105" d="M457.068 345.468L455.97 346.194L458.195 349.564L459.38 348.782L457.068 345.468Z" fill="#0050DB"/>
</g>
<path id="Vector_106" d="M428.501 340.176L428.455 340.227L428.455 340.125L421 331.685L421 327.227L428.501 335.717L436 327.227L436 331.685L428.545 340.125L428.545 340.227L428.501 340.176Z" fill="#0050DB"/>
</g>
<g id="Group 93_2">
<path id="Vector_107" d="M487.961 298L487.961 299.023L495.934 299.023L504.12 307.209L668 307L668 305.977L504.546 306.186L496.36 298L487.961 298Z" fill="#515151"/>
<path id="Vector_108" d="M190.647 305.793L190.647 306.894L354.574 307.209L362.76 299.023L370.733 299.023L370.733 298L362.334 298L354.148 306.186L190.647 305.793Z" fill="#515151"/>
</g>
</g>
<path id="--_2" d="M427.438 70.9912V73.75H420.541V70.9912H427.438ZM437.301 70.9912V73.75H430.404V70.9912H437.301Z" fill="#515151"/>
</g>
<path id="picking" d="M404.686 297.124L404.322 308.604L403.034 309.164L402.278 309.5L400.626 310.228V310.2L398.666 311.012H396.594L396.398 315.828H392.842L393.542 297.124H395.446H397.182H401.046H403.286H404.686ZM398.666 307.26L400.738 306.364L400.906 300.708H397.042L396.762 307.26H398.666ZM409.14 315.856H405.5L406.144 297.096H409.784L409.14 315.856ZM414.062 315.856H410.45L411.066 297.124H414.706L414.062 315.856ZM411.878 315.856L410.506 314.12L419.606 310.2V313.98L415.266 315.856H411.878ZM412.662 300.736V297.124H420.502L420.138 300.736H412.662ZM424.584 315.856H420.944L421.588 297.124H425.228L424.584 315.856ZM422.848 311.18L422.26 306.476L429.484 297.152H434.468L422.848 311.18ZM424.836 302.864L433.236 315.856H429.204L423.492 307.148L424.836 302.864ZM438.343 315.856H434.703L435.347 297.096H438.987L438.343 315.856ZM443.265 315.856H439.625L440.297 297.124H443.937L443.265 315.856ZM451.833 315.856H448.193L448.865 297.124H452.505L451.833 315.856ZM452.309 303.088L451.609 304.236L443.601 300.764L443.937 297.124L452.085 300.652L452.309 303.088ZM464.13 313.196L460.49 314.736L460.686 305.272H464.326L464.13 313.196ZM456.766 315.856H453.154L453.798 297.124H457.438L456.766 315.856ZM454.582 315.856L453.21 314.12L461.694 310.424V314.232L457.97 315.856H454.582ZM455.646 300.736V297.124H464.466L464.326 300.736H455.646Z" fill="#0050DB"/>
</g>
</g>
<g id="My-HUD">
<path id="Vector_109" d="M262.8 585L359.745 585L359.745 586.432L263.56 586.432L244.542 614.972L206.125 614.972L206.125 613.54L243.781 613.54L262.8 585Z" fill="#515151"/>
<path id="Vector_110" d="M98.0185 614.971H243.963V613.539H131.871H98.7792L89.7608 601L89.0001 546.568V548V602.431L98.0185 614.971Z" fill="#515151"/>
<path id="Vector_111" d="M595.945 585L499 585L499 586.432L595.184 586.432L614.203 614.972L652.62 614.972L652.62 613.54L614.963 613.54L595.945 585Z" fill="#515151"/>
<path id="Vector_112" d="M760.945 614.971H615V613.539H727.092H760.184L769.203 601L769.963 546.568V548V602.431L760.945 614.971Z" fill="#515151"/>
<g id="my-user-name">
<path id="e" d="M675.579 572.616L675.643 570.424H679.995L679.883 572.616H675.579ZM675.739 568.12V566.04H680.219L680.123 568.12H675.739ZM675.915 563.992V561.912H680.475L680.363 563.992H675.915ZM676.763 572.616H674.683L675.035 561.928H677.115L676.763 572.616Z" fill="#0050DB"/>
</g>
<g id="my-address">
<path id="5" d="M676.33 582.813L675.463 582.59L675.891 578.342H680.268V579.344H676.811L676.553 581.665C676.709 581.575 676.906 581.491 677.145 581.413C677.387 581.334 677.664 581.295 677.977 581.295C678.371 581.295 678.725 581.364 679.037 581.5C679.35 581.633 679.615 581.825 679.834 582.075C680.057 582.325 680.227 582.625 680.344 582.977C680.461 583.329 680.52 583.721 680.52 584.155C680.52 584.565 680.463 584.942 680.35 585.286C680.24 585.629 680.074 585.93 679.852 586.188C679.629 586.442 679.348 586.639 679.008 586.78C678.672 586.92 678.275 586.991 677.818 586.991C677.475 586.991 677.148 586.944 676.84 586.85C676.535 586.752 676.262 586.606 676.02 586.411C675.781 586.211 675.586 585.965 675.434 585.672C675.285 585.375 675.191 585.028 675.152 584.629H676.184C676.23 584.95 676.324 585.219 676.465 585.438C676.605 585.657 676.789 585.823 677.016 585.936C677.246 586.045 677.514 586.1 677.818 586.1C678.076 586.1 678.305 586.055 678.504 585.965C678.703 585.875 678.871 585.747 679.008 585.579C679.145 585.411 679.248 585.208 679.318 584.969C679.393 584.731 679.43 584.463 679.43 584.167C679.43 583.897 679.393 583.647 679.318 583.417C679.244 583.186 679.133 582.985 678.984 582.813C678.84 582.641 678.662 582.508 678.451 582.415C678.24 582.317 677.998 582.268 677.725 582.268C677.361 582.268 677.086 582.317 676.898 582.415C676.715 582.512 676.525 582.645 676.33 582.813Z" fill="white"/>
</g>
<g id="set your formation">
<path id="set your formation_2" d="M383.785 586.844C383.785 586.645 383.754 586.469 383.691 586.316C383.633 586.16 383.527 586.02 383.375 585.895C383.227 585.77 383.02 585.65 382.754 585.537C382.492 585.424 382.16 585.309 381.758 585.191C381.336 585.066 380.955 584.928 380.615 584.775C380.275 584.619 379.984 584.441 379.742 584.242C379.5 584.043 379.314 583.814 379.186 583.557C379.057 583.299 378.992 583.004 378.992 582.672C378.992 582.34 379.061 582.033 379.197 581.752C379.334 581.471 379.529 581.227 379.783 581.02C380.041 580.809 380.348 580.645 380.703 580.527C381.059 580.41 381.455 580.352 381.893 580.352C382.533 580.352 383.076 580.475 383.521 580.721C383.971 580.963 384.312 581.281 384.547 581.676C384.781 582.066 384.898 582.484 384.898 582.93H383.773C383.773 582.609 383.705 582.326 383.568 582.08C383.432 581.83 383.225 581.635 382.947 581.494C382.67 581.35 382.318 581.277 381.893 581.277C381.49 581.277 381.158 581.338 380.896 581.459C380.635 581.58 380.439 581.744 380.311 581.951C380.186 582.158 380.123 582.395 380.123 582.66C380.123 582.84 380.16 583.004 380.234 583.152C380.312 583.297 380.432 583.432 380.592 583.557C380.756 583.682 380.963 583.797 381.213 583.902C381.467 584.008 381.77 584.109 382.121 584.207C382.605 584.344 383.023 584.496 383.375 584.664C383.727 584.832 384.016 585.021 384.242 585.232C384.473 585.439 384.643 585.676 384.752 585.941C384.865 586.203 384.922 586.5 384.922 586.832C384.922 587.18 384.852 587.494 384.711 587.775C384.57 588.057 384.369 588.297 384.107 588.496C383.846 588.695 383.531 588.85 383.164 588.959C382.801 589.064 382.395 589.117 381.945 589.117C381.551 589.117 381.162 589.062 380.779 588.953C380.4 588.844 380.055 588.68 379.742 588.461C379.434 588.242 379.186 587.973 378.998 587.652C378.814 587.328 378.723 586.953 378.723 586.527H379.848C379.848 586.82 379.904 587.072 380.018 587.283C380.131 587.49 380.285 587.662 380.48 587.799C380.68 587.936 380.904 588.037 381.154 588.104C381.408 588.166 381.672 588.197 381.945 588.197C382.34 588.197 382.674 588.143 382.947 588.033C383.221 587.924 383.428 587.768 383.568 587.564C383.713 587.361 383.785 587.121 383.785 586.844ZM388.83 589.117C388.389 589.117 387.988 589.043 387.629 588.895C387.273 588.742 386.967 588.529 386.709 588.256C386.455 587.982 386.26 587.658 386.123 587.283C385.986 586.908 385.918 586.498 385.918 586.053V585.807C385.918 585.291 385.994 584.832 386.146 584.43C386.299 584.023 386.506 583.68 386.768 583.398C387.029 583.117 387.326 582.904 387.658 582.76C387.99 582.615 388.334 582.543 388.689 582.543C389.143 582.543 389.533 582.621 389.861 582.777C390.193 582.934 390.465 583.152 390.676 583.434C390.887 583.711 391.043 584.039 391.145 584.418C391.246 584.793 391.297 585.203 391.297 585.648V586.135H386.562V585.25H390.213V585.168C390.197 584.887 390.139 584.613 390.037 584.348C389.939 584.082 389.783 583.863 389.568 583.691C389.354 583.52 389.061 583.434 388.689 583.434C388.443 583.434 388.217 583.486 388.01 583.592C387.803 583.693 387.625 583.846 387.477 584.049C387.328 584.252 387.213 584.5 387.131 584.793C387.049 585.086 387.008 585.424 387.008 585.807V586.053C387.008 586.354 387.049 586.637 387.131 586.902C387.217 587.164 387.34 587.395 387.5 587.594C387.664 587.793 387.861 587.949 388.092 588.062C388.326 588.176 388.592 588.232 388.889 588.232C389.271 588.232 389.596 588.154 389.861 587.998C390.127 587.842 390.359 587.633 390.559 587.371L391.215 587.893C391.078 588.1 390.904 588.297 390.693 588.484C390.482 588.672 390.223 588.824 389.914 588.941C389.609 589.059 389.248 589.117 388.83 589.117ZM395.217 582.66V583.492H391.789V582.66H395.217ZM392.949 581.119H394.033V587.43C394.033 587.645 394.066 587.807 394.133 587.916C394.199 588.025 394.285 588.098 394.391 588.133C394.496 588.168 394.609 588.186 394.73 588.186C394.82 588.186 394.914 588.178 395.012 588.162C395.113 588.143 395.189 588.127 395.24 588.115L395.246 589C395.16 589.027 395.047 589.053 394.906 589.076C394.77 589.104 394.604 589.117 394.408 589.117C394.143 589.117 393.898 589.064 393.676 588.959C393.453 588.854 393.275 588.678 393.143 588.432C393.014 588.182 392.949 587.846 392.949 587.424V581.119ZM400.021 580.469L402.236 584.752L404.457 580.469H405.74L402.799 585.812V589H401.668V585.812L398.727 580.469H400.021ZM405.998 585.9V585.766C405.998 585.309 406.064 584.885 406.197 584.494C406.33 584.1 406.521 583.758 406.771 583.469C407.021 583.176 407.324 582.949 407.68 582.789C408.035 582.625 408.434 582.543 408.875 582.543C409.32 582.543 409.721 582.625 410.076 582.789C410.436 582.949 410.74 583.176 410.99 583.469C411.244 583.758 411.438 584.1 411.57 584.494C411.703 584.885 411.77 585.309 411.77 585.766V585.9C411.77 586.357 411.703 586.781 411.57 587.172C411.438 587.562 411.244 587.904 410.99 588.197C410.74 588.486 410.438 588.713 410.082 588.877C409.73 589.037 409.332 589.117 408.887 589.117C408.441 589.117 408.041 589.037 407.686 588.877C407.33 588.713 407.025 588.486 406.771 588.197C406.521 587.904 406.33 587.562 406.197 587.172C406.064 586.781 405.998 586.357 405.998 585.9ZM407.082 585.766V585.9C407.082 586.217 407.119 586.516 407.193 586.797C407.268 587.074 407.379 587.32 407.527 587.535C407.68 587.75 407.869 587.92 408.096 588.045C408.322 588.166 408.586 588.227 408.887 588.227C409.184 588.227 409.443 588.166 409.666 588.045C409.893 587.92 410.08 587.75 410.229 587.535C410.377 587.32 410.488 587.074 410.562 586.797C410.641 586.516 410.68 586.217 410.68 585.9V585.766C410.68 585.453 410.641 585.158 410.562 584.881C410.488 584.6 410.375 584.352 410.223 584.137C410.074 583.918 409.887 583.746 409.66 583.621C409.438 583.496 409.176 583.434 408.875 583.434C408.578 583.434 408.316 583.496 408.09 583.621C407.867 583.746 407.68 583.918 407.527 584.137C407.379 584.352 407.268 584.6 407.193 584.881C407.119 585.158 407.082 585.453 407.082 585.766ZM417.008 587.535V582.66H418.098V589H417.061L417.008 587.535ZM417.213 586.199L417.664 586.188C417.664 586.609 417.619 587 417.529 587.359C417.443 587.715 417.303 588.023 417.107 588.285C416.912 588.547 416.656 588.752 416.34 588.9C416.023 589.045 415.639 589.117 415.186 589.117C414.877 589.117 414.594 589.072 414.336 588.982C414.082 588.893 413.863 588.754 413.68 588.566C413.496 588.379 413.354 588.135 413.252 587.834C413.154 587.533 413.105 587.172 413.105 586.75V582.66H414.189V586.762C414.189 587.047 414.221 587.283 414.283 587.471C414.35 587.654 414.438 587.801 414.547 587.91C414.66 588.016 414.785 588.09 414.922 588.133C415.062 588.176 415.207 588.197 415.355 588.197C415.816 588.197 416.182 588.109 416.451 587.934C416.721 587.754 416.914 587.514 417.031 587.213C417.152 586.908 417.213 586.57 417.213 586.199ZM420.834 583.656V589H419.75V582.66H420.805L420.834 583.656ZM422.814 582.625L422.809 583.633C422.719 583.613 422.633 583.602 422.551 583.598C422.473 583.59 422.383 583.586 422.281 583.586C422.031 583.586 421.811 583.625 421.619 583.703C421.428 583.781 421.266 583.891 421.133 584.031C421 584.172 420.895 584.34 420.816 584.535C420.742 584.727 420.693 584.938 420.67 585.168L420.365 585.344C420.365 584.961 420.402 584.602 420.477 584.266C420.555 583.93 420.674 583.633 420.834 583.375C420.994 583.113 421.197 582.91 421.443 582.766C421.693 582.617 421.99 582.543 422.334 582.543C422.412 582.543 422.502 582.553 422.604 582.572C422.705 582.588 422.775 582.605 422.814 582.625ZM428.088 580.469V589H426.957V580.469H428.088ZM431.662 584.307V585.232H427.842V584.307H431.662ZM432.242 580.469V581.395H427.842V580.469H432.242ZM433.01 585.9V585.766C433.01 585.309 433.076 584.885 433.209 584.494C433.342 584.1 433.533 583.758 433.783 583.469C434.033 583.176 434.336 582.949 434.691 582.789C435.047 582.625 435.445 582.543 435.887 582.543C436.332 582.543 436.732 582.625 437.088 582.789C437.447 582.949 437.752 583.176 438.002 583.469C438.256 583.758 438.449 584.1 438.582 584.494C438.715 584.885 438.781 585.309 438.781 585.766V585.9C438.781 586.357 438.715 586.781 438.582 587.172C438.449 587.562 438.256 587.904 438.002 588.197C437.752 588.486 437.449 588.713 437.094 588.877C436.742 589.037 436.344 589.117 435.898 589.117C435.453 589.117 435.053 589.037 434.697 588.877C434.342 588.713 434.037 588.486 433.783 588.197C433.533 587.904 433.342 587.562 433.209 587.172C433.076 586.781 433.01 586.357 433.01 585.9ZM434.094 585.766V585.9C434.094 586.217 434.131 586.516 434.205 586.797C434.279 587.074 434.391 587.32 434.539 587.535C434.691 587.75 434.881 587.92 435.107 588.045C435.334 588.166 435.598 588.227 435.898 588.227C436.195 588.227 436.455 588.166 436.678 588.045C436.904 587.92 437.092 587.75 437.24 587.535C437.389 587.32 437.5 587.074 437.574 586.797C437.652 586.516 437.691 586.217 437.691 585.9V585.766C437.691 585.453 437.652 585.158 437.574 584.881C437.5 584.6 437.387 584.352 437.234 584.137C437.086 583.918 436.898 583.746 436.672 583.621C436.449 583.496 436.188 583.434 435.887 583.434C435.59 583.434 435.328 583.496 435.102 583.621C434.879 583.746 434.691 583.918 434.539 584.137C434.391 584.352 434.279 584.6 434.205 584.881C434.131 585.158 434.094 585.453 434.094 585.766ZM441.225 583.656V589H440.141V582.66H441.195L441.225 583.656ZM443.205 582.625L443.199 583.633C443.109 583.613 443.023 583.602 442.941 583.598C442.863 583.59 442.773 583.586 442.672 583.586C442.422 583.586 442.201 583.625 442.01 583.703C441.818 583.781 441.656 583.891 441.523 584.031C441.391 584.172 441.285 584.34 441.207 584.535C441.133 584.727 441.084 584.938 441.061 585.168L440.756 585.344C440.756 584.961 440.793 584.602 440.867 584.266C440.945 583.93 441.064 583.633 441.225 583.375C441.385 583.113 441.588 582.91 441.834 582.766C442.084 582.617 442.381 582.543 442.725 582.543C442.803 582.543 442.893 582.553 442.994 582.572C443.096 582.588 443.166 582.605 443.205 582.625ZM445.285 583.92V589H444.195V582.66H445.227L445.285 583.92ZM445.062 585.59L444.559 585.572C444.562 585.139 444.619 584.738 444.729 584.371C444.838 584 445 583.678 445.215 583.404C445.43 583.131 445.697 582.92 446.018 582.771C446.338 582.619 446.709 582.543 447.131 582.543C447.428 582.543 447.701 582.586 447.951 582.672C448.201 582.754 448.418 582.885 448.602 583.064C448.785 583.244 448.928 583.475 449.029 583.756C449.131 584.037 449.182 584.377 449.182 584.775V589H448.098V584.828C448.098 584.496 448.041 584.23 447.928 584.031C447.818 583.832 447.662 583.688 447.459 583.598C447.256 583.504 447.018 583.457 446.744 583.457C446.424 583.457 446.156 583.514 445.941 583.627C445.727 583.74 445.555 583.896 445.426 584.096C445.297 584.295 445.203 584.523 445.145 584.781C445.09 585.035 445.062 585.305 445.062 585.59ZM449.17 584.992L448.443 585.215C448.447 584.867 448.504 584.533 448.613 584.213C448.727 583.893 448.889 583.607 449.1 583.357C449.314 583.107 449.578 582.91 449.891 582.766C450.203 582.617 450.561 582.543 450.963 582.543C451.303 582.543 451.604 582.588 451.865 582.678C452.131 582.768 452.354 582.906 452.533 583.094C452.717 583.277 452.855 583.514 452.949 583.803C453.043 584.092 453.09 584.436 453.09 584.834V589H452V584.822C452 584.467 451.943 584.191 451.83 583.996C451.721 583.797 451.564 583.658 451.361 583.58C451.162 583.498 450.924 583.457 450.646 583.457C450.408 583.457 450.197 583.498 450.014 583.58C449.83 583.662 449.676 583.775 449.551 583.92C449.426 584.061 449.33 584.223 449.264 584.406C449.201 584.59 449.17 584.785 449.17 584.992ZM458.469 587.916V584.652C458.469 584.402 458.418 584.186 458.316 584.002C458.219 583.814 458.07 583.67 457.871 583.568C457.672 583.467 457.426 583.416 457.133 583.416C456.859 583.416 456.619 583.463 456.412 583.557C456.209 583.65 456.049 583.773 455.932 583.926C455.818 584.078 455.762 584.242 455.762 584.418H454.678C454.678 584.191 454.736 583.967 454.854 583.744C454.971 583.521 455.139 583.32 455.357 583.141C455.58 582.957 455.846 582.812 456.154 582.707C456.467 582.598 456.814 582.543 457.197 582.543C457.658 582.543 458.064 582.621 458.416 582.777C458.771 582.934 459.049 583.17 459.248 583.486C459.451 583.799 459.553 584.191 459.553 584.664V587.617C459.553 587.828 459.57 588.053 459.605 588.291C459.645 588.529 459.701 588.734 459.775 588.906V589H458.645C458.59 588.875 458.547 588.709 458.516 588.502C458.484 588.291 458.469 588.096 458.469 587.916ZM458.656 585.156L458.668 585.918H457.572C457.264 585.918 456.988 585.943 456.746 585.994C456.504 586.041 456.301 586.113 456.137 586.211C455.973 586.309 455.848 586.432 455.762 586.58C455.676 586.725 455.633 586.895 455.633 587.09C455.633 587.289 455.678 587.471 455.768 587.635C455.857 587.799 455.992 587.93 456.172 588.027C456.355 588.121 456.58 588.168 456.846 588.168C457.178 588.168 457.471 588.098 457.725 587.957C457.979 587.816 458.18 587.645 458.328 587.441C458.48 587.238 458.562 587.041 458.574 586.85L459.037 587.371C459.01 587.535 458.936 587.717 458.814 587.916C458.693 588.115 458.531 588.307 458.328 588.49C458.129 588.67 457.891 588.82 457.613 588.941C457.34 589.059 457.031 589.117 456.688 589.117C456.258 589.117 455.881 589.033 455.557 588.865C455.236 588.697 454.986 588.473 454.807 588.191C454.631 587.906 454.543 587.588 454.543 587.236C454.543 586.896 454.609 586.598 454.742 586.34C454.875 586.078 455.066 585.861 455.316 585.689C455.566 585.514 455.867 585.381 456.219 585.291C456.57 585.201 456.963 585.156 457.396 585.156H458.656ZM463.912 582.66V583.492H460.484V582.66H463.912ZM461.645 581.119H462.729V587.43C462.729 587.645 462.762 587.807 462.828 587.916C462.895 588.025 462.98 588.098 463.086 588.133C463.191 588.168 463.305 588.186 463.426 588.186C463.516 588.186 463.609 588.178 463.707 588.162C463.809 588.143 463.885 588.127 463.936 588.115L463.941 589C463.855 589.027 463.742 589.053 463.602 589.076C463.465 589.104 463.299 589.117 463.104 589.117C462.838 589.117 462.594 589.064 462.371 588.959C462.148 588.854 461.971 588.678 461.838 588.432C461.709 588.182 461.645 587.846 461.645 587.424V581.119ZM466.361 582.66V589H465.271V582.66H466.361ZM465.189 580.979C465.189 580.803 465.242 580.654 465.348 580.533C465.457 580.412 465.617 580.352 465.828 580.352C466.035 580.352 466.193 580.412 466.303 580.533C466.416 580.654 466.473 580.803 466.473 580.979C466.473 581.146 466.416 581.291 466.303 581.412C466.193 581.529 466.035 581.588 465.828 581.588C465.617 581.588 465.457 581.529 465.348 581.412C465.242 581.291 465.189 581.146 465.189 580.979ZM467.814 585.9V585.766C467.814 585.309 467.881 584.885 468.014 584.494C468.146 584.1 468.338 583.758 468.588 583.469C468.838 583.176 469.141 582.949 469.496 582.789C469.852 582.625 470.25 582.543 470.691 582.543C471.137 582.543 471.537 582.625 471.893 582.789C472.252 582.949 472.557 583.176 472.807 583.469C473.061 583.758 473.254 584.1 473.387 584.494C473.52 584.885 473.586 585.309 473.586 585.766V585.9C473.586 586.357 473.52 586.781 473.387 587.172C473.254 587.562 473.061 587.904 472.807 588.197C472.557 588.486 472.254 588.713 471.898 588.877C471.547 589.037 471.148 589.117 470.703 589.117C470.258 589.117 469.857 589.037 469.502 588.877C469.146 588.713 468.842 588.486 468.588 588.197C468.338 587.904 468.146 587.562 468.014 587.172C467.881 586.781 467.814 586.357 467.814 585.9ZM468.898 585.766V585.9C468.898 586.217 468.936 586.516 469.01 586.797C469.084 587.074 469.195 587.32 469.344 587.535C469.496 587.75 469.686 587.92 469.912 588.045C470.139 588.166 470.402 588.227 470.703 588.227C471 588.227 471.26 588.166 471.482 588.045C471.709 587.92 471.896 587.75 472.045 587.535C472.193 587.32 472.305 587.074 472.379 586.797C472.457 586.516 472.496 586.217 472.496 585.9V585.766C472.496 585.453 472.457 585.158 472.379 584.881C472.305 584.6 472.191 584.352 472.039 584.137C471.891 583.918 471.703 583.746 471.477 583.621C471.254 583.496 470.992 583.434 470.691 583.434C470.395 583.434 470.133 583.496 469.906 583.621C469.684 583.746 469.496 583.918 469.344 584.137C469.195 584.352 469.084 584.6 469.01 584.881C468.936 585.158 468.898 585.453 468.898 585.766ZM476.029 584.014V589H474.945V582.66H475.971L476.029 584.014ZM475.771 585.59L475.32 585.572C475.324 585.139 475.389 584.738 475.514 584.371C475.639 584 475.814 583.678 476.041 583.404C476.268 583.131 476.537 582.92 476.85 582.771C477.166 582.619 477.516 582.543 477.898 582.543C478.211 582.543 478.492 582.586 478.742 582.672C478.992 582.754 479.205 582.887 479.381 583.07C479.561 583.254 479.697 583.492 479.791 583.785C479.885 584.074 479.932 584.428 479.932 584.846V589H478.842V584.834C478.842 584.502 478.793 584.236 478.695 584.037C478.598 583.834 478.455 583.688 478.268 583.598C478.08 583.504 477.85 583.457 477.576 583.457C477.307 583.457 477.061 583.514 476.838 583.627C476.619 583.74 476.43 583.896 476.27 584.096C476.113 584.295 475.99 584.523 475.9 584.781C475.814 585.035 475.771 585.305 475.771 585.59Z" fill="#5E5E5E"/>
</g>
<g id="Frame" clip-path="url(#clip0_303_27279)">
<path id="Vector_113" d="M135.677 544H134.209C134.124 543.684 133.963 543.392 133.74 543.148C133.593 543.017 133.419 542.92 133.228 542.861C133.038 542.803 132.837 542.786 132.64 542.812C132.409 542.815 132.181 542.864 131.971 542.956C131.761 543.048 131.572 543.181 131.416 543.346C131.014 543.884 130.826 544.545 130.886 545.208C130.881 545.611 130.943 546.012 131.07 546.396C131.174 546.721 131.372 547.01 131.641 547.227C131.922 547.449 132.278 547.562 132.64 547.544C132.892 547.55 133.142 547.503 133.373 547.406C133.585 547.307 133.768 547.157 133.903 546.97C134.053 546.754 134.156 546.512 134.209 546.257H135.677C135.597 546.73 135.417 547.182 135.147 547.584C134.893 547.97 134.533 548.279 134.107 548.475C133.646 548.698 133.135 548.807 132.619 548.792C132.027 548.805 131.442 548.661 130.927 548.376C130.424 548.093 130.024 547.664 129.786 547.148C129.497 546.527 129.358 545.85 129.378 545.168C129.356 544.484 129.503 543.805 129.806 543.188C130.052 542.671 130.459 542.242 130.968 541.96C131.47 541.68 132.04 541.536 132.619 541.544C133.077 541.539 133.533 541.613 133.964 541.762C134.314 541.899 134.633 542.1 134.902 542.356C135.135 542.577 135.322 542.839 135.453 543.129C135.584 543.402 135.66 543.698 135.677 544Z" fill="#FBC115"/>
<path id="Vector_114" d="M138.306 547.188L137.817 548.614H136.247L138.775 541.743H140.487L142.974 548.614H141.364L140.915 547.188H138.306ZM139.611 543.228L138.694 545.961H140.508L139.631 543.228H139.611Z" fill="#FBC115"/>
<path id="Vector_115" d="M149.578 541.743V546.218C149.617 546.582 149.569 546.95 149.438 547.293C149.307 547.636 149.097 547.946 148.824 548.198C148.243 548.636 147.521 548.861 146.786 548.832C146.371 548.831 145.959 548.771 145.563 548.654C145.163 548.529 144.804 548.304 144.523 548C144.143 547.526 143.948 546.937 143.973 546.337V541.782H145.481V546.238C145.465 546.425 145.49 546.613 145.553 546.79C145.616 546.968 145.717 547.13 145.848 547.267C145.963 547.386 146.102 547.479 146.257 547.541C146.411 547.602 146.578 547.631 146.745 547.624C147.703 547.624 148.172 547.188 148.172 546.317V541.782L149.578 541.743Z" fill="#FBC115"/>
<path id="Vector_116" d="M154.043 542.951V548.614H152.555V542.951H150.516V541.743H156.265V542.951H154.043Z" fill="#FBC115"/>
<path id="Vector_117" d="M158.405 541.743V548.614H156.937V541.743H158.405Z" fill="#FBC115"/>
<path id="Vector_118" d="M159.465 545.188C159.427 544.51 159.553 543.832 159.832 543.208C160.041 542.772 160.356 542.392 160.749 542.099C161.081 541.865 161.454 541.69 161.85 541.584C162.519 541.426 163.219 541.426 163.888 541.584C164.284 541.69 164.657 541.865 164.989 542.099C165.382 542.392 165.697 542.772 165.906 543.208C166.396 544.41 166.396 545.748 165.906 546.951C165.697 547.392 165.374 547.774 164.969 548.06C164.637 548.294 164.264 548.469 163.868 548.574C163.199 548.742 162.498 548.742 161.829 548.574C161.437 548.46 161.065 548.286 160.729 548.06C160.318 547.771 159.995 547.381 159.791 546.931C159.555 546.379 159.444 545.785 159.465 545.188V545.188ZM160.953 545.188C160.944 545.579 161.006 545.967 161.136 546.337C161.222 546.613 161.376 546.865 161.585 547.07C161.762 547.246 161.978 547.382 162.217 547.465C162.425 547.545 162.646 547.585 162.869 547.584C163.099 547.582 163.326 547.542 163.542 547.465C163.767 547.376 163.974 547.249 164.153 547.089C164.358 546.87 164.517 546.614 164.622 546.337C164.734 545.964 164.789 545.577 164.785 545.188C164.791 544.793 164.736 544.399 164.622 544.02C164.517 543.742 164.358 543.487 164.153 543.267C163.977 543.103 163.769 542.975 163.542 542.891C163.326 542.815 163.099 542.775 162.869 542.772C162.646 542.772 162.425 542.812 162.217 542.891C161.98 542.97 161.765 543.099 161.585 543.267C161.38 543.483 161.227 543.74 161.136 544.02C161.003 544.395 160.941 544.791 160.953 545.188V545.188Z" fill="#FBC115"/>
<path id="Vector_119" d="M171.777 546.535V541.743H173.142V548.614H171.675L168.78 543.723V548.614H167.394V541.743H168.964L171.777 546.535Z" fill="#FBC115"/>
<path id="Vector_120" d="M132.619 552.931H131.906L132.68 550.832H133.373L132.619 552.931Z" fill="#FBC115"/>
<path id="Vector_121" d="M134.087 552.931H133.394L134.148 550.832H134.861L134.087 552.931Z" fill="#FBC115"/>
<path id="Vector_122" d="M135.575 552.931H134.882L135.636 550.832H136.349L135.575 552.931Z" fill="#FBC115"/>
<path id="Vector_123" d="M137.042 552.931H136.349L137.124 550.832H137.817L137.042 552.931Z" fill="#FBC115"/>
<path id="Vector_124" d="M138.53 552.931H137.837L138.612 550.832H139.305L138.53 552.931Z" fill="#FBC115"/>
<path id="Vector_125" d="M140.018 552.931H139.325L140.08 550.832H140.773L140.018 552.931Z" fill="#FBC115"/>
<path id="Vector_126" d="M141.486 552.931H140.793L141.568 550.832H142.261L141.486 552.931Z" fill="#FBC115"/>
<path id="Vector_127" d="M142.974 552.931H142.281L143.056 550.832H143.749L142.974 552.931Z" fill="#FBC115"/>
<path id="Vector_128" d="M144.462 552.931H143.749L144.523 550.832H145.216L144.462 552.931Z" fill="#FBC115"/>
<path id="Vector_129" d="M145.93 552.931H145.237L146.011 550.832H146.704L145.93 552.931Z" fill="#FBC115"/>
<path id="Vector_130" d="M147.418 552.931H146.725L147.479 550.832H148.193L147.418 552.931Z" fill="#FBC115"/>
<path id="Vector_131" d="M148.906 552.931H148.192L148.967 550.832H149.66L148.906 552.931Z" fill="#FBC115"/>
<path id="Vector_132" d="M150.373 552.931H149.68L150.455 550.832H151.148L150.373 552.931Z" fill="#FBC115"/>
<path id="Vector_133" d="M151.862 552.931H151.168L151.923 550.832H152.636L151.862 552.931Z" fill="#FBC115"/>
<path id="Vector_134" d="M153.35 552.931H152.636L153.411 550.832H154.104L153.35 552.931Z" fill="#FBC115"/>
<path id="Vector_135" d="M154.817 552.931H154.124L154.899 550.832H155.592L154.817 552.931Z" fill="#FBC115"/>
<path id="Vector_136" d="M156.305 552.931H155.612L156.367 550.832H157.08L156.305 552.931Z" fill="#FBC115"/>
<path id="Vector_137" d="M157.793 552.931H157.08L157.854 550.832H158.547L157.793 552.931Z" fill="#FBC115"/>
<path id="Vector_138" d="M159.261 552.931H158.568L159.342 550.832H160.036L159.261 552.931Z" fill="#FBC115"/>
<path id="Vector_139" d="M160.749 552.931H160.056L160.81 550.832H161.524L160.749 552.931Z" fill="#FBC115"/>
<path id="Vector_140" d="M162.237 552.931H161.524L162.298 550.832H162.991L162.237 552.931Z" fill="#FBC115"/>
<path id="Vector_141" d="M163.705 552.931H163.012L163.786 550.832H164.479L163.705 552.931Z" fill="#FBC115"/>
<path id="Vector_142" d="M165.193 552.931H164.5L165.254 550.832H165.967L165.193 552.931Z" fill="#FBC115"/>
<path id="Vector_143" d="M166.681 552.931H165.967L166.742 550.832H167.435L166.681 552.931Z" fill="#FBC115"/>
<path id="Vector_144" d="M168.148 552.931H167.455L168.23 550.832H168.923L168.148 552.931Z" fill="#FBC115"/>
<path id="Vector_145" d="M169.636 552.931H168.943L169.698 550.832H170.411L169.636 552.931Z" fill="#FBC115"/>
<path id="Vector_146" d="M171.125 552.931H170.411L171.186 550.832H171.879L171.125 552.931Z" fill="#FBC115"/>
<path id="Vector_147" d="M172.592 552.931H171.899L172.674 550.832H173.367L172.592 552.931Z" fill="#FBC115"/>
<path id="Vector_148" d="M174.08 552.931H173.387L174.141 550.832H174.855L174.08 552.931Z" fill="#FBC115"/>
<path id="Vector_149" d="M128.216 557.406H107.098C106.656 557.397 106.225 557.273 105.848 557.048C105.471 556.823 105.163 556.504 104.955 556.125C104.748 555.746 104.648 555.32 104.666 554.89C104.685 554.461 104.821 554.044 105.06 553.683L115.598 537.683C115.817 537.349 116.118 537.073 116.474 536.879C116.83 536.686 117.229 536.581 117.637 536.574C118.044 536.584 118.442 536.691 118.797 536.884C119.152 537.077 119.453 537.352 119.675 537.683L130.275 553.663C130.509 554.036 130.633 554.464 130.633 554.901C130.633 555.338 130.509 555.766 130.275 556.139C130.074 556.505 129.779 556.814 129.418 557.037C129.057 557.259 128.643 557.386 128.216 557.406V557.406ZM117.616 537.723C117.396 537.722 117.179 537.776 116.986 537.88C116.793 537.984 116.631 538.134 116.516 538.317L105.997 554.297C105.877 554.495 105.814 554.721 105.814 554.951C105.814 555.18 105.877 555.406 105.997 555.604C106.115 555.802 106.285 555.967 106.489 556.082C106.693 556.196 106.924 556.257 107.159 556.257H128.277C128.515 556.257 128.749 556.194 128.953 556.076C129.158 555.957 129.325 555.787 129.439 555.584C129.559 555.39 129.623 555.167 129.623 554.941C129.623 554.714 129.559 554.491 129.439 554.297L118.839 538.317C118.714 538.116 118.532 537.954 118.316 537.849C118.1 537.743 117.857 537.7 117.616 537.723V537.723Z" fill="#FBC115"/>
<path id="Vector_150" d="M128.216 558V555.683C128.347 555.685 128.476 555.651 128.588 555.584C128.7 555.518 128.79 555.421 128.848 555.307C128.915 555.203 128.95 555.083 128.95 554.961C128.95 554.838 128.915 554.718 128.848 554.614L130.886 553.347C131.185 553.803 131.352 554.329 131.37 554.869C131.389 555.41 131.258 555.945 130.992 556.42C130.726 556.895 130.334 557.291 129.856 557.569C129.379 557.847 128.834 557.996 128.277 558H128.216Z" fill="#FBC115"/>
<path id="Vector_151" d="M107.099 558C106.542 558 105.997 557.855 105.518 557.579C105.04 557.304 104.647 556.908 104.38 556.434C104.113 555.961 103.982 555.426 104.002 554.886C104.021 554.346 104.189 553.821 104.489 553.366L106.528 554.614C106.461 554.718 106.425 554.838 106.425 554.96C106.425 555.083 106.461 555.203 106.528 555.307C106.586 555.421 106.676 555.517 106.787 555.584C106.899 555.651 107.029 555.685 107.16 555.683L107.099 558Z" fill="#FBC115"/>
<path id="Vector_152" d="M117.025 538.614L114.987 537.366C115.266 536.94 115.652 536.589 116.108 536.347C116.564 536.104 117.076 535.978 117.596 535.98V535.98C118.114 535.978 118.624 536.102 119.08 536.34C119.536 536.579 119.922 536.925 120.205 537.346L118.167 538.594C118.103 538.498 118.015 538.419 117.912 538.363C117.809 538.308 117.694 538.278 117.576 538.277C117.463 538.285 117.353 538.32 117.257 538.379C117.161 538.437 117.082 538.518 117.025 538.614Z" fill="#FBC115"/>
<path id="Vector_153" d="M118.901 545.347L118.248 550.772H117.005L116.353 545.347V542.396H118.901V545.347ZM118.901 551.703V553.98H116.475V551.703H118.901Z" fill="#FBC115"/>
<path id="Vector_154" d="M183.742 553.762C183.543 553.76 183.348 553.711 183.173 553.617C182.999 553.524 182.851 553.39 182.743 553.228L173.836 539.802C173.665 539.539 173.609 539.222 173.68 538.919C173.751 538.616 173.942 538.353 174.213 538.188C174.483 538.022 174.81 537.968 175.121 538.037C175.433 538.106 175.704 538.292 175.874 538.554L184.761 551.98C184.848 552.105 184.908 552.246 184.937 552.395C184.967 552.543 184.965 552.696 184.933 552.843C184.9 552.991 184.838 553.131 184.749 553.255C184.66 553.379 184.546 553.484 184.415 553.564C184.218 553.699 183.982 553.768 183.742 553.762V553.762Z" fill="#FBC115"/>
<path id="Vector_155" d="M172.653 538.257H123.304V538.832H172.653V538.257Z" fill="#FBC115"/>
<path id="Vector_156" d="M176.343 555.703H132.701V555.129H176.098L179.237 552.079L179.665 552.475L176.343 555.703Z" fill="#FBC115"/>
<path id="Vector_157" d="M189.409 553.188H183.742C183.602 553.163 183.475 553.091 183.383 552.984C183.292 552.877 183.242 552.743 183.242 552.604C183.242 552.465 183.292 552.331 183.383 552.224C183.475 552.117 183.602 552.045 183.742 552.02H189.409C189.549 552.045 189.676 552.117 189.768 552.224C189.859 552.331 189.909 552.465 189.909 552.604C189.909 552.743 189.859 552.877 189.768 552.984C189.676 553.091 189.549 553.163 189.409 553.188V553.188Z" fill="#FBC115"/>
<path id="Vector_158" d="M185.026 546.535H179.38C179.24 546.509 179.113 546.437 179.021 546.331C178.93 546.224 178.88 546.089 178.88 545.951C178.88 545.812 178.93 545.677 179.021 545.571C179.113 545.464 179.24 545.392 179.38 545.366H185.026C185.115 545.35 185.205 545.354 185.292 545.376C185.379 545.398 185.46 545.438 185.529 545.494C185.598 545.55 185.653 545.619 185.691 545.698C185.729 545.777 185.749 545.863 185.749 545.951C185.749 546.038 185.729 546.124 185.691 546.203C185.653 546.282 185.598 546.351 185.529 546.407C185.46 546.463 185.379 546.503 185.292 546.525C185.205 546.547 185.115 546.551 185.026 546.535V546.535Z" fill="#FBC115"/>
<path id="Vector_159" d="M180.42 539.763H174.834C174.694 539.737 174.567 539.665 174.476 539.558C174.384 539.452 174.334 539.317 174.334 539.178C174.334 539.04 174.384 538.905 174.476 538.798C174.567 538.692 174.694 538.619 174.834 538.594H180.501C180.642 538.619 180.769 538.692 180.86 538.798C180.951 538.905 181.002 539.04 181.002 539.178C181.002 539.317 180.951 539.452 180.86 539.558C180.769 539.665 180.642 539.737 180.501 539.763H180.42Z" fill="#FBC115"/>
<path id="Vector_160" d="M143.504 555.426L144.972 556.851H150.863L152.351 555.406L143.504 555.426Z" fill="#FBC115"/>
<path id="Vector_161" d="M130.479 538.555L132.945 536.139H141.262L142.485 537.327H152.065L153.329 538.555H130.479Z" fill="#FBC115"/>
</g>
<g id="Every player has to pick 3 spaceships each turn to avoid dodging the match">
<path d="M212.283 569.043C212.283 569.333 212.225 569.585 212.107 569.799C211.99 570.013 211.829 570.188 211.624 570.326C211.422 570.461 211.188 570.558 210.921 570.616V570.647C211.434 570.711 211.82 570.873 212.081 571.13C212.345 571.388 212.477 571.729 212.477 572.154C212.477 572.526 212.387 572.859 212.208 573.152C212.03 573.442 211.756 573.67 211.387 573.837C211.018 574.004 210.543 574.088 209.963 574.088C209.614 574.088 209.291 574.06 208.992 574.004C208.696 573.949 208.415 573.859 208.148 573.736V572.818C208.42 572.953 208.71 573.057 209.018 573.13C209.326 573.203 209.617 573.24 209.893 573.24C210.429 573.24 210.811 573.14 211.04 572.941C211.268 572.739 211.382 572.46 211.382 572.106C211.382 571.877 211.322 571.69 211.202 571.543C211.085 571.397 210.902 571.287 210.653 571.214C210.407 571.141 210.089 571.104 209.699 571.104H209.132V570.273H209.704C210.076 570.273 210.375 570.229 210.6 570.142C210.826 570.051 210.988 569.926 211.088 569.768C211.19 569.61 211.242 569.425 211.242 569.214C211.242 568.939 211.152 568.725 210.974 568.573C210.795 568.417 210.53 568.34 210.178 568.34C209.961 568.34 209.764 568.365 209.585 568.415C209.409 568.464 209.247 568.527 209.097 568.604C208.948 568.68 208.806 568.762 208.671 568.85L208.174 568.133C208.417 567.952 208.708 567.798 209.044 567.672C209.381 567.546 209.774 567.483 210.222 567.483C210.881 567.483 211.39 567.625 211.747 567.909C212.104 568.19 212.283 568.568 212.283 569.043ZM107.008 584.611C107.008 584.931 106.93 585.2 106.775 585.42C106.62 585.64 106.393 585.807 106.094 585.921C105.798 586.032 105.435 586.088 105.004 586.088C104.664 586.088 104.371 586.063 104.125 586.013C103.882 585.966 103.652 585.893 103.435 585.793V584.901C103.667 585.01 103.926 585.104 104.213 585.183C104.503 585.262 104.777 585.301 105.035 585.301C105.375 585.301 105.619 585.249 105.769 585.143C105.918 585.035 105.993 584.891 105.993 584.712C105.993 584.607 105.962 584.513 105.9 584.431C105.842 584.346 105.73 584.26 105.566 584.172C105.405 584.081 105.168 583.973 104.854 583.847C104.547 583.724 104.288 583.601 104.077 583.478C103.866 583.354 103.706 583.207 103.598 583.034C103.489 582.858 103.435 582.634 103.435 582.361C103.435 581.931 103.605 581.604 103.945 581.381C104.288 581.156 104.74 581.043 105.303 581.043C105.602 581.043 105.883 581.074 106.146 581.135C106.413 581.194 106.674 581.28 106.929 581.395L106.604 582.172C106.384 582.076 106.163 581.997 105.94 581.935C105.72 581.871 105.496 581.838 105.268 581.838C105.001 581.838 104.797 581.879 104.657 581.961C104.519 582.043 104.45 582.161 104.45 582.313C104.45 582.427 104.484 582.524 104.551 582.603C104.619 582.682 104.734 582.761 104.898 582.84C105.065 582.919 105.297 583.018 105.593 583.135C105.883 583.246 106.133 583.363 106.344 583.486C106.558 583.606 106.722 583.754 106.836 583.93C106.951 584.106 107.008 584.333 107.008 584.611ZM110.62 581.043C111.197 581.043 111.66 581.254 112.009 581.676C112.36 582.098 112.536 582.725 112.536 583.557C112.536 584.107 112.454 584.572 112.29 584.95C112.129 585.325 111.902 585.609 111.609 585.802C111.319 585.993 110.98 586.088 110.594 586.088C110.348 586.088 110.134 586.056 109.952 585.991C109.771 585.927 109.615 585.843 109.486 585.741C109.357 585.635 109.249 585.521 109.161 585.398H109.1C109.114 585.515 109.127 585.646 109.139 585.789C109.154 585.93 109.161 586.059 109.161 586.176V588.158H108.124V581.135H108.968L109.113 581.808H109.161C109.252 581.67 109.362 581.542 109.491 581.425C109.623 581.308 109.781 581.216 109.965 581.148C110.153 581.078 110.371 581.043 110.62 581.043ZM110.343 581.887C110.059 581.887 109.831 581.944 109.658 582.058C109.488 582.169 109.363 582.338 109.284 582.563C109.208 582.789 109.167 583.072 109.161 583.412V583.557C109.161 583.917 109.198 584.223 109.271 584.475C109.347 584.724 109.472 584.915 109.645 585.046C109.82 585.175 110.058 585.24 110.356 585.24C110.608 585.24 110.816 585.171 110.98 585.033C111.147 584.896 111.272 584.699 111.354 584.444C111.436 584.189 111.477 583.889 111.477 583.543C111.477 583.019 111.383 582.612 111.196 582.322C111.011 582.032 110.727 581.887 110.343 581.887ZM115.639 581.043C116.254 581.043 116.718 581.179 117.032 581.452C117.348 581.724 117.506 582.149 117.506 582.726V586H116.772L116.575 585.31H116.54C116.402 585.486 116.26 585.631 116.113 585.745C115.967 585.859 115.797 585.944 115.604 586C115.413 586.059 115.18 586.088 114.905 586.088C114.615 586.088 114.355 586.035 114.127 585.93C113.898 585.821 113.718 585.657 113.586 585.438C113.455 585.218 113.389 584.939 113.389 584.603C113.389 584.102 113.575 583.725 113.947 583.473C114.322 583.221 114.887 583.082 115.643 583.056L116.487 583.025V582.77C116.487 582.433 116.408 582.193 116.25 582.049C116.094 581.906 115.875 581.834 115.59 581.834C115.347 581.834 115.111 581.869 114.883 581.939C114.654 582.01 114.432 582.096 114.215 582.199L113.881 581.469C114.118 581.343 114.388 581.241 114.689 581.162C114.994 581.083 115.311 581.043 115.639 581.043ZM116.482 583.675L115.854 583.697C115.338 583.715 114.977 583.803 114.769 583.961C114.561 584.119 114.457 584.336 114.457 584.611C114.457 584.852 114.528 585.027 114.672 585.139C114.815 585.247 115.004 585.301 115.239 585.301C115.596 585.301 115.892 585.2 116.126 584.998C116.364 584.793 116.482 584.493 116.482 584.097V583.675ZM120.912 586.088C120.452 586.088 120.054 585.999 119.717 585.82C119.38 585.641 119.121 585.367 118.939 584.998C118.757 584.629 118.667 584.16 118.667 583.592C118.667 583 118.766 582.517 118.965 582.142C119.165 581.767 119.44 581.49 119.792 581.311C120.146 581.132 120.552 581.043 121.009 581.043C121.299 581.043 121.561 581.072 121.795 581.131C122.033 581.187 122.233 581.255 122.397 581.337L122.09 582.164C121.911 582.09 121.728 582.029 121.541 581.979C121.353 581.929 121.173 581.904 121 581.904C120.716 581.904 120.479 581.967 120.288 582.093C120.101 582.219 119.96 582.407 119.866 582.656C119.775 582.905 119.73 583.214 119.73 583.583C119.73 583.94 119.777 584.242 119.871 584.488C119.964 584.731 120.104 584.916 120.288 585.042C120.473 585.165 120.7 585.227 120.969 585.227C121.236 585.227 121.475 585.194 121.686 585.13C121.896 585.065 122.096 584.982 122.283 584.879V585.776C122.099 585.881 121.901 585.959 121.69 586.009C121.479 586.062 121.22 586.088 120.912 586.088ZM125.364 581.043C125.797 581.043 126.169 581.132 126.48 581.311C126.791 581.49 127.029 581.743 127.196 582.071C127.363 582.399 127.447 582.792 127.447 583.249V583.803H124.199C124.211 584.274 124.337 584.638 124.577 584.893C124.82 585.147 125.16 585.275 125.597 585.275C125.907 585.275 126.186 585.246 126.432 585.187C126.681 585.125 126.937 585.036 127.201 584.919V585.758C126.958 585.873 126.71 585.956 126.458 586.009C126.206 586.062 125.904 586.088 125.553 586.088C125.075 586.088 124.655 585.996 124.292 585.811C123.931 585.624 123.648 585.345 123.443 584.976C123.241 584.607 123.14 584.148 123.14 583.601C123.14 583.056 123.232 582.593 123.417 582.212C123.602 581.831 123.861 581.541 124.195 581.342C124.529 581.143 124.918 581.043 125.364 581.043ZM125.364 581.821C125.039 581.821 124.775 581.926 124.573 582.137C124.374 582.348 124.256 582.657 124.221 583.064H126.436C126.433 582.821 126.392 582.606 126.313 582.418C126.237 582.231 126.12 582.084 125.961 581.979C125.806 581.874 125.607 581.821 125.364 581.821ZM131.881 584.611C131.881 584.931 131.803 585.2 131.648 585.42C131.493 585.64 131.266 585.807 130.967 585.921C130.671 586.032 130.308 586.088 129.877 586.088C129.537 586.088 129.244 586.063 128.998 586.013C128.755 585.966 128.525 585.893 128.308 585.793V584.901C128.54 585.01 128.799 585.104 129.086 585.183C129.376 585.262 129.65 585.301 129.908 585.301C130.248 585.301 130.492 585.249 130.642 585.143C130.791 585.035 130.866 584.891 130.866 584.712C130.866 584.607 130.835 584.513 130.773 584.431C130.715 584.346 130.604 584.26 130.439 584.172C130.278 584.081 130.041 583.973 129.728 583.847C129.42 583.724 129.161 583.601 128.95 583.478C128.739 583.354 128.579 583.207 128.471 583.034C128.362 582.858 128.308 582.634 128.308 582.361C128.308 581.931 128.478 581.604 128.818 581.381C129.161 581.156 129.613 581.043 130.176 581.043C130.475 581.043 130.756 581.074 131.02 581.135C131.286 581.194 131.547 581.28 131.802 581.395L131.477 582.172C131.257 582.076 131.036 581.997 130.813 581.935C130.593 581.871 130.369 581.838 130.141 581.838C129.874 581.838 129.67 581.879 129.53 581.961C129.392 582.043 129.323 582.161 129.323 582.313C129.323 582.427 129.357 582.524 129.424 582.603C129.492 582.682 129.607 582.761 129.771 582.84C129.938 582.919 130.17 583.018 130.466 583.135C130.756 583.246 131.006 583.363 131.217 583.486C131.431 583.606 131.595 583.754 131.709 583.93C131.824 584.106 131.881 584.333 131.881 584.611ZM134.03 579.162V580.88C134.03 581.059 134.024 581.233 134.012 581.403C134.003 581.573 133.993 581.705 133.981 581.799H134.039C134.141 581.629 134.267 581.49 134.417 581.381C134.566 581.27 134.733 581.187 134.917 581.131C135.105 581.075 135.304 581.047 135.515 581.047C135.887 581.047 136.204 581.11 136.464 581.236C136.725 581.359 136.924 581.551 137.062 581.812C137.203 582.073 137.273 582.411 137.273 582.827V586H136.24V583.021C136.24 582.643 136.163 582.36 136.007 582.172C135.852 581.982 135.612 581.887 135.287 581.887C134.973 581.887 134.724 581.953 134.54 582.084C134.358 582.213 134.228 582.405 134.148 582.66C134.069 582.912 134.03 583.22 134.03 583.583V586H132.997V579.162H134.03ZM139.751 581.135V586H138.719V581.135H139.751ZM139.242 579.272C139.4 579.272 139.536 579.314 139.65 579.399C139.768 579.484 139.826 579.631 139.826 579.839C139.826 580.044 139.768 580.19 139.65 580.278C139.536 580.363 139.4 580.406 139.242 580.406C139.078 580.406 138.938 580.363 138.824 580.278C138.713 580.19 138.657 580.044 138.657 579.839C138.657 579.631 138.713 579.484 138.824 579.399C138.938 579.314 139.078 579.272 139.242 579.272ZM143.729 581.043C144.306 581.043 144.769 581.254 145.117 581.676C145.469 582.098 145.645 582.725 145.645 583.557C145.645 584.107 145.562 584.572 145.398 584.95C145.237 585.325 145.01 585.609 144.717 585.802C144.427 585.993 144.089 586.088 143.702 586.088C143.456 586.088 143.242 586.056 143.061 585.991C142.879 585.927 142.724 585.843 142.595 585.741C142.466 585.635 142.357 585.521 142.27 585.398H142.208C142.223 585.515 142.236 585.646 142.248 585.789C142.262 585.93 142.27 586.059 142.27 586.176V588.158H141.232V581.135H142.076L142.221 581.808H142.27C142.36 581.67 142.47 581.542 142.599 581.425C142.731 581.308 142.889 581.216 143.074 581.148C143.261 581.078 143.479 581.043 143.729 581.043ZM143.452 581.887C143.167 581.887 142.939 581.944 142.766 582.058C142.596 582.169 142.472 582.338 142.393 582.563C142.316 582.789 142.275 583.072 142.27 583.412V583.557C142.27 583.917 142.306 584.223 142.379 584.475C142.456 584.724 142.58 584.915 142.753 585.046C142.929 585.175 143.166 585.24 143.465 585.24C143.717 585.24 143.925 585.171 144.089 585.033C144.256 584.896 144.38 584.699 144.462 584.444C144.544 584.189 144.585 583.889 144.585 583.543C144.585 583.019 144.492 582.612 144.304 582.322C144.12 582.032 143.835 581.887 143.452 581.887ZM150.109 584.611C150.109 584.931 150.032 585.2 149.876 585.42C149.721 585.64 149.494 585.807 149.195 585.921C148.899 586.032 148.536 586.088 148.105 586.088C147.766 586.088 147.473 586.063 147.227 586.013C146.983 585.966 146.753 585.893 146.537 585.793V584.901C146.768 585.01 147.027 585.104 147.314 585.183C147.604 585.262 147.878 585.301 148.136 585.301C148.476 585.301 148.721 585.249 148.87 585.143C149.02 585.035 149.094 584.891 149.094 584.712C149.094 584.607 149.063 584.513 149.002 584.431C148.943 584.346 148.832 584.26 148.668 584.172C148.507 584.081 148.27 583.973 147.956 583.847C147.648 583.724 147.389 583.601 147.178 583.478C146.967 583.354 146.808 583.207 146.699 583.034C146.591 582.858 146.537 582.634 146.537 582.361C146.537 581.931 146.707 581.604 147.046 581.381C147.389 581.156 147.842 581.043 148.404 581.043C148.703 581.043 148.984 581.074 149.248 581.135C149.515 581.194 149.775 581.28 150.03 581.395L149.705 582.172C149.485 582.076 149.264 581.997 149.042 581.935C148.822 581.871 148.598 581.838 148.369 581.838C148.103 581.838 147.899 581.879 147.758 581.961C147.621 582.043 147.552 582.161 147.552 582.313C147.552 582.427 147.585 582.524 147.653 582.603C147.72 582.682 147.836 582.761 148 582.84C148.167 582.919 148.398 583.018 148.694 583.135C148.984 583.246 149.235 583.363 149.446 583.486C149.66 583.606 149.824 583.754 149.938 583.93C150.052 584.106 150.109 584.333 150.109 584.611Z" fill="#FBC115"/>
</g>
<g id="enemy-profile-frame">
<g id="profile frame">
<path id="Vector_162" d="M762.68 549.365V597.303L762.645 597.356L755.756 607.692H724.839L724.774 607.629L721.426 604.279H697.537L697.475 604.216L694 600.739V549.365L694.061 549.303L697.412 545.952V542.54L697.475 542.477L700.95 539H731.836L731.9 539.062L735.25 542.415H755.725L755.787 542.477L762.68 549.365ZM762.254 597.174V549.542L755.554 542.841H735.076L735.013 542.778L731.663 539.426H701.124L697.837 542.716V546.129L697.776 546.191L694.424 549.542V600.563L697.712 603.851H721.601L721.663 603.913L725.013 607.265H755.517L762.254 597.174Z" fill="white"/>
<path id="Vector_163" d="M759.183 556.226V590.451L759.161 590.482L752.298 600.774H704.395L704.36 600.737L697.495 593.873V556.226L697.534 556.189L711.222 542.499H721.568L721.604 542.536L724.98 545.912H748.869L748.906 545.948L759.183 556.226ZM758.926 590.374V556.332L748.762 546.169H724.873L724.837 546.13L721.461 542.754H711.329L697.752 556.332V593.772L704.504 600.522H752.16L758.926 590.374Z" fill="white"/>
<path id="Vector_164" d="M723.222 602.356L726.634 605.771V604.064L724.927 602.356H723.222Z" fill="white"/>
<path id="Vector_165" d="M723.222 540.918L726.634 544.333V542.626L724.927 540.918H723.222Z" fill="white"/>
<path id="Vector_166" d="M706.465 540.792L701.09 546.169H699.022L704.396 540.792H706.465ZM700.983 545.912L705.847 541.049H704.504L699.638 545.912H700.983Z" fill="white"/>
<path id="Vector_167" d="M753.937 603.935V604.193H728.286L728.249 604.156L726.544 602.449L726.724 602.267L728.394 603.935H753.937Z" fill="white"/>
<path id="Vector_168" d="M754.027 547.656L753.847 547.836L750.469 544.462H733.406L733.369 544.423L731.7 542.755H728.286L728.249 542.718L726.544 541.011L726.724 540.829L728.394 542.497H731.807L731.844 542.536L733.512 544.205H750.576L750.613 544.241L754.027 547.656Z" fill="white"/>
<path id="Vector_169" d="M741.993 543.907H736.873V544.759H741.993V543.907Z" fill="white"/>
<path id="Vector_170" d="M753.937 603.638H748.817V604.49H753.937V603.638Z" fill="white"/>
<path id="Vector_171" d="M701.128 600.559L700.948 600.741L695.79 595.584V557.986H696.047V595.478L701.128 600.559Z" fill="white"/>
</g>
</g>
<g id="my-profile-img">
<path id="photo" d="M756.183 556V590.451L756.161 590.482L751.298 597.774H704.395L704.36 597.737L700.495 593.873V559.226L700.534 556.332L711.222 545.499H721.568L721.604 545.536L724.98 548.912H748.869L748.906 548.948L756.183 556Z" fill="white"/>
</g>
</g>
<g id="enemy-HUD">
<g id="enemy-profile-frame_2">
<g id="profile frame_2">
<path id="Vector_172" d="M166.689 17.3652V65.3025L166.654 65.3558L159.764 75.6917H128.847L128.783 75.6291L125.434 72.2788H101.546L101.483 72.2164L98.0083 68.7392V17.3652L98.069 17.3027L101.421 13.9523V10.5396L101.483 10.4771L104.958 7H135.844L135.909 7.06246L139.259 10.4146H159.733L159.796 10.4771L166.689 17.3652ZM166.262 65.1739V17.5416L159.562 10.841H139.084L139.022 10.7784L135.672 7.42634H105.133L101.845 10.716V14.1289L101.785 14.1913L98.4328 17.5416V68.5628L101.72 71.8506H125.609L125.672 71.9131L129.021 75.2652H159.526L166.262 65.1739Z" fill="white"/>
<path id="Vector_173" d="M163.192 24.2256V58.451L163.17 58.4822L156.306 68.774H108.404L108.369 68.7372L101.503 61.8729V24.2256L101.542 24.1888L115.23 10.499H125.576L125.613 10.5357L128.988 13.9118H152.877L152.914 13.9485L163.192 24.2256ZM162.934 58.3738V24.3321L152.771 14.1691H128.882L128.845 14.1305L125.469 10.7544H115.337L101.761 24.3321V61.7719L108.512 68.5222H156.168L162.934 58.3738Z" fill="white"/>
<path id="Vector_174" d="M127.23 70.3564L130.642 73.7711V72.0638L128.935 70.3564H127.23Z" fill="white"/>
<path id="Vector_175" d="M127.23 8.91846L130.642 12.3331V10.6258L128.935 8.91846H127.23Z" fill="white"/>
<path id="Vector_176" d="M110.473 8.79199L105.098 14.1694H103.031L108.404 8.79199H110.473ZM104.991 13.9121L109.855 9.04927H108.512L103.646 13.9121H104.991Z" fill="white"/>
<path id="Vector_177" d="M157.945 71.9353V72.1926H132.294L132.258 72.1559L130.552 70.4485L130.732 70.2666L132.403 71.9353H157.945Z" fill="white"/>
<path id="Vector_178" d="M158.035 15.6561L157.855 15.8362L154.478 12.462H137.414L137.377 12.4234L135.709 10.7546H132.294L132.258 10.7179L130.552 9.01056L130.732 8.82861L132.403 10.4973H135.815L135.852 10.5359L137.52 12.2047H154.584L154.621 12.2414L158.035 15.6561Z" fill="white"/>
<path id="Vector_179" d="M146.001 11.9067H140.881V12.7595H146.001V11.9067Z" fill="white"/>
<path id="Vector_180" d="M157.945 71.6377H152.826V72.4904H157.945V71.6377Z" fill="white"/>
<path id="Vector_181" d="M105.136 68.5591L104.956 68.741L99.7981 63.5841V25.9863H100.055V63.4776L105.136 68.5591Z" fill="white"/>
</g>
</g>
<g id="enemy-username">
<path id="u" d="M186.298 38.5055H184.218L184.57 27.8015H186.65L186.298 38.5055ZM181.978 38.5055H179.914L180.266 27.8015H182.346L181.978 38.5055ZM185.882 36.4255V38.5055H180.41L180.49 36.4255H185.882Z" fill="#DB0000"/>
</g>
<g id="enemy-address">
<path id="enemy address" d="M186.186 47.9282V49.229C186.186 49.9282 186.124 50.5181 185.999 50.9985C185.874 51.479 185.694 51.8657 185.459 52.1587C185.225 52.4517 184.942 52.6646 184.61 52.7974C184.282 52.9263 183.911 52.9907 183.497 52.9907C183.168 52.9907 182.866 52.9497 182.588 52.8677C182.311 52.7856 182.061 52.6548 181.838 52.4751C181.62 52.2915 181.432 52.0532 181.276 51.7603C181.12 51.4673 181 51.1118 180.918 50.6938C180.836 50.2759 180.795 49.7876 180.795 49.229V47.9282C180.795 47.229 180.858 46.6431 180.983 46.1704C181.112 45.6978 181.293 45.3188 181.528 45.0337C181.762 44.7446 182.043 44.5376 182.372 44.4126C182.704 44.2876 183.075 44.2251 183.485 44.2251C183.817 44.2251 184.122 44.2661 184.399 44.3481C184.68 44.4263 184.93 44.5532 185.149 44.729C185.368 44.9009 185.553 45.1313 185.706 45.4204C185.862 45.7056 185.981 46.0552 186.063 46.4692C186.145 46.8833 186.186 47.3696 186.186 47.9282ZM185.096 49.4048V47.7466C185.096 47.3638 185.073 47.0278 185.026 46.7388C184.983 46.4458 184.918 46.1958 184.833 45.9888C184.747 45.7817 184.637 45.6138 184.504 45.4849C184.375 45.356 184.225 45.2622 184.053 45.2036C183.885 45.1411 183.696 45.1099 183.485 45.1099C183.227 45.1099 182.999 45.1587 182.799 45.2563C182.6 45.3501 182.432 45.5005 182.295 45.7075C182.163 45.9146 182.061 46.186 181.991 46.522C181.92 46.8579 181.885 47.2661 181.885 47.7466V49.4048C181.885 49.7876 181.907 50.1255 181.95 50.4185C181.997 50.7114 182.065 50.9653 182.155 51.1802C182.245 51.3911 182.354 51.5649 182.483 51.7017C182.612 51.8384 182.76 51.9399 182.928 52.0063C183.1 52.0688 183.29 52.1001 183.497 52.1001C183.762 52.1001 183.995 52.0493 184.194 51.9478C184.393 51.8462 184.559 51.688 184.692 51.4731C184.829 51.2544 184.93 50.9751 184.997 50.6353C185.063 50.2915 185.096 49.8813 185.096 49.4048Z" fill="white"/>
</g>
<path id="Vector_182" d="M262.8 29.9716L359.745 29.9716V28.5398L263.56 28.5398L244.542 0L206.125 0V1.43175L243.781 1.43175L262.8 29.9716Z" fill="#515151"/>
<path id="Vector_183" d="M98.0185 0.000452634L243.963 0.000465393L243.963 1.43221L131.871 1.4322L98.7792 1.4322L89.7608 13.972L89.0001 68.4033L89.0001 66.9716L89.0001 12.5403L98.0185 0.000452634Z" fill="#515151"/>
<g id="Enemy-profile-img">
<path id="photo_2" d="M160.688 24.501V58.952L160.666 58.9832L155.803 66.2749H108.9L108.865 66.2381L105 62.3739V27.7266L105.039 24.8331L115.727 14H126.073L126.109 14.0367L129.485 17.4128H153.374L153.411 17.4495L160.688 24.501Z" fill="white"/>
</g>
<path id="enemy fleet" d="M403.809 31.0801V32H399.291V31.0801H403.809ZM399.52 23.4688V32H398.389V23.4688H399.52ZM403.211 27.1367V28.0566H399.291V27.1367H403.211ZM403.75 23.4688V24.3945H399.291V23.4688H403.75ZM406.129 27.0137V32H405.045V25.6602H406.07L406.129 27.0137ZM405.871 28.5898L405.42 28.5723C405.424 28.1387 405.488 27.7383 405.613 27.3711C405.738 27 405.914 26.6777 406.141 26.4043C406.367 26.1309 406.637 25.9199 406.949 25.7715C407.266 25.6191 407.615 25.543 407.998 25.543C408.311 25.543 408.592 25.5859 408.842 25.6719C409.092 25.7539 409.305 25.8867 409.48 26.0703C409.66 26.2539 409.797 26.4922 409.891 26.7852C409.984 27.0742 410.031 27.4277 410.031 27.8457V32H408.941V27.834C408.941 27.502 408.893 27.2363 408.795 27.0371C408.697 26.834 408.555 26.6875 408.367 26.5977C408.18 26.5039 407.949 26.457 407.676 26.457C407.406 26.457 407.16 26.5137 406.938 26.627C406.719 26.7402 406.529 26.8965 406.369 27.0957C406.213 27.2949 406.09 27.5234 406 27.7812C405.914 28.0352 405.871 28.3047 405.871 28.5898ZM414.309 32.1172C413.867 32.1172 413.467 32.043 413.107 31.8945C412.752 31.7422 412.445 31.5293 412.188 31.2559C411.934 30.9824 411.738 30.6582 411.602 30.2832C411.465 29.9082 411.396 29.498 411.396 29.0527V28.8066C411.396 28.291 411.473 27.832 411.625 27.4297C411.777 27.0234 411.984 26.6797 412.246 26.3984C412.508 26.1172 412.805 25.9043 413.137 25.7598C413.469 25.6152 413.812 25.543 414.168 25.543C414.621 25.543 415.012 25.6211 415.34 25.7773C415.672 25.9336 415.943 26.1523 416.154 26.4336C416.365 26.7109 416.521 27.0391 416.623 27.418C416.725 27.793 416.775 28.2031 416.775 28.6484V29.1348H412.041V28.25H415.691V28.168C415.676 27.8867 415.617 27.6133 415.516 27.3477C415.418 27.082 415.262 26.8633 415.047 26.6914C414.832 26.5195 414.539 26.4336 414.168 26.4336C413.922 26.4336 413.695 26.4863 413.488 26.5918C413.281 26.6934 413.104 26.8457 412.955 27.0488C412.807 27.252 412.691 27.5 412.609 27.793C412.527 28.0859 412.486 28.4238 412.486 28.8066V29.0527C412.486 29.3535 412.527 29.6367 412.609 29.9023C412.695 30.1641 412.818 30.3945 412.979 30.5938C413.143 30.793 413.34 30.9492 413.57 31.0625C413.805 31.1758 414.07 31.2324 414.367 31.2324C414.75 31.2324 415.074 31.1543 415.34 30.998C415.605 30.8418 415.838 30.6328 416.037 30.3711L416.693 30.8926C416.557 31.0996 416.383 31.2969 416.172 31.4844C415.961 31.6719 415.701 31.8242 415.393 31.9414C415.088 32.0586 414.727 32.1172 414.309 32.1172ZM419.119 26.9199V32H418.029V25.6602H419.061L419.119 26.9199ZM418.896 28.5898L418.393 28.5723C418.396 28.1387 418.453 27.7383 418.562 27.3711C418.672 27 418.834 26.6777 419.049 26.4043C419.264 26.1309 419.531 25.9199 419.852 25.7715C420.172 25.6191 420.543 25.543 420.965 25.543C421.262 25.543 421.535 25.5859 421.785 25.6719C422.035 25.7539 422.252 25.8848 422.436 26.0645C422.619 26.2441 422.762 26.4746 422.863 26.7559C422.965 27.0371 423.016 27.377 423.016 27.7754V32H421.932V27.8281C421.932 27.4961 421.875 27.2305 421.762 27.0312C421.652 26.832 421.496 26.6875 421.293 26.5977C421.09 26.5039 420.852 26.457 420.578 26.457C420.258 26.457 419.99 26.5137 419.775 26.627C419.561 26.7402 419.389 26.8965 419.26 27.0957C419.131 27.2949 419.037 27.5234 418.979 27.7812C418.924 28.0352 418.896 28.3047 418.896 28.5898ZM423.004 27.9922L422.277 28.2148C422.281 27.8672 422.338 27.5332 422.447 27.2129C422.561 26.8926 422.723 26.6074 422.934 26.3574C423.148 26.1074 423.412 25.9102 423.725 25.7656C424.037 25.6172 424.395 25.543 424.797 25.543C425.137 25.543 425.438 25.5879 425.699 25.6777C425.965 25.7676 426.188 25.9062 426.367 26.0938C426.551 26.2773 426.689 26.5137 426.783 26.8027C426.877 27.0918 426.924 27.4355 426.924 27.834V32H425.834V27.8223C425.834 27.4668 425.777 27.1914 425.664 26.9961C425.555 26.7969 425.398 26.6582 425.195 26.5801C424.996 26.498 424.758 26.457 424.48 26.457C424.242 26.457 424.031 26.498 423.848 26.5801C423.664 26.6621 423.51 26.7754 423.385 26.9199C423.26 27.0605 423.164 27.2227 423.098 27.4062C423.035 27.5898 423.004 27.7852 423.004 27.9922ZM430.346 31.3438L432.109 25.6602H433.27L430.727 32.9785C430.668 33.1348 430.59 33.3027 430.492 33.4824C430.398 33.666 430.277 33.8398 430.129 34.0039C429.98 34.168 429.801 34.3008 429.59 34.4023C429.383 34.5078 429.135 34.5605 428.846 34.5605C428.76 34.5605 428.65 34.5488 428.518 34.5254C428.385 34.502 428.291 34.4824 428.236 34.4668L428.23 33.5879C428.262 33.5918 428.311 33.5957 428.377 33.5996C428.447 33.6074 428.496 33.6113 428.523 33.6113C428.77 33.6113 428.979 33.5781 429.15 33.5117C429.322 33.4492 429.467 33.3418 429.584 33.1895C429.705 33.041 429.809 32.8359 429.895 32.5742L430.346 31.3438ZM429.051 25.6602L430.697 30.582L430.979 31.7246L430.199 32.123L427.867 25.6602H429.051ZM438.52 23.4688V32H437.389V23.4688H438.52ZM442.094 27.3066V28.2324H438.273V27.3066H442.094ZM442.674 23.4688V24.3945H438.273V23.4688H442.674ZM445.035 23V32H443.945V23H445.035ZM449.406 32.1172C448.965 32.1172 448.564 32.043 448.205 31.8945C447.85 31.7422 447.543 31.5293 447.285 31.2559C447.031 30.9824 446.836 30.6582 446.699 30.2832C446.562 29.9082 446.494 29.498 446.494 29.0527V28.8066C446.494 28.291 446.57 27.832 446.723 27.4297C446.875 27.0234 447.082 26.6797 447.344 26.3984C447.605 26.1172 447.902 25.9043 448.234 25.7598C448.566 25.6152 448.91 25.543 449.266 25.543C449.719 25.543 450.109 25.6211 450.438 25.7773C450.77 25.9336 451.041 26.1523 451.252 26.4336C451.463 26.7109 451.619 27.0391 451.721 27.418C451.822 27.793 451.873 28.2031 451.873 28.6484V29.1348H447.139V28.25H450.789V28.168C450.773 27.8867 450.715 27.6133 450.613 27.3477C450.516 27.082 450.359 26.8633 450.145 26.6914C449.93 26.5195 449.637 26.4336 449.266 26.4336C449.02 26.4336 448.793 26.4863 448.586 26.5918C448.379 26.6934 448.201 26.8457 448.053 27.0488C447.904 27.252 447.789 27.5 447.707 27.793C447.625 28.0859 447.584 28.4238 447.584 28.8066V29.0527C447.584 29.3535 447.625 29.6367 447.707 29.9023C447.793 30.1641 447.916 30.3945 448.076 30.5938C448.24 30.793 448.438 30.9492 448.668 31.0625C448.902 31.1758 449.168 31.2324 449.465 31.2324C449.848 31.2324 450.172 31.1543 450.438 30.998C450.703 30.8418 450.936 30.6328 451.135 30.3711L451.791 30.8926C451.654 31.0996 451.48 31.2969 451.27 31.4844C451.059 31.6719 450.799 31.8242 450.49 31.9414C450.186 32.0586 449.824 32.1172 449.406 32.1172ZM455.77 32.1172C455.328 32.1172 454.928 32.043 454.568 31.8945C454.213 31.7422 453.906 31.5293 453.648 31.2559C453.395 30.9824 453.199 30.6582 453.062 30.2832C452.926 29.9082 452.857 29.498 452.857 29.0527V28.8066C452.857 28.291 452.934 27.832 453.086 27.4297C453.238 27.0234 453.445 26.6797 453.707 26.3984C453.969 26.1172 454.266 25.9043 454.598 25.7598C454.93 25.6152 455.273 25.543 455.629 25.543C456.082 25.543 456.473 25.6211 456.801 25.7773C457.133 25.9336 457.404 26.1523 457.615 26.4336C457.826 26.7109 457.982 27.0391 458.084 27.418C458.186 27.793 458.236 28.2031 458.236 28.6484V29.1348H453.502V28.25H457.152V28.168C457.137 27.8867 457.078 27.6133 456.977 27.3477C456.879 27.082 456.723 26.8633 456.508 26.6914C456.293 26.5195 456 26.4336 455.629 26.4336C455.383 26.4336 455.156 26.4863 454.949 26.5918C454.742 26.6934 454.564 26.8457 454.416 27.0488C454.268 27.252 454.152 27.5 454.07 27.793C453.988 28.0859 453.947 28.4238 453.947 28.8066V29.0527C453.947 29.3535 453.988 29.6367 454.07 29.9023C454.156 30.1641 454.279 30.3945 454.439 30.5938C454.604 30.793 454.801 30.9492 455.031 31.0625C455.266 31.1758 455.531 31.2324 455.828 31.2324C456.211 31.2324 456.535 31.1543 456.801 30.998C457.066 30.8418 457.299 30.6328 457.498 30.3711L458.154 30.8926C458.018 31.0996 457.844 31.2969 457.633 31.4844C457.422 31.6719 457.162 31.8242 456.854 31.9414C456.549 32.0586 456.188 32.1172 455.77 32.1172ZM462.156 25.6602V26.4922H458.729V25.6602H462.156ZM459.889 24.1191H460.973V30.4297C460.973 30.6445 461.006 30.8066 461.072 30.916C461.139 31.0254 461.225 31.0977 461.33 31.1328C461.436 31.168 461.549 31.1855 461.67 31.1855C461.76 31.1855 461.854 31.1777 461.951 31.1621C462.053 31.1426 462.129 31.127 462.18 31.1152L462.186 32C462.1 32.0273 461.986 32.0527 461.846 32.0762C461.709 32.1035 461.543 32.1172 461.348 32.1172C461.082 32.1172 460.838 32.0645 460.615 31.959C460.393 31.8535 460.215 31.6777 460.082 31.4316C459.953 31.1816 459.889 30.8457 459.889 30.4238V24.1191Z" fill="#5E5E5E"/>
</g>
</g>
<defs>
<clipPath id="clip0_303_27279">
<rect width="86" height="22" fill="white" transform="translate(104 536)"/>
</clipPath>
</defs>
</svg>
