<svg width="389" height="61" viewBox="0 0 389 61" fill="none" xmlns="http://www.w3.org/2000/svg">
<path d="M238.834 36.0564C236.662 27.1756 231.834 19.1677 224.996 13.0992L225.74 12.2573C232.75 18.4778 237.698 26.6856 239.926 35.7881L238.834 36.0564Z" fill="white"/>
<path d="M240.663 45.0224C240.435 45.0304 240.213 44.949 240.045 44.7956C239.876 44.6423 239.774 44.4291 239.761 44.2016C239.752 43.9737 239.831 43.7511 239.982 43.5801C240.133 43.4091 240.344 43.3028 240.571 43.2834C240.685 43.2748 240.799 43.2894 240.907 43.3264C241.015 43.3633 241.115 43.4218 241.2 43.4983C241.285 43.5748 241.353 43.6676 241.401 43.7714C241.449 43.8751 241.475 43.9874 241.478 44.1016C241.487 44.2159 241.472 44.3307 241.435 44.4392C241.398 44.5477 241.34 44.6478 241.264 44.7336C241.189 44.8194 241.096 44.8891 240.993 44.9387C240.889 44.9883 240.777 45.0168 240.663 45.0224Z" fill="white"/>
<path d="M228.203 16.2378C227.443 16.2115 226.677 16.2141 225.935 16.2194C224.157 14.4392 222.23 12.8153 220.173 11.3654C220.979 11.1918 221.752 11.1023 222.586 10.9734C224.527 12.448 226.343 14.0812 228.013 15.8563C228.085 15.9826 228.15 16.1063 228.203 16.2378Z" fill="white"/>
<path d="M216.077 8.23722L215.093 7.70315L216.648 4.64868L217.708 5.22222L216.077 8.23722Z" fill="white"/>
<path d="M186.861 2.63604C177.88 4.34978 169.632 8.75402 163.212 15.2643L162.409 14.4751C168.99 7.80197 177.444 3.2884 186.651 1.53369L186.861 2.63604Z" fill="white"/>
<path d="M149.994 49.161L149.713 49.1768C149.397 43.611 150.12 38.0351 151.844 32.7337C153.568 27.4352 156.235 22.4914 159.715 18.1401L159.934 18.3138C156.476 22.6402 153.825 27.5543 152.11 32.8205C150.397 38.0891 149.68 43.6302 149.994 49.161Z" fill="white"/>
<path d="M149.815 48.4426C150.043 48.4333 150.266 48.5137 150.435 48.6667C150.604 48.8198 150.707 49.0331 150.72 49.2608C150.73 49.4889 150.651 49.7118 150.5 49.883C150.349 50.0541 150.138 50.1602 149.91 50.179C149.796 50.1876 149.682 50.173 149.574 50.1361C149.465 50.0991 149.366 50.0407 149.281 49.9642C149.196 49.8877 149.128 49.7948 149.08 49.6911C149.032 49.5873 149.006 49.475 149.002 49.3608C148.994 49.2468 149.008 49.1322 149.045 49.0239C149.081 48.9155 149.139 48.8155 149.215 48.7299C149.291 48.6443 149.383 48.5748 149.486 48.5254C149.589 48.4761 149.701 48.4479 149.815 48.4426Z" fill="white"/>
<path d="M160.384 17.5612C160.47 17.633 160.542 17.7211 160.594 17.8206C160.646 17.92 160.678 18.0288 160.689 18.1407C160.699 18.2526 160.687 18.3655 160.654 18.4728C160.62 18.5801 160.566 18.6798 160.494 18.7661C160.423 18.8542 160.336 18.9275 160.237 18.9818C160.138 19.0361 160.029 19.0703 159.916 19.0825C159.804 19.0947 159.69 19.0847 159.582 19.053C159.473 19.0212 159.372 18.9685 159.284 18.8976C159.196 18.8268 159.123 18.7393 159.068 18.6402C159.014 18.541 158.98 18.4322 158.968 18.3198C158.955 18.2074 158.965 18.0937 158.997 17.9852C159.029 17.8767 159.082 17.7755 159.152 17.6874C159.225 17.5981 159.314 17.5239 159.415 17.4692C159.516 17.4145 159.627 17.3803 159.742 17.3686C159.856 17.3568 159.972 17.3678 160.082 17.4008C160.192 17.4339 160.295 17.4884 160.384 17.5612Z" fill="white"/>
<path d="M162.409 14.4725C162.409 13.906 162.425 13.3342 162.457 12.7572C165.926 9.40933 169.888 6.61269 174.204 4.4646C174.869 4.66981 175.519 4.90134 176.172 5.13022L175.646 5.40647L175.038 5.72218L174.264 6.1668C173.701 6.49566 173.036 6.8666 172.357 7.32175L171.305 8.00316L170.252 8.75823C168.951 9.68956 167.699 10.6889 166.503 11.7522C165.995 12.1705 165.611 12.5704 165.319 12.8335C165.027 13.0966 164.856 13.2597 164.833 13.2702L164.37 13.4728L163.559 13.8832L162.409 14.4725Z" fill="white"/>
<path d="M186.651 1.53125L186.716 1.57334L187.506 2.09952L188.295 2.66517C190.556 2.29804 192.844 2.11415 195.135 2.1153L195.567 2.52835C195.777 2.73356 195.975 2.93877 195.94 2.93877H194.441C193.996 2.93877 193.483 2.98087 192.931 3.00191L192.083 3.04402C191.794 3.06243 191.502 3.09926 191.21 3.12557C190.039 3.22029 188.882 3.40708 188.013 3.53599C187.579 3.60176 187.224 3.68858 186.961 3.73331L186.566 3.81223C186.064 3.47022 185.548 3.11767 185.027 2.80723L186.651 1.53125Z" fill="white"/>
<path d="M202.583 3.55171L201.478 3.39123L201.968 0L203.159 0.173639L202.583 3.55171Z" fill="white"/>
<path d="M208.995 5.15658L207.927 4.83035L208.924 1.55225C209.308 1.66801 209.695 1.78114 210.076 1.90479L208.995 5.15658Z" fill="white"/>
<path d="M215.093 7.70337L214.086 7.22192L215.562 4.13062L216.648 4.6489L215.093 7.70337Z" fill="white"/>
<path d="M179.548 22.794L179.314 30.174L178.486 30.534L178 30.75L176.938 31.218V31.2L175.678 31.722H174.346L174.22 34.818H171.934L172.384 22.794H173.608H174.724H177.208H178.648H179.548ZM175.678 29.31L177.01 28.734L177.118 25.098H174.634L174.454 29.31H175.678ZM182.411 34.836H180.071L180.485 22.776H182.825L182.411 34.836ZM185.575 34.836H183.253L183.649 22.794H185.989L185.575 34.836ZM184.171 34.836L183.289 33.72L189.139 31.2V33.63L186.349 34.836H184.171ZM184.675 25.116V22.794H189.715L189.481 25.116H184.675ZM192.34 34.836H190L190.414 22.794H192.754L192.34 34.836ZM191.224 31.83L190.846 28.806L195.49 22.812H198.694L191.224 31.83ZM192.502 26.484L197.902 34.836H195.31L191.638 29.238L192.502 26.484ZM201.185 34.836H198.845L199.259 22.776H201.599L201.185 34.836ZM204.349 34.836H202.009L202.441 22.794H204.781L204.349 34.836ZM209.857 34.836H207.517L207.949 22.794H210.289L209.857 34.836ZM210.163 26.628L209.713 27.366L204.565 25.134L204.781 22.794L210.019 25.062L210.163 26.628ZM217.762 33.126L215.422 34.116L215.548 28.032H217.888L217.762 33.126ZM213.028 34.836H210.706L211.12 22.794H213.46L213.028 34.836ZM211.624 34.836L210.742 33.72L216.196 31.344V33.792L213.802 34.836H211.624ZM212.308 25.116V22.794H217.978L217.888 25.116H212.308Z" fill="#DB0000"/>
<path fill-rule="evenodd" clip-rule="evenodd" d="M199.825 17.7668C200.058 17.509 200.058 17.0922 199.825 16.8351L194.866 11.386C194.757 11.2641 194.626 11.1669 194.48 11.1006C194.334 11.0342 194.177 11 194.018 11C193.86 11 193.703 11.0342 193.557 11.1006C193.411 11.1669 193.28 11.2641 193.17 11.386L188.175 16.8746C188.064 16.9992 188.001 17.1641 188 17.336C187.999 17.5078 188.06 17.6737 188.17 17.7999C188.224 17.8624 188.29 17.9124 188.363 17.9468C188.436 17.9812 188.515 17.9993 188.596 18C188.676 18.0006 188.755 17.9838 188.829 17.9506C188.903 17.9174 188.969 17.8685 189.024 17.8069L193.595 12.7835C193.649 12.7225 193.715 12.6739 193.788 12.6406C193.861 12.6074 193.939 12.5903 194.018 12.5903C194.098 12.5903 194.176 12.6074 194.249 12.6406C194.322 12.6739 194.388 12.7225 194.443 12.7835L198.977 17.7668C199.031 17.8278 199.097 17.8764 199.17 17.9096C199.243 17.9428 199.321 17.9599 199.401 17.9599C199.48 17.9599 199.558 17.9428 199.631 17.9096C199.704 17.8764 199.77 17.8278 199.825 17.7668Z" fill="#DB0000"/>
<path d="M236.091 60.8118L236.091 59.9439L242.855 59.9439L249.799 53L388.857 53L388.857 53.868L250.16 53.868L243.216 60.8118L236.091 60.8118Z" fill="white"/>
<path d="M-3.79408e-08 53.868L0 53L139.058 53L146.002 59.9439L152.765 59.9439L152.765 60.8119L145.641 60.8119L138.697 53.868L-3.79408e-08 53.868Z" fill="white"/>
</svg>
