<svg width="88" height="101" viewBox="0 0 88 101" fill="none" xmlns="http://www.w3.org/2000/svg">
<path d="M87 75.2491V25.7491L44 1L1 25.7491V75.2491L44 100L87 75.2491Z" fill="#DB0000" fill-opacity="0.06" stroke="#DB0000" stroke-miterlimit="10"/>
<path d="M68 15V33C68 36.3137 70.6863 39 74 39H87" stroke="#DB0000" stroke-miterlimit="10"/>
<path d="M79.8624 31.1999L78.1625 29.5L79.8624 27.8001C80.0459 27.6166 80.0459 27.3212 79.8624 27.1376C79.6788 26.9541 79.3834 26.9541 79.1999 27.1376L77.5 28.8375L75.8001 27.1376C75.6166 26.9541 75.3212 26.9541 75.1376 27.1376C74.9541 27.3212 74.9541 27.6166 75.1376 27.8001L76.8375 29.5L75.1376 31.1999C74.9541 31.3834 74.9541 31.6788 75.1376 31.8624C75.3212 32.0459 75.6166 32.0459 75.8001 31.8624L77.5 30.1625L79.1999 31.8624C79.3834 32.0459 79.6788 32.0459 79.8624 31.8624C80.0446 31.6788 80.0446 31.3821 79.8624 31.1999Z" fill="#DB0000"/>
</svg>
