<svg width="122" height="121" viewBox="0 0 122 121" fill="none" xmlns="http://www.w3.org/2000/svg">
<path d="M94.5171 101.77H69.2615L69.1842 101.696L65.087 97.6567H56.9468L52.7723 101.77H27.5167L27.4395 101.696L19.0154 93.3935V68.5093L19.0905 68.4332L23.1899 64.3962V56.3757L19.0154 52.2626V27.3784L19.0905 27.3023L27.5167 19H52.7723L52.8495 19.0761L56.9468 23.1131H65.087L69.2615 19H94.5171L94.5943 19.0761L103.02 27.3784V52.2626L102.943 52.3387L98.8397 56.3757V64.3962L103.014 68.5093V93.3935L102.937 93.4696L94.5171 101.77ZM69.4702 101.256H94.3084L102.505 93.1816V68.7087L98.3305 64.5956V56.1638L98.4056 56.0878L102.505 52.0507V27.5778L94.3084 19.5018H69.4702L65.2957 23.6149H56.738L56.6608 23.5409L52.5636 19.5018H27.7254L19.5247 27.5841V52.0569L23.6991 56.17V64.6019L23.6219 64.678L19.5247 68.7149V93.1878L27.7192 101.262H52.5573L56.7318 97.1487H65.2895L65.3667 97.2248L69.4702 101.256Z" fill="#0050DB"/>
<g filter="url(#filter0_f_220_5717)">
<path d="M90.3008 93.4432H31.7266L31.6807 93.3959L27.4561 89.2396V31.5268L27.502 31.4836L31.7224 27.3232H90.2967L90.3426 27.3705L94.563 31.5268V89.2396L94.5171 89.2828L90.3008 93.4432Z" fill="#00286D"/>
</g>
<path d="M29.8627 25.5768H27.4561V23.2097H29.8585L29.8627 25.5768ZM27.7755 25.2663H29.5434V23.5202H27.7713L27.7755 25.2663Z" fill="#0050DB"/>
<path d="M34.0372 25.5768H31.6306V23.2097H34.033L34.0372 25.5768ZM31.95 25.2663H33.7179V23.5202H31.9458L31.95 25.2663Z" fill="#0050DB"/>
<path d="M38.2117 25.5768H35.8051V23.2097H38.2075L38.2117 25.5768ZM36.1245 25.2663H37.8924V23.5202H36.1203L36.1245 25.2663Z" fill="#0050DB"/>
<path d="M42.3862 25.5768H39.9796V23.2097H42.382L42.3862 25.5768ZM40.299 25.2663H42.0669V23.5202H40.2948L40.299 25.2663Z" fill="#0050DB"/>
<path d="M46.5606 25.5768H44.154V23.2097H46.5564L46.5606 25.5768ZM44.4733 25.2663H46.2412V23.5202H44.4692L44.4733 25.2663Z" fill="#0050DB"/>
<path d="M50.7351 25.5768H48.3285V23.2097H50.7309L50.7351 25.5768ZM48.6478 25.2663H50.4157V23.5202H48.6437L48.6478 25.2663Z" fill="#0050DB"/>
<path d="M73.6947 25.5768H71.2881V23.2097H73.6906L73.6947 25.5768ZM71.6075 25.2663H73.3754V23.5202H71.6033L71.6075 25.2663Z" fill="#0050DB"/>
<path d="M77.8692 25.5768H75.4626V23.2097H77.8651L77.8692 25.5768ZM75.782 25.2663H77.5499V23.5202H75.7778L75.782 25.2663Z" fill="#0050DB"/>
<path d="M82.0437 25.5768H79.6371V23.2097H82.0395L82.0437 25.5768ZM79.9564 25.2663H81.7243V23.5202H79.9523L79.9564 25.2663Z" fill="#0050DB"/>
<path d="M86.2182 25.5768H83.8116V23.2097H86.214L86.2182 25.5768ZM84.1309 25.2663H85.8988V23.5202H84.1268L84.1309 25.2663Z" fill="#0050DB"/>
<path d="M90.3926 25.5768H87.986V23.2097H90.3884L90.3926 25.5768ZM88.3054 25.2663H90.0733V23.5202H88.3012L88.3054 25.2663Z" fill="#0050DB"/>
<path d="M94.5671 25.5768H92.1605V23.2097H94.5629L94.5671 25.5768ZM92.4799 25.2663H94.2478V23.5202H92.4757L92.4799 25.2663Z" fill="#0050DB"/>
<path d="M30.0839 95.4995H27.5521L27.5062 95.4522L23.0729 91.0759H25.6047L25.6506 91.1232L30.0839 95.4995ZM27.6836 95.189H29.3346L25.4732 91.3864H23.8305L27.6836 95.189Z" fill="#0050DB"/>
<path d="M94.4753 95.4995H91.9518L96.4393 91.0759H98.9711L94.4753 95.4995ZM92.7011 95.189H94.3438L98.2051 91.3864H96.5625L92.7011 95.189Z" fill="#0050DB"/>
<path d="M19.27 56.2688L21.3572 58.3253V62.4384L19.27 64.495V56.2688Z" fill="#0050DB"/>
<path d="M102.76 56.2688L100.672 58.3253V62.4384L102.76 64.495V56.2688Z" fill="#0050DB"/>
<defs>
<filter id="filter0_f_220_5717" x="0.456116" y="0.323242" width="121.107" height="120.12" filterUnits="userSpaceOnUse" color-interpolation-filters="sRGB">
<feFlood flood-opacity="0" result="BackgroundImageFix"/>
<feBlend mode="normal" in="SourceGraphic" in2="BackgroundImageFix" result="shape"/>
<feGaussianBlur stdDeviation="13.5" result="effect1_foregroundBlur_220_5717"/>
</filter>
</defs>
</svg>
