<svg width="85" height="83" viewBox="0 0 85 83" fill="none" xmlns="http://www.w3.org/2000/svg">
<path d="M75.5017 82.7698H50.2461L50.1688 82.6958L46.0716 78.6567H37.9314L33.7569 82.7698H8.50132L8.42409 82.6958L0 74.3935V49.5093L0.0751375 49.4332L4.17448 45.3962V37.3757L0 33.2626V8.37841L0.0751375 8.30229L8.50132 0H33.7569L33.8341 0.0761162L37.9314 4.11309H46.0716L50.2461 0H75.5017L75.5789 0.0761162L84.0051 8.37841V33.2626L83.9278 33.3387L79.8244 37.3757V45.3962L83.9988 49.5093V74.3935L83.9216 74.4696L75.5017 82.7698ZM50.4548 82.2556H75.293L83.4896 74.1816V49.7087L79.3151 45.5956V37.1638L79.3902 37.0878L83.4896 33.0507V8.57784L75.293 0.501785H50.4548L46.2803 4.61487H37.7227L37.6454 4.54086L33.5482 0.501785H8.71004L0.509274 8.58406V33.0569L4.68375 37.17V45.6019L4.60653 45.678L0.509274 49.7149V74.1878L8.70378 82.2618H33.5419L37.7164 78.1487H46.2741L46.3513 78.2248L50.4548 82.2556Z" fill="#0050DB"/>
<g filter="url(#filter0_f_220_6070)">
<path d="M71.2854 74.4432H12.7112L12.6652 74.3959L8.44067 70.2396V12.5268L8.48659 12.4836L12.707 8.32324H71.2812L71.3271 8.37054L75.5475 12.5268V70.2396L75.5016 70.2828L71.2854 74.4432Z" fill="#00286D"/>
</g>
<path d="M10.8473 6.57675H8.44067V4.20972H10.8431L10.8473 6.57675ZM8.76003 6.26626H10.5279V4.52021H8.75585L8.76003 6.26626Z" fill="#0050DB"/>
<path d="M15.0217 6.57675H12.6151V4.20972H15.0175L15.0217 6.57675ZM12.9345 6.26626H14.7024V4.52021H12.9303L12.9345 6.26626Z" fill="#0050DB"/>
<path d="M19.1963 6.57675H16.7897V4.20972H19.1921L19.1963 6.57675ZM17.109 6.26626H18.8769V4.52021H17.1048L17.109 6.26626Z" fill="#0050DB"/>
<path d="M23.3707 6.57675H20.9641V4.20972H23.3665L23.3707 6.57675ZM21.2835 6.26626H23.0514V4.52021H21.2793L21.2835 6.26626Z" fill="#0050DB"/>
<path d="M27.545 6.57675H25.1384V4.20972H27.5408L27.545 6.57675ZM25.4578 6.26626H27.2257V4.52021H25.4536L25.4578 6.26626Z" fill="#0050DB"/>
<path d="M31.7196 6.57675H29.313V4.20972H31.7154L31.7196 6.57675ZM29.6323 6.26626H31.4002V4.52021H29.6282L29.6323 6.26626Z" fill="#0050DB"/>
<path d="M54.6793 6.57675H52.2727V4.20972H54.6751L54.6793 6.57675ZM52.5921 6.26626H54.3599V4.52021H52.5879L52.5921 6.26626Z" fill="#0050DB"/>
<path d="M58.8539 6.57675H56.4473V4.20972H58.8497L58.8539 6.57675ZM56.7666 6.26626H58.5345V4.52021H56.7624L56.7666 6.26626Z" fill="#0050DB"/>
<path d="M63.0282 6.57675H60.6216V4.20972H63.024L63.0282 6.57675ZM60.9409 6.26626H62.7088V4.52021H60.9368L60.9409 6.26626Z" fill="#0050DB"/>
<path d="M67.2027 6.57675H64.7961V4.20972H67.1986L67.2027 6.57675ZM65.1155 6.26626H66.8834V4.52021H65.1113L65.1155 6.26626Z" fill="#0050DB"/>
<path d="M71.3773 6.57675H68.9707V4.20972H71.3731L71.3773 6.57675ZM69.2901 6.26626H71.0579V4.52021H69.2859L69.2901 6.26626Z" fill="#0050DB"/>
<path d="M75.5516 6.57675H73.145V4.20972H75.5474L75.5516 6.57675ZM73.4644 6.26626H75.2323V4.52021H73.4602L73.4644 6.26626Z" fill="#0050DB"/>
<path d="M11.0684 76.4995H8.53658L8.49067 76.4522L4.05737 72.0759H6.5892L6.63511 72.1232L11.0684 76.4995ZM8.66808 76.189H10.3191L6.4577 72.3864H4.81504L8.66808 76.189Z" fill="#0050DB"/>
<path d="M75.4598 76.4995H72.9363L77.4238 72.0759H79.9556L75.4598 76.4995ZM73.6856 76.189H75.3282L79.1896 72.3864H77.547L73.6856 76.189Z" fill="#0050DB"/>
<path d="M0.254517 37.2688L2.34176 39.3253V43.4384L0.254517 45.495V37.2688Z" fill="#0050DB"/>
<path d="M83.744 37.2688L81.6567 39.3253V43.4384L83.744 45.495V37.2688Z" fill="#0050DB"/>
<defs>
<filter id="filter0_f_220_6070" x="2.44067" y="2.32324" width="79.1069" height="78.1199" filterUnits="userSpaceOnUse" color-interpolation-filters="sRGB">
<feFlood flood-opacity="0" result="BackgroundImageFix"/>
<feBlend mode="normal" in="SourceGraphic" in2="BackgroundImageFix" result="shape"/>
<feGaussianBlur stdDeviation="3" result="effect1_foregroundBlur_220_6070"/>
</filter>
</defs>
</svg>
