<svg width="88" height="101" viewBox="0 0 88 101" fill="none" xmlns="http://www.w3.org/2000/svg">
<path d="M87 75.2491V25.7491L44 1L1 25.7491V75.2491L44 100L87 75.2491Z" fill="url(#paint0_radial_247_1530)" stroke="white" stroke-miterlimit="10"/>
<path d="M30.1328 44.959H27.959V43.5879H30.1328C30.4688 43.5879 30.7422 43.5332 30.9531 43.4238C31.1641 43.3105 31.3184 43.1543 31.416 42.9551C31.5137 42.7559 31.5625 42.5312 31.5625 42.2812C31.5625 42.0273 31.5137 41.791 31.416 41.5723C31.3184 41.3535 31.1641 41.1777 30.9531 41.0449C30.7422 40.9121 30.4688 40.8457 30.1328 40.8457H28.5684V48H26.8105V39.4688H30.1328C30.8008 39.4688 31.373 39.5898 31.8496 39.832C32.3301 40.0703 32.6973 40.4004 32.9512 40.8223C33.2051 41.2441 33.332 41.7266 33.332 42.2695C33.332 42.8203 33.2051 43.2969 32.9512 43.6992C32.6973 44.1016 32.3301 44.4121 31.8496 44.6309C31.373 44.8496 30.8008 44.959 30.1328 44.959ZM40.0293 46.6289V48H35.7344V46.6289H40.0293ZM36.3027 39.4688V48H34.5449V39.4688H36.3027ZM44.623 40.9277L42.3027 48H40.4336L43.6035 39.4688H44.793L44.623 40.9277ZM46.5508 48L44.2246 40.9277L44.0371 39.4688H45.2383L48.4258 48H46.5508ZM46.4453 44.8242V46.2012H41.9395V44.8242H46.4453ZM54.0566 45.1699H55.8086C55.7734 45.7441 55.6152 46.2539 55.334 46.6992C55.0566 47.1445 54.668 47.4922 54.168 47.7422C53.6719 47.9922 53.0742 48.1172 52.375 48.1172C51.8281 48.1172 51.3379 48.0234 50.9043 47.8359C50.4707 47.6445 50.0996 47.3711 49.791 47.0156C49.4863 46.6602 49.2539 46.2305 49.0938 45.7266C48.9336 45.2227 48.8535 44.6582 48.8535 44.0332V43.4414C48.8535 42.8164 48.9355 42.252 49.0996 41.748C49.2676 41.2402 49.5059 40.8086 49.8145 40.4531C50.127 40.0977 50.5 39.8242 50.9336 39.6328C51.3672 39.4414 51.8516 39.3457 52.3867 39.3457C53.0977 39.3457 53.6973 39.4746 54.1855 39.7324C54.6777 39.9902 55.0586 40.3457 55.3281 40.7988C55.6016 41.252 55.7656 41.7676 55.8203 42.3457H54.0625C54.043 42.002 53.9746 41.7109 53.8574 41.4727C53.7402 41.2305 53.5625 41.0488 53.3242 40.9277C53.0898 40.8027 52.7773 40.7402 52.3867 40.7402C52.0938 40.7402 51.8379 40.7949 51.6191 40.9043C51.4004 41.0137 51.2168 41.1797 51.0684 41.4023C50.9199 41.625 50.8086 41.9062 50.7344 42.2461C50.6641 42.582 50.6289 42.9766 50.6289 43.4297V44.0332C50.6289 44.4746 50.6621 44.8633 50.7285 45.1992C50.7949 45.5312 50.8965 45.8125 51.0332 46.043C51.1738 46.2695 51.3535 46.4414 51.5723 46.5586C51.7949 46.6719 52.0625 46.7285 52.375 46.7285C52.7422 46.7285 53.0449 46.6699 53.2832 46.5527C53.5215 46.4355 53.7031 46.2617 53.8281 46.0312C53.957 45.8008 54.0332 45.5137 54.0566 45.1699ZM62.6875 46.6289V48H58.1465V46.6289H62.6875ZM58.7207 39.4688V48H56.9629V39.4688H58.7207ZM62.0957 42.9434V44.2793H58.1465V42.9434H62.0957ZM62.6816 39.4688V40.8457H58.1465V39.4688H62.6816ZM36.1211 56.9434V58.3145H31.668V56.9434H36.1211ZM32.1895 53.4688V62H30.4316V53.4688H32.1895ZM37.375 53.4688V62H35.623V53.4688H37.375ZM44.6289 60.6289V62H40.0879V60.6289H44.6289ZM40.6621 53.4688V62H38.9043V53.4688H40.6621ZM44.0371 56.9434V58.2793H40.0879V56.9434H44.0371ZM44.623 53.4688V54.8457H40.0879V53.4688H44.623ZM45.6543 53.4688H48.8359C49.4883 53.4688 50.0488 53.5664 50.5176 53.7617C50.9902 53.957 51.3535 54.2461 51.6074 54.6289C51.8613 55.0117 51.9883 55.4824 51.9883 56.041C51.9883 56.498 51.9102 56.8906 51.7539 57.2188C51.6016 57.543 51.3848 57.8145 51.1035 58.0332C50.8262 58.248 50.5 58.4199 50.125 58.5488L49.5684 58.8418H46.8027L46.791 57.4707H48.8477C49.1562 57.4707 49.4121 57.416 49.6152 57.3066C49.8184 57.1973 49.9707 57.0449 50.0723 56.8496C50.1777 56.6543 50.2305 56.4277 50.2305 56.1699C50.2305 55.8965 50.1797 55.6602 50.0781 55.4609C49.9766 55.2617 49.8223 55.1094 49.6152 55.0039C49.4082 54.8984 49.1484 54.8457 48.8359 54.8457H47.4121V62H45.6543V53.4688ZM50.4238 62L48.4785 58.1973L50.3359 58.1855L52.3047 61.918V62H50.4238ZM59.0664 60.6289V62H54.5254V60.6289H59.0664ZM55.0996 53.4688V62H53.3418V53.4688H55.0996ZM58.4746 56.9434V58.2793H54.5254V56.9434H58.4746ZM59.0605 53.4688V54.8457H54.5254V53.4688H59.0605Z" fill="rgba(255,255,255,0.5)"/>
<defs>
<radialGradient id="paint0_radial_247_1530" cx="0" cy="0" r="1" gradientUnits="userSpaceOnUse" gradientTransform="translate(44 50.5) rotate(90) scale(49.5 70.6762)">
<stop stop-color="white" stop-opacity="0"/>
<stop offset="0.59375" stop-color="white" stop-opacity="0"/>
<stop offset="1" stop-color="white" stop-opacity="0.19"/>
</radialGradient>
</defs>
</svg>
